LXGWWenKaiTC-Bold.ufo
<glyph name="exclam" format="2">
  <advance width="350" height="350"/>
  <unicode hex="0021"/>
  <outline>
    <contour>
      <point x="190" y="159" type="qcurve" smooth="yes"/>
      <point x="210" y="159"/>
      <point x="210" y="173" type="qcurve" smooth="yes"/>
      <point x="210" y="223"/>
      <point x="222" y="609" type="qcurve" smooth="yes"/>
      <point x="223" y="631"/>
      <point x="227" y="663"/>
      <point x="228" y="680" type="qcurve" smooth="yes"/>
      <point x="228" y="698"/>
      <point x="182" y="718"/>
      <point x="159" y="718" type="qcurve" smooth="yes"/>
      <point x="131" y="718"/>
      <point x="131" y="694" type="qcurve" smooth="yes"/>
      <point x="135" y="668"/>
      <point x="142" y="227" type="qcurve" smooth="yes"/>
      <point x="142" y="204"/>
      <point x="140" y="188" type="qcurve" smooth="yes"/>
      <point x="140" y="173"/>
      <point x="174" y="159"/>
    </contour>
    <contour>
      <point x="179" y="-15" type="qcurve" smooth="yes"/>
      <point x="234" y="-15"/>
      <point x="234" y="39" type="qcurve" smooth="yes"/>
      <point x="234" y="62"/>
      <point x="198" y="107"/>
      <point x="146" y="107"/>
      <point x="117" y="74"/>
      <point x="117" y="51" type="qcurve" smooth="yes"/>
      <point x="117" y="27"/>
      <point x="152" y="-15"/>
    </contour>
  </outline>
</glyph>
<glyph name="quotedbl" format="2">
  <advance width="350" height="350"/>
  <unicode hex="0022"/>
  <outline>
    <contour>
      <point x="74" y="470"/>
      <point x="74" y="492" type="qcurve" smooth="yes"/>
      <point x="68" y="703" type="line" smooth="yes"/>
      <point x="68" y="718"/>
      <point x="97" y="731"/>
      <point x="112" y="731" type="qcurve" smooth="yes"/>
      <point x="126" y="731"/>
      <point x="154" y="718"/>
      <point x="154" y="703" type="qcurve" smooth="yes"/>
      <point x="148" y="492" type="line" smooth="yes"/>
      <point x="148" y="470"/>
    </contour>
    <contour>
      <point x="202" y="470"/>
      <point x="202" y="492" type="qcurve" smooth="yes"/>
      <point x="196" y="703" type="line" smooth="yes"/>
      <point x="196" y="718"/>
      <point x="225" y="731"/>
      <point x="240" y="731" type="qcurve" smooth="yes"/>
      <point x="254" y="731"/>
      <point x="282" y="718"/>
      <point x="282" y="703" type="qcurve" smooth="yes"/>
      <point x="276" y="492" type="line" smooth="yes"/>
      <point x="276" y="470"/>
    </contour>
  </outline>
</glyph>
<glyph name="ampersand" format="2">
  <advance width="700" height="700"/>
  <unicode hex="0026"/>
  <outline>
    <contour>
      <point x="263" y="45" type="qcurve" smooth="yes"/>
      <point x="305" y="45"/>
      <point x="400" y="85"/>
      <point x="438" y="122" type="qcurve"/>
      <point x="366" y="198"/>
      <point x="244" y="343" type="qcurve"/>
      <point x="124" y="262"/>
      <point x="124" y="162" type="qcurve" smooth="yes"/>
      <point x="124" y="107"/>
      <point x="194" y="45"/>
    </contour>
    <contour>
      <point x="258" y="443" type="qcurve"/>
      <point x="306" y="474"/>
      <point x="369" y="554"/>
      <point x="369" y="588" type="qcurve" smooth="yes"/>
      <point x="369" y="654"/>
      <point x="259" y="654"/>
      <point x="231" y="606" type="qcurve" smooth="yes"/>
      <point x="218" y="583"/>
      <point x="218" y="556" type="qcurve" smooth="yes"/>
      <point x="218" y="495"/>
    </contour>
    <contour>
      <point x="263" y="-23" type="qcurve" smooth="yes"/>
      <point x="46" y="-23"/>
      <point x="46" y="154" type="qcurve" smooth="yes"/>
      <point x="46" y="234"/>
      <point x="134" y="352"/>
      <point x="200" y="399" type="qcurve"/>
      <point x="140" y="479"/>
      <point x="140" y="558" type="qcurve" smooth="yes"/>
      <point x="140" y="605"/>
      <point x="186" y="678"/>
      <point x="261" y="718"/>
      <point x="317" y="718" type="qcurve" smooth="yes"/>
      <point x="372" y="718"/>
      <point x="448" y="654"/>
      <point x="448" y="591" type="qcurve" smooth="yes"/>
      <point x="448" y="488"/>
      <point x="304" y="386" type="qcurve"/>
      <point x="405" y="261"/>
      <point x="483" y="180" type="qcurve"/>
      <point x="535" y="252"/>
      <point x="564" y="366" type="qcurve" smooth="yes"/>
      <point x="569" y="384"/>
      <point x="578" y="410"/>
      <point x="591" y="410" type="qcurve" smooth="yes"/>
      <point x="597" y="410"/>
      <point x="623" y="398"/>
      <point x="647" y="376"/>
      <point x="647" y="358" type="qcurve" smooth="yes"/>
      <point x="647" y="341"/>
      <point x="576" y="184"/>
      <point x="536" y="127" type="qcurve"/>
      <point x="614" y="45"/>
      <point x="661" y="29" type="qcurve" smooth="yes"/>
      <point x="710" y="8"/>
      <point x="710" y="-20"/>
      <point x="667" y="-20" type="qcurve" smooth="yes"/>
      <point x="628" y="-20"/>
      <point x="567" y="0"/>
      <point x="517" y="43"/>
      <point x="488" y="70" type="qcurve"/>
      <point x="404" y="-23"/>
    </contour>
  </outline>
</glyph>
<glyph name="quotesingle" format="2">
  <advance width="350" height="350"/>
  <unicode hex="0027"/>
  <outline>
    <contour>
      <point x="176" y="470" type="qcurve" smooth="yes"/>
      <point x="212" y="470"/>
      <point x="212" y="492" type="qcurve" smooth="yes"/>
      <point x="218" y="704" type="line" smooth="yes"/>
      <point x="218" y="731"/>
      <point x="175" y="731" type="qcurve" smooth="yes"/>
      <point x="161" y="731"/>
      <point x="132" y="718"/>
      <point x="132" y="703" type="qcurve" smooth="yes"/>
      <point x="138" y="492" type="line" smooth="yes"/>
      <point x="141" y="470"/>
    </contour>
  </outline>
</glyph>
<glyph name="parenleft" format="2">
  <advance height="1000" width="350"/>
  <unicode hex="0028"/>
  <outline>
    <contour>
      <point x="299" y="-165" type="qcurve" smooth="yes"/>
      <point x="289" y="-165"/>
      <point x="264" y="-142" type="qcurve" smooth="yes"/>
      <point x="206" y="-89"/>
      <point x="157" y="13" type="qcurve" smooth="yes"/>
      <point x="94" y="140"/>
      <point x="94" y="289" type="qcurve" smooth="yes"/>
      <point x="94" y="437"/>
      <point x="207" y="706"/>
      <point x="266" y="770" type="qcurve" smooth="yes"/>
      <point x="291" y="797"/>
      <point x="304" y="797" type="qcurve" smooth="yes"/>
      <point x="329" y="797"/>
      <point x="329" y="774" type="qcurve" smooth="yes"/>
      <point x="329" y="764"/>
      <point x="322" y="757" type="qcurve" smooth="yes"/>
      <point x="258" y="682"/>
      <point x="181" y="401"/>
      <point x="181" y="292" type="qcurve" smooth="yes"/>
      <point x="181" y="182"/>
      <point x="252" y="-58"/>
      <point x="311" y="-117" type="qcurve" smooth="yes"/>
      <point x="321" y="-127"/>
      <point x="321" y="-140" type="qcurve" smooth="yes"/>
      <point x="321" y="-165"/>
    </contour>
  </outline>
</glyph>
<glyph name="parenright" format="2">
  <advance width="350" height="350"/>
  <unicode hex="0029"/>
  <outline>
    <contour>
      <point x="50" y="-165" type="qcurve" smooth="yes"/>
      <point x="28" y="-165"/>
      <point x="28" y="-140" type="qcurve" smooth="yes"/>
      <point x="28" y="-127"/>
      <point x="38" y="-117" type="qcurve" smooth="yes"/>
      <point x="97" y="-58"/>
      <point x="168" y="182"/>
      <point x="168" y="292" type="qcurve" smooth="yes"/>
      <point x="168" y="401"/>
      <point x="91" y="682"/>
      <point x="27" y="757" type="qcurve" smooth="yes"/>
      <point x="20" y="764"/>
      <point x="20" y="774" type="qcurve" smooth="yes"/>
      <point x="20" y="797"/>
      <point x="45" y="797" type="qcurve" smooth="yes"/>
      <point x="59" y="797"/>
      <point x="84" y="770" type="qcurve" smooth="yes"/>
      <point x="142" y="706"/>
      <point x="194" y="586" type="qcurve" smooth="yes"/>
      <point x="255" y="437"/>
      <point x="255" y="141"/>
      <point x="143" y="-90"/>
      <point x="85" y="-142" type="qcurve" smooth="yes"/>
      <point x="60" y="-165"/>
    </contour>
  </outline>
</glyph>
<glyph name="plus" format="2">
  <advance width="600" height="600"/>
  <unicode hex="002B"/>
  <outline>
    <contour>
      <point x="303" y="-9" type="qcurve" smooth="yes"/>
      <point x="288" y="-9"/>
      <point x="262" y="7"/>
      <point x="262" y="23" type="qcurve" smooth="yes"/>
      <point x="265" y="53"/>
      <point x="265" y="216" type="qcurve"/>
      <point x="94" y="216"/>
      <point x="75" y="213" type="qcurve" smooth="yes"/>
      <point x="60" y="213"/>
      <point x="45" y="243"/>
      <point x="45" y="257" type="qcurve" smooth="yes"/>
      <point x="45" y="288"/>
      <point x="71" y="288" type="qcurve" smooth="yes"/>
      <point x="99" y="286"/>
      <point x="265" y="286" type="qcurve"/>
      <point x="265" y="447"/>
      <point x="263" y="475" type="qcurve" smooth="yes"/>
      <point x="263" y="501"/>
      <point x="294" y="501" type="qcurve" smooth="yes"/>
      <point x="308" y="501"/>
      <point x="338" y="486"/>
      <point x="338" y="471" type="qcurve" smooth="yes"/>
      <point x="335" y="434"/>
      <point x="335" y="286" type="qcurve"/>
      <point x="462" y="286"/>
      <point x="522" y="289" type="qcurve" smooth="yes"/>
      <point x="539" y="289"/>
      <point x="554" y="262"/>
      <point x="554" y="247" type="qcurve" smooth="yes"/>
      <point x="554" y="215"/>
      <point x="528" y="215" type="qcurve" smooth="yes"/>
      <point x="454" y="216"/>
      <point x="335" y="216" type="qcurve"/>
      <point x="335" y="91"/>
      <point x="336" y="17" type="qcurve" smooth="yes"/>
      <point x="336" y="-9"/>
    </contour>
  </outline>
</glyph>
<glyph name="period" format="2">
  <advance height="1000" width="350"/>
  <unicode hex="002E"/>
  <outline>
    <contour>
      <point x="180" y="-20" type="qcurve" smooth="yes"/>
      <point x="203" y="-20"/>
      <point x="244" y="16"/>
      <point x="244" y="43" type="qcurve" smooth="yes"/>
      <point x="244" y="69"/>
      <point x="203" y="116"/>
      <point x="178" y="116" type="qcurve" smooth="yes"/>
      <point x="154" y="116"/>
      <point x="117" y="81"/>
      <point x="117" y="54" type="qcurve" smooth="yes"/>
      <point x="117" y="28"/>
      <point x="155" y="-20"/>
    </contour>
  </outline>
</glyph>
<glyph name="slash" format="2">
  <advance height="1000" width="350"/>
  <unicode hex="002F"/>
  <outline>
    <contour>
      <point x="47" y="-48" type="qcurve" smooth="yes"/>
      <point x="64" y="-48"/>
      <point x="70" y="-31" type="qcurve" smooth="yes"/>
      <point x="79" y="0"/>
      <point x="312" y="638" type="qcurve" smooth="yes"/>
      <point x="325" y="674"/>
      <point x="341" y="705"/>
      <point x="341" y="709" type="qcurve" smooth="yes"/>
      <point x="341" y="728"/>
      <point x="313" y="749" type="qcurve" smooth="yes"/>
      <point x="301" y="757"/>
      <point x="290" y="757" type="qcurve" smooth="yes"/>
      <point x="275" y="757"/>
      <point x="271" y="739" type="qcurve" smooth="yes"/>
      <point x="262" y="704"/>
      <point x="247" y="662" type="qcurve" smooth="yes"/>
      <point x="33" y="72" type="line" smooth="yes"/>
      <point x="24" y="44"/>
      <point x="6" y="12" type="qcurve" smooth="yes"/>
      <point x="2" y="4"/>
      <point x="2" y="-8" type="qcurve" smooth="yes"/>
      <point x="2" y="-22"/>
      <point x="32" y="-48"/>
    </contour>
  </outline>
</glyph>
<glyph name="zero" format="2">
  <advance width="600" height="600"/>
  <unicode hex="0030"/>
  <outline>
    <contour>
      <point x="302" y="51" type="qcurve" smooth="yes"/>
      <point x="351" y="51"/>
      <point x="384" y="92" type="qcurve" smooth="yes"/>
      <point x="450" y="171"/>
      <point x="450" y="366" type="qcurve" smooth="yes"/>
      <point x="450" y="559"/>
      <point x="376" y="621" type="qcurve" smooth="yes"/>
      <point x="349" y="644"/>
      <point x="318" y="644" type="qcurve" smooth="yes"/>
      <point x="257" y="644"/>
      <point x="151" y="479"/>
      <point x="151" y="344" type="qcurve" smooth="yes"/>
      <point x="151" y="207"/>
      <point x="179" y="136" type="qcurve" smooth="yes"/>
      <point x="212" y="51"/>
    </contour>
    <contour>
      <point x="178" y="-24"/>
      <point x="119" y="84" type="qcurve" smooth="yes"/>
      <point x="67" y="178"/>
      <point x="67" y="321" type="qcurve" smooth="yes"/>
      <point x="67" y="463"/>
      <point x="106" y="568" type="qcurve" smooth="yes"/>
      <point x="123" y="613"/>
      <point x="159" y="665"/>
      <point x="187" y="665"/>
      <point x="194" y="656" type="qcurve"/>
      <point x="248" y="719"/>
      <point x="318" y="719" type="qcurve" smooth="yes"/>
      <point x="387" y="719"/>
      <point x="437" y="670" type="qcurve" smooth="yes"/>
      <point x="534" y="576"/>
      <point x="534" y="354" type="qcurve" smooth="yes"/>
      <point x="534" y="198"/>
      <point x="477" y="91" type="qcurve" smooth="yes"/>
      <point x="414" y="-24"/>
    </contour>
  </outline>
</glyph>
<glyph name="one" format="2">
  <advance height="1000" width="600"/>
  <unicode hex="0031"/>
  <outline>
    <contour>
      <point x="335" y="-17" type="qcurve" smooth="yes"/>
      <point x="315" y="-17"/>
      <point x="271" y="0"/>
      <point x="271" y="17" type="qcurve" smooth="yes"/>
      <point x="273" y="105" type="line"/>
      <point x="273" y="596" type="line"/>
      <point x="245" y="579"/>
      <point x="186" y="566" type="qcurve" smooth="yes"/>
      <point x="183" y="565"/>
      <point x="172" y="565" type="qcurve" smooth="yes"/>
      <point x="160" y="565"/>
      <point x="127" y="583"/>
      <point x="127" y="607"/>
      <point x="142" y="613" type="qcurve" smooth="yes"/>
      <point x="236" y="650"/>
      <point x="278" y="698" type="qcurve" smooth="yes"/>
      <point x="294" y="716"/>
      <point x="309" y="716" type="qcurve" smooth="yes"/>
      <point x="323" y="716"/>
      <point x="364" y="689"/>
      <point x="364" y="673" type="qcurve" smooth="yes"/>
      <point x="364" y="659"/>
      <point x="358" y="622"/>
      <point x="358" y="600" type="qcurve" smooth="yes"/>
      <point x="358" y="111"/>
      <point x="360" y="-1" type="qcurve" smooth="yes"/>
      <point x="360" y="-17"/>
    </contour>
  </outline>
</glyph>
<glyph name="two" format="2">
  <advance height="1000" width="600"/>
  <unicode hex="0032"/>
  <outline>
    <contour>
      <point x="104" y="-10" type="qcurve"/>
      <point x="165" y="1"/>
      <point x="245" y="1" type="qcurve" smooth="yes"/>
      <point x="439" y="1"/>
      <point x="514" y="-7"/>
      <point x="524" y="-7" type="qcurve" smooth="yes"/>
      <point x="545" y="-7"/>
      <point x="545" y="16" type="qcurve" smooth="yes"/>
      <point x="545" y="35"/>
      <point x="521" y="75"/>
      <point x="505" y="75" type="qcurve" smooth="yes"/>
      <point x="440" y="74" type="line"/>
      <point x="294" y="75" type="line" smooth="yes"/>
      <point x="195" y="75"/>
      <point x="156" y="71" type="qcurve"/>
      <point x="219" y="173"/>
      <point x="366" y="292" type="qcurve" smooth="yes"/>
      <point x="441" y="355"/>
      <point x="530" y="481"/>
      <point x="530" y="552" type="qcurve" smooth="yes"/>
      <point x="530" y="624"/>
      <point x="422" y="719"/>
      <point x="222" y="719"/>
      <point x="150" y="656" type="qcurve" smooth="yes"/>
      <point x="121" y="631"/>
      <point x="92" y="583"/>
      <point x="92" y="571" type="qcurve" smooth="yes"/>
      <point x="92" y="558"/>
      <point x="119" y="519"/>
      <point x="135" y="519" type="qcurve" smooth="yes"/>
      <point x="165" y="519"/>
      <point x="177" y="549" type="qcurve" smooth="yes"/>
      <point x="213" y="643"/>
      <point x="329" y="643" type="qcurve" smooth="yes"/>
      <point x="388" y="643"/>
      <point x="444" y="589"/>
      <point x="444" y="545" type="qcurve" smooth="yes"/>
      <point x="444" y="500"/>
      <point x="379" y="402"/>
      <point x="232" y="281"/>
      <point x="107" y="142"/>
      <point x="78" y="91" type="qcurve" smooth="yes"/>
      <point x="74" y="85"/>
      <point x="62" y="72"/>
      <point x="51" y="54"/>
      <point x="51" y="26"/>
      <point x="78" y="-10"/>
    </contour>
  </outline>
</glyph>
<glyph name="three" format="2">
  <advance width="600" height="600"/>
  <unicode hex="0033"/>
  <outline>
    <contour>
      <point x="285" y="-24" type="qcurve" smooth="yes"/>
      <point x="205" y="-24"/>
      <point x="105" y="18"/>
      <point x="63" y="59" type="qcurve" smooth="yes"/>
      <point x="53" y="69"/>
      <point x="53" y="87" type="qcurve" smooth="yes"/>
      <point x="53" y="104"/>
      <point x="77" y="143"/>
      <point x="89" y="143" type="qcurve" smooth="yes"/>
      <point x="99" y="143"/>
      <point x="107" y="135" type="qcurve" smooth="yes"/>
      <point x="139" y="96"/>
      <point x="216" y="51"/>
      <point x="278" y="51" type="qcurve" smooth="yes"/>
      <point x="339" y="51"/>
      <point x="422" y="97"/>
      <point x="460" y="173"/>
      <point x="460" y="217" type="qcurve" smooth="yes"/>
      <point x="460" y="275"/>
      <point x="379" y="346"/>
      <point x="315" y="346" type="qcurve" smooth="yes"/>
      <point x="279" y="346"/>
      <point x="234" y="337" type="qcurve" smooth="yes"/>
      <point x="216" y="337"/>
      <point x="193" y="373"/>
      <point x="193" y="390" type="qcurve" smooth="yes"/>
      <point x="193" y="410"/>
      <point x="210" y="411" type="qcurve" smooth="yes"/>
      <point x="341" y="424"/>
      <point x="401" y="485" type="qcurve" smooth="yes"/>
      <point x="429" y="514"/>
      <point x="429" y="551" type="qcurve" smooth="yes"/>
      <point x="429" y="645"/>
      <point x="318" y="645" type="qcurve" smooth="yes"/>
      <point x="228" y="645"/>
      <point x="155" y="566" type="qcurve" smooth="yes"/>
      <point x="144" y="551"/>
      <point x="129" y="551" type="qcurve" smooth="yes"/>
      <point x="125" y="551"/>
      <point x="89" y="575"/>
      <point x="89" y="617"/>
      <point x="102" y="627" type="qcurve" smooth="yes"/>
      <point x="189" y="719"/>
      <point x="316" y="719" type="qcurve" smooth="yes"/>
      <point x="403" y="719"/>
      <point x="511" y="634"/>
      <point x="511" y="564" type="qcurve" smooth="yes"/>
      <point x="511" y="428"/>
      <point x="413" y="398" type="qcurve"/>
      <point x="421" y="398"/>
      <point x="497" y="353"/>
      <point x="543" y="273"/>
      <point x="543" y="213" type="qcurve" smooth="yes"/>
      <point x="543" y="154"/>
      <point x="485" y="43"/>
      <point x="366" y="-24"/>
    </contour>
  </outline>
</glyph>
<glyph name="four" format="2">
  <advance height="1000" width="600"/>
  <unicode hex="0034"/>
  <outline>
    <contour>
      <point x="433" y="-17" type="qcurve" smooth="yes"/>
      <point x="457" y="-17"/>
      <point x="457" y="-1" type="qcurve" smooth="yes"/>
      <point x="453" y="80"/>
      <point x="453" y="154" type="qcurve"/>
      <point x="466" y="155" type="line"/>
      <point x="559" y="153" type="line" smooth="yes"/>
      <point x="576" y="153"/>
      <point x="576" y="175" type="qcurve" smooth="yes"/>
      <point x="576" y="191"/>
      <point x="555" y="233"/>
      <point x="540" y="233" type="qcurve" smooth="yes"/>
      <point x="528" y="233"/>
      <point x="506" y="230" type="qcurve" smooth="yes"/>
      <point x="453" y="226" type="line"/>
      <point x="453" y="418"/>
      <point x="455" y="507" type="qcurve" smooth="yes"/>
      <point x="455" y="524"/>
      <point x="413" y="541"/>
      <point x="394" y="541" type="qcurve" smooth="yes"/>
      <point x="369" y="541"/>
      <point x="369" y="525" type="qcurve" smooth="yes"/>
      <point x="372" y="418"/>
      <point x="372" y="223" type="qcurve"/>
      <point x="147" y="213" type="line"/>
      <point x="220" y="319"/>
      <point x="404" y="617" type="qcurve" smooth="yes"/>
      <point x="426" y="651"/>
      <point x="426" y="657" type="qcurve" smooth="yes"/>
      <point x="426" y="683"/>
      <point x="394" y="707" type="qcurve" smooth="yes"/>
      <point x="380" y="717"/>
      <point x="370" y="717" type="qcurve" smooth="yes"/>
      <point x="358" y="717"/>
      <point x="353" y="706" type="qcurve" smooth="yes"/>
      <point x="335" y="662"/>
      <point x="275" y="550"/>
      <point x="88" y="255" type="qcurve" smooth="yes"/>
      <point x="81" y="246"/>
      <point x="62" y="223"/>
      <point x="45" y="198"/>
      <point x="45" y="182" type="qcurve" smooth="yes"/>
      <point x="45" y="164"/>
      <point x="79" y="132"/>
      <point x="92" y="132" type="qcurve" smooth="yes"/>
      <point x="103" y="132"/>
      <point x="124" y="138"/>
      <point x="372" y="151" type="qcurve"/>
      <point x="372" y="87"/>
      <point x="370" y="17" type="qcurve" smooth="yes"/>
      <point x="370" y="0"/>
      <point x="413" y="-17"/>
    </contour>
  </outline>
</glyph>
<glyph name="five" format="2">
  <advance height="1000" width="600"/>
  <unicode hex="0035"/>
  <outline>
    <contour>
      <point x="291" y="-25" type="qcurve" smooth="yes"/>
      <point x="371" y="-25"/>
      <point x="488" y="45"/>
      <point x="543" y="159"/>
      <point x="543" y="295"/>
      <point x="480" y="394"/>
      <point x="378" y="448"/>
      <point x="313" y="448" type="qcurve" smooth="yes"/>
      <point x="225" y="448"/>
      <point x="174" y="407" type="qcurve"/>
      <point x="208" y="611" type="line"/>
      <point x="459" y="630" type="line" smooth="yes"/>
      <point x="481" y="630"/>
      <point x="512" y="631"/>
      <point x="512" y="652" type="qcurve" smooth="yes"/>
      <point x="512" y="669"/>
      <point x="491" y="708"/>
      <point x="475" y="708" type="qcurve" smooth="yes"/>
      <point x="462" y="706"/>
      <point x="200" y="687" type="qcurve"/>
      <point x="178" y="698"/>
      <point x="160" y="698" type="qcurve" smooth="yes"/>
      <point x="136" y="698"/>
      <point x="136" y="679" type="qcurve" smooth="yes"/>
      <point x="136" y="648"/>
      <point x="134" y="637" type="qcurve" smooth="yes"/>
      <point x="96" y="397" type="line"/>
      <point x="85" y="359"/>
      <point x="85" y="345" type="qcurve" smooth="yes"/>
      <point x="85" y="329"/>
      <point x="114" y="297"/>
      <point x="126" y="297" type="qcurve" smooth="yes"/>
      <point x="137" y="297"/>
      <point x="142" y="302" type="qcurve" smooth="yes"/>
      <point x="176" y="332"/>
      <point x="248" y="376"/>
      <point x="311" y="376" type="qcurve" smooth="yes"/>
      <point x="376" y="375"/>
      <point x="462" y="296"/>
      <point x="462" y="223" type="qcurve" smooth="yes"/>
      <point x="462" y="177"/>
      <point x="422" y="98"/>
      <point x="342" y="51"/>
      <point x="279" y="51" type="qcurve" smooth="yes"/>
      <point x="179" y="53"/>
      <point x="114" y="147" type="qcurve" smooth="yes"/>
      <point x="108" y="157"/>
      <point x="96" y="157" type="qcurve" smooth="yes"/>
      <point x="83" y="157"/>
      <point x="59" y="116"/>
      <point x="59" y="98" type="qcurve" smooth="yes"/>
      <point x="59" y="79"/>
      <point x="68" y="70" type="qcurve" smooth="yes"/>
      <point x="155" y="-25"/>
    </contour>
  </outline>
</glyph>
<glyph name="six" format="2">
  <advance width="600" height="600"/>
  <unicode hex="0036"/>
  <outline>
    <contour>
      <point x="57" y="199" type="qcurve" smooth="yes"/>
      <point x="57" y="135"/>
      <point x="118" y="35"/>
      <point x="228" y="-23"/>
      <point x="384" y="-23"/>
      <point x="493" y="46"/>
      <point x="547" y="161"/>
      <point x="547" y="289"/>
      <point x="485" y="387"/>
      <point x="382" y="442"/>
      <point x="320" y="442" type="qcurve" smooth="yes"/>
      <point x="232" y="442"/>
      <point x="192" y="407" type="qcurve"/>
      <point x="255" y="532"/>
      <point x="370" y="664" type="qcurve" smooth="yes"/>
      <point x="382" y="676"/>
      <point x="382" y="689" type="qcurve" smooth="yes"/>
      <point x="382" y="704"/>
      <point x="350" y="720"/>
      <point x="326" y="720" type="qcurve" smooth="yes"/>
      <point x="298" y="720"/>
      <point x="291" y="706" type="qcurve" smooth="yes"/>
      <point x="287" y="700"/>
      <point x="281" y="685"/>
      <point x="206" y="572"/>
      <point x="107" y="403"/>
      <point x="57" y="262"/>
    </contour>
    <contour>
      <point x="303" y="50" type="qcurve" smooth="yes"/>
      <point x="224" y="50"/>
      <point x="140" y="133"/>
      <point x="140" y="197" type="qcurve" smooth="yes"/>
      <point x="140" y="245"/>
      <point x="182" y="323"/>
      <point x="261" y="370"/>
      <point x="312" y="370" type="qcurve" smooth="yes"/>
      <point x="362" y="370"/>
      <point x="428" y="330"/>
      <point x="464" y="263"/>
      <point x="464" y="224" type="qcurve" smooth="yes"/>
      <point x="464" y="148"/>
      <point x="381" y="50"/>
    </contour>
  </outline>
</glyph>
<glyph name="seven" format="2">
  <advance height="1000" width="600"/>
  <unicode hex="0037"/>
  <outline>
    <contour>
      <point x="221" y="-17" type="qcurve" smooth="yes"/>
      <point x="256" y="-17"/>
      <point x="260" y="4" type="qcurve" smooth="yes"/>
      <point x="318" y="217"/>
      <point x="485" y="557" type="qcurve" smooth="yes"/>
      <point x="509" y="605"/>
      <point x="532" y="641"/>
      <point x="536" y="656" type="qcurve"/>
      <point x="536" y="674"/>
      <point x="501" y="707"/>
      <point x="484" y="708" type="qcurve" smooth="yes"/>
      <point x="472" y="708"/>
      <point x="450" y="702"/>
      <point x="119" y="678" type="qcurve"/>
      <point x="83" y="680" type="line" smooth="yes"/>
      <point x="71" y="680"/>
      <point x="71" y="665" type="qcurve" smooth="yes"/>
      <point x="71" y="662"/>
      <point x="81" y="630"/>
      <point x="105" y="600"/>
      <point x="122" y="600" type="qcurve" smooth="yes"/>
      <point x="136" y="600"/>
      <point x="154" y="604"/>
      <point x="432" y="628" type="qcurve"/>
      <point x="326" y="413"/>
      <point x="172" y="35"/>
      <point x="172" y="23" type="qcurve" smooth="yes"/>
      <point x="172" y="9"/>
      <point x="188" y="-17"/>
    </contour>
  </outline>
</glyph>
<glyph name="nine" format="2">
  <advance height="1000" width="600"/>
  <unicode hex="0039"/>
  <outline>
    <contour>
      <point x="379" y="-19" type="qcurve" smooth="yes"/>
      <point x="430" y="-17"/>
      <point x="433" y="8" type="qcurve" smooth="yes"/>
      <point x="440" y="68"/>
      <point x="458" y="177" type="qcurve" smooth="yes"/>
      <point x="522" y="553"/>
      <point x="557" y="643" type="qcurve"/>
      <point x="557" y="657"/>
      <point x="521" y="687"/>
      <point x="497" y="689" type="qcurve" smooth="yes"/>
      <point x="477" y="689"/>
      <point x="473" y="652"/>
      <point x="472" y="646" type="qcurve"/>
      <point x="471" y="648"/>
      <point x="450" y="668" type="qcurve" smooth="yes"/>
      <point x="397" y="718"/>
      <point x="313" y="718" type="qcurve" smooth="yes"/>
      <point x="208" y="718"/>
      <point x="53" y="546"/>
      <point x="53" y="439" type="qcurve" smooth="yes"/>
      <point x="53" y="383"/>
      <point x="101" y="299"/>
      <point x="180" y="254"/>
      <point x="232" y="254" type="qcurve" smooth="yes"/>
      <point x="282" y="254"/>
      <point x="389" y="309"/>
      <point x="409" y="334" type="qcurve"/>
      <point x="410" y="337" type="line"/>
      <point x="410" y="330"/>
      <point x="396" y="262" type="qcurve" smooth="yes"/>
      <point x="345" y="20"/>
      <point x="345" y="9" type="qcurve" smooth="yes"/>
      <point x="345" y="-19"/>
    </contour>
    <contour>
      <point x="227" y="331" type="qcurve" smooth="yes"/>
      <point x="134" y="331"/>
      <point x="134" y="453" type="qcurve" smooth="yes"/>
      <point x="134" y="514"/>
      <point x="243" y="644"/>
      <point x="318" y="644" type="qcurve" smooth="yes"/>
      <point x="377" y="644"/>
      <point x="409" y="606" type="qcurve" smooth="yes"/>
      <point x="423" y="590"/>
      <point x="435" y="561"/>
      <point x="453" y="561" type="qcurve"/>
      <point x="453" y="547"/>
      <point x="436" y="504" type="qcurve" smooth="yes"/>
      <point x="411" y="439"/>
      <point x="370" y="395" type="qcurve" smooth="yes"/>
      <point x="310" y="331"/>
    </contour>
  </outline>
</glyph>
<glyph name="colon" format="2">
  <advance height="1000" width="350"/>
  <unicode hex="003A"/>
  <outline>
    <contour>
      <point x="236" y="411" type="qcurve" smooth="yes"/>
      <point x="236" y="433"/>
      <point x="200" y="478"/>
      <point x="176" y="478" type="qcurve" smooth="yes"/>
      <point x="153" y="478"/>
      <point x="119" y="451"/>
      <point x="119" y="403"/>
      <point x="154" y="358"/>
      <point x="208" y="358"/>
      <point x="236" y="388"/>
    </contour>
    <contour>
      <point x="236" y="40" type="qcurve" smooth="yes"/>
      <point x="236" y="62"/>
      <point x="200" y="107"/>
      <point x="176" y="107" type="qcurve" smooth="yes"/>
      <point x="153" y="107"/>
      <point x="119" y="80"/>
      <point x="119" y="32"/>
      <point x="154" y="-13"/>
      <point x="208" y="-13"/>
      <point x="236" y="17"/>
    </contour>
  </outline>
</glyph>
<glyph name="less" format="2">
  <advance width="600" height="600"/>
  <unicode hex="003C"/>
  <outline>
    <contour>
      <point x="483" y="-22" type="qcurve" smooth="yes"/>
      <point x="479" y="-22"/>
      <point x="473" y="-18" type="qcurve" smooth="yes"/>
      <point x="378" y="54"/>
      <point x="199" y="151" type="qcurve" smooth="yes"/>
      <point x="137" y="184"/>
      <point x="129" y="185" type="qcurve" smooth="yes"/>
      <point x="87" y="194"/>
      <point x="87" y="248" type="qcurve" smooth="yes"/>
      <point x="87" y="261"/>
      <point x="97" y="278"/>
      <point x="131" y="289"/>
      <point x="175" y="313" type="qcurve" smooth="yes"/>
      <point x="236" y="344"/>
      <point x="422" y="453"/>
      <point x="473" y="494" type="qcurve" smooth="yes"/>
      <point x="479" y="498"/>
      <point x="484" y="498" type="qcurve" smooth="yes"/>
      <point x="498" y="498"/>
      <point x="513" y="462"/>
      <point x="513" y="444" type="qcurve" smooth="yes"/>
      <point x="513" y="422"/>
      <point x="501" y="416" type="qcurve" smooth="yes"/>
      <point x="467" y="397"/>
      <point x="292" y="292"/>
      <point x="179" y="236" type="qcurve"/>
      <point x="329" y="162"/>
      <point x="463" y="81" type="qcurve" smooth="yes"/>
      <point x="479" y="72"/>
      <point x="508" y="54"/>
      <point x="508" y="32" type="qcurve" smooth="yes"/>
      <point x="508" y="-22"/>
    </contour>
  </outline>
</glyph>
<glyph name="equal" format="2">
  <advance width="600" height="600"/>
  <unicode hex="003D"/>
  <outline>
    <contour>
      <point x="81" y="306" type="qcurve" smooth="yes"/>
      <point x="99" y="309"/>
      <point x="444" y="309" type="qcurve"/>
      <point x="525" y="307" type="line" smooth="yes"/>
      <point x="546" y="307"/>
      <point x="546" y="332" type="qcurve" smooth="yes"/>
      <point x="546" y="382"/>
      <point x="516" y="382" type="qcurve" smooth="yes"/>
      <point x="474" y="379"/>
      <point x="302" y="379" type="qcurve" smooth="yes"/>
      <point x="106" y="379"/>
      <point x="76" y="381" type="qcurve" smooth="yes"/>
      <point x="54" y="381"/>
      <point x="54" y="351" type="qcurve" smooth="yes"/>
      <point x="54" y="337"/>
      <point x="67" y="306"/>
    </contour>
    <contour>
      <point x="81" y="118" type="qcurve" smooth="yes"/>
      <point x="99" y="121"/>
      <point x="444" y="121" type="qcurve"/>
      <point x="525" y="119" type="line" smooth="yes"/>
      <point x="546" y="119"/>
      <point x="546" y="144" type="qcurve" smooth="yes"/>
      <point x="546" y="194"/>
      <point x="516" y="194" type="qcurve" smooth="yes"/>
      <point x="474" y="191"/>
      <point x="302" y="191" type="qcurve" smooth="yes"/>
      <point x="106" y="191"/>
      <point x="76" y="193" type="qcurve" smooth="yes"/>
      <point x="54" y="193"/>
      <point x="54" y="163" type="qcurve" smooth="yes"/>
      <point x="54" y="149"/>
      <point x="67" y="118"/>
    </contour>
  </outline>
</glyph>
<glyph name="greater" format="2">
  <advance width="600" height="600"/>
  <unicode hex="003E"/>
  <outline>
    <contour>
      <point x="120" y="-21" type="qcurve" smooth="yes"/>
      <point x="126" y="-21"/>
      <point x="132" y="-17" type="qcurve" smooth="yes"/>
      <point x="182" y="24"/>
      <point x="447" y="179"/>
      <point x="492" y="194" type="qcurve" smooth="yes"/>
      <point x="508" y="200"/>
      <point x="517" y="216"/>
      <point x="517" y="230" type="qcurve" smooth="yes"/>
      <point x="517" y="243"/>
      <point x="505" y="278"/>
      <point x="485" y="290"/>
      <point x="458" y="295"/>
      <point x="205" y="439"/>
      <point x="126" y="499"/>
      <point x="121" y="499" type="qcurve" smooth="yes"/>
      <point x="96" y="499"/>
      <point x="96" y="446" type="qcurve" smooth="yes"/>
      <point x="96" y="423"/>
      <point x="124" y="406"/>
      <point x="233" y="340"/>
      <point x="426" y="241" type="qcurve"/>
      <point x="307" y="181"/>
      <point x="137" y="80"/>
      <point x="103" y="61" type="qcurve" smooth="yes"/>
      <point x="91" y="56"/>
      <point x="91" y="34" type="qcurve" smooth="yes"/>
      <point x="91" y="15"/>
      <point x="106" y="-21"/>
    </contour>
  </outline>
</glyph>
<glyph name="at" format="2">
  <advance height="1000" width="784"/>
  <unicode hex="0040"/>
  <outline>
    <contour>
      <point x="393" y="-23" type="qcurve" smooth="yes"/>
      <point x="536" y="-23"/>
      <point x="654" y="67" type="qcurve" smooth="yes"/>
      <point x="709" y="109"/>
      <point x="744" y="163" type="qcurve" smooth="yes"/>
      <point x="750" y="175"/>
      <point x="750" y="183" type="qcurve" smooth="yes"/>
      <point x="750" y="205"/>
      <point x="730" y="205" type="qcurve" smooth="yes"/>
      <point x="718" y="205"/>
      <point x="705" y="190" type="qcurve" smooth="yes"/>
      <point x="671" y="152"/>
      <point x="620" y="119" type="qcurve" smooth="yes"/>
      <point x="508" y="48"/>
      <point x="262" y="48"/>
      <point x="108" y="179"/>
      <point x="108" y="313" type="qcurve" smooth="yes"/>
      <point x="108" y="444"/>
      <point x="295" y="651"/>
      <point x="426" y="651" type="qcurve" smooth="yes"/>
      <point x="495" y="651"/>
      <point x="613" y="599"/>
      <point x="681" y="498"/>
      <point x="681" y="428" type="qcurve" smooth="yes"/>
      <point x="681" y="356"/>
      <point x="646" y="260"/>
      <point x="597" y="211"/>
      <point x="573" y="211" type="qcurve" smooth="yes"/>
      <point x="559" y="211"/>
      <point x="559" y="252" type="qcurve" smooth="yes"/>
      <point x="559" y="385"/>
      <point x="600" y="506" type="qcurve"/>
      <point x="601" y="511" type="line" smooth="yes"/>
      <point x="601" y="524"/>
      <point x="576" y="544"/>
      <point x="545" y="556"/>
      <point x="532" y="556" type="qcurve" smooth="yes"/>
      <point x="514" y="556"/>
      <point x="514" y="545" type="qcurve" smooth="yes"/>
      <point x="514" y="532" type="line"/>
      <point x="490" y="566"/>
      <point x="424" y="566" type="qcurve" smooth="yes"/>
      <point x="359" y="566"/>
      <point x="255" y="491"/>
      <point x="194" y="369"/>
      <point x="194" y="298" type="qcurve" smooth="yes"/>
      <point x="194" y="226"/>
      <point x="269" y="143"/>
      <point x="332" y="143" type="qcurve" smooth="yes"/>
      <point x="430" y="143"/>
      <point x="481" y="224" type="qcurve"/>
      <point x="484" y="241"/>
      <point x="486" y="241"/>
      <point x="486" y="236" type="qcurve" smooth="yes"/>
      <point x="486" y="142"/>
      <point x="571" y="142" type="qcurve" smooth="yes"/>
      <point x="619" y="142"/>
      <point x="703" y="215"/>
      <point x="755" y="344"/>
      <point x="755" y="429" type="qcurve" smooth="yes"/>
      <point x="755" y="515"/>
      <point x="670" y="647"/>
      <point x="519" y="718"/>
      <point x="428" y="718" type="qcurve" smooth="yes"/>
      <point x="254" y="718"/>
      <point x="30" y="470"/>
      <point x="30" y="296" type="qcurve" smooth="yes"/>
      <point x="30" y="203"/>
      <point x="121" y="55"/>
      <point x="284" y="-23"/>
    </contour>
    <contour>
      <point x="332" y="219" type="qcurve" smooth="yes"/>
      <point x="278" y="219"/>
      <point x="278" y="302" type="qcurve" smooth="yes"/>
      <point x="278" y="356"/>
      <point x="322" y="444"/>
      <point x="390" y="497"/>
      <point x="456" y="497"/>
      <point x="492" y="461"/>
      <point x="492" y="426" type="qcurve" smooth="yes"/>
      <point x="492" y="352"/>
      <point x="445" y="287" type="qcurve" smooth="yes"/>
      <point x="397" y="219"/>
    </contour>
  </outline>
</glyph>
<glyph name="D" format="2">
  <advance width="728" height="728"/>
  <unicode hex="0044"/>
  <outline>
    <contour>
      <point x="182" y="46" type="line"/>
      <point x="322" y="49"/>
      <point x="508" y="132"/>
      <point x="596" y="271"/>
      <point x="596" y="348" type="qcurve" smooth="yes"/>
      <point x="596" y="489"/>
      <point x="413" y="645"/>
      <point x="298" y="645" type="qcurve" smooth="yes"/>
      <point x="235" y="645"/>
      <point x="182" y="630" type="qcurve"/>
    </contour>
    <contour>
      <point x="176" y="-14" type="qcurve" smooth="yes"/>
      <point x="45" y="-14"/>
      <point x="45" y="15" type="qcurve" smooth="yes"/>
      <point x="45" y="40"/>
      <point x="100" y="40" type="qcurve"/>
      <point x="100" y="621" type="line"/>
      <point x="89" y="624"/>
      <point x="60" y="656"/>
      <point x="60" y="668" type="qcurve" smooth="yes"/>
      <point x="60" y="701"/>
      <point x="244" y="716" type="qcurve" smooth="yes"/>
      <point x="277" y="718"/>
      <point x="303" y="718" type="qcurve" smooth="yes"/>
      <point x="458" y="718"/>
      <point x="679" y="519"/>
      <point x="679" y="201"/>
      <point x="582" y="106" type="qcurve" smooth="yes"/>
      <point x="500" y="24"/>
      <point x="375" y="2" type="qcurve" smooth="yes"/>
      <point x="298" y="-12"/>
    </contour>
  </outline>
</glyph>
<glyph name="F" format="2">
  <advance width="582" height="582"/>
  <unicode hex="0046"/>
  <outline>
    <contour>
      <point x="161" y="-15" type="qcurve" smooth="yes"/>
      <point x="185" y="-15"/>
      <point x="185" y="1" type="qcurve" smooth="yes"/>
      <point x="182" y="107"/>
      <point x="182" y="338" type="qcurve"/>
      <point x="404" y="351"/>
      <point x="489" y="351" type="qcurve" smooth="yes"/>
      <point x="508" y="351"/>
      <point x="508" y="373" type="qcurve" smooth="yes"/>
      <point x="508" y="391"/>
      <point x="485" y="430"/>
      <point x="471" y="430" type="qcurve" smooth="yes"/>
      <point x="459" y="430"/>
      <point x="433" y="427" type="qcurve" smooth="yes"/>
      <point x="397" y="423"/>
      <point x="182" y="409" type="qcurve"/>
      <point x="182" y="620" type="line"/>
      <point x="456" y="639"/>
      <point x="544" y="639" type="qcurve" smooth="yes"/>
      <point x="563" y="639"/>
      <point x="563" y="661" type="qcurve" smooth="yes"/>
      <point x="563" y="679"/>
      <point x="540" y="718"/>
      <point x="526" y="718" type="qcurve" smooth="yes"/>
      <point x="514" y="718"/>
      <point x="488" y="715" type="qcurve" smooth="yes"/>
      <point x="453" y="711"/>
      <point x="171" y="692" type="qcurve"/>
      <point x="151" y="699" type="line" smooth="yes"/>
      <point x="131" y="705"/>
      <point x="116" y="705" type="qcurve" smooth="yes"/>
      <point x="96" y="705"/>
      <point x="96" y="685" type="qcurve" smooth="yes"/>
      <point x="100" y="634" type="line"/>
      <point x="100" y="408" type="line"/>
      <point x="89" y="410" type="line" smooth="yes"/>
      <point x="73" y="410"/>
      <point x="73" y="393" type="qcurve" smooth="yes"/>
      <point x="73" y="381"/>
      <point x="90" y="346"/>
      <point x="100" y="340" type="qcurve"/>
      <point x="100" y="108"/>
      <point x="98" y="19" type="qcurve" smooth="yes"/>
      <point x="98" y="2"/>
      <point x="141" y="-15"/>
    </contour>
  </outline>
</glyph>
<glyph name="J" format="2">
  <advance width="492" height="492"/>
  <unicode hex="004A"/>
  <outline>
    <contour>
      <point x="206" y="-23" type="qcurve" smooth="yes"/>
      <point x="113" y="-23"/>
      <point x="56" y="40" type="qcurve" smooth="yes"/>
      <point x="10" y="89"/>
      <point x="10" y="125" type="qcurve" smooth="yes"/>
      <point x="10" y="137"/>
      <point x="30" y="163"/>
      <point x="57" y="179"/>
      <point x="69" y="179" type="qcurve" smooth="yes"/>
      <point x="84" y="179"/>
      <point x="87" y="163" type="qcurve" smooth="yes"/>
      <point x="111" y="55"/>
      <point x="204" y="55" type="qcurve" smooth="yes"/>
      <point x="307" y="55"/>
      <point x="307" y="180" type="qcurve" smooth="yes"/>
      <point x="307" y="589"/>
      <point x="304" y="695" type="qcurve" smooth="yes"/>
      <point x="304" y="711"/>
      <point x="329" y="711" type="qcurve" smooth="yes"/>
      <point x="349" y="711"/>
      <point x="392" y="694"/>
      <point x="392" y="677" type="qcurve" smooth="yes"/>
      <point x="390" y="588"/>
      <point x="390" y="177" type="qcurve" smooth="yes"/>
      <point x="390" y="-23"/>
    </contour>
  </outline>
</glyph>
<glyph name="K" format="2">
  <advance height="1000" width="630"/>
  <unicode hex="004B"/>
  <outline>
    <contour>
      <point x="161" y="-17" type="qcurve" smooth="yes"/>
      <point x="141" y="-17"/>
      <point x="98" y="0"/>
      <point x="98" y="17" type="qcurve" smooth="yes"/>
      <point x="100" y="112" type="line"/>
      <point x="100" y="589"/>
      <point x="97" y="695" type="qcurve" smooth="yes"/>
      <point x="97" y="711"/>
      <point x="122" y="711" type="qcurve" smooth="yes"/>
      <point x="142" y="711"/>
      <point x="184" y="694"/>
      <point x="184" y="677" type="qcurve" smooth="yes"/>
      <point x="182" y="588"/>
      <point x="182" y="424" type="qcurve"/>
      <point x="285" y="505"/>
      <point x="475" y="685"/>
      <point x="495" y="710"/>
      <point x="513" y="710" type="qcurve" smooth="yes"/>
      <point x="530" y="710"/>
      <point x="576" y="685"/>
      <point x="576" y="670" type="qcurve" smooth="yes"/>
      <point x="576" y="662"/>
      <point x="555" y="644"/>
      <point x="515" y="612"/>
      <point x="388" y="496"/>
      <point x="273" y="404" type="qcurve" smooth="yes"/>
      <point x="268" y="404"/>
      <point x="268" y="400" type="qcurve" smooth="yes"/>
      <point x="268" y="393"/>
      <point x="326" y="329" type="qcurve" smooth="yes"/>
      <point x="513" y="123"/>
      <point x="622" y="32" type="qcurve" smooth="yes"/>
      <point x="628" y="27"/>
      <point x="628" y="20" type="qcurve" smooth="yes"/>
      <point x="628" y="6"/>
      <point x="583" y="-15"/>
      <point x="559" y="-15" type="qcurve" smooth="yes"/>
      <point x="533" y="-15"/>
      <point x="524" y="-1" type="qcurve" smooth="yes"/>
      <point x="507" y="21"/>
      <point x="485" y="45" type="qcurve" smooth="yes"/>
      <point x="303" y="235"/>
      <point x="205" y="349" type="qcurve"/>
      <point x="182" y="330" type="line"/>
      <point x="182" y="111"/>
      <point x="185" y="-1" type="qcurve" smooth="yes"/>
      <point x="185" y="-17"/>
    </contour>
  </outline>
</glyph>
<glyph name="L" format="2">
  <advance width="547" height="547"/>
  <unicode hex="004C"/>
  <outline>
    <contour>
      <point x="143" y="-15" type="qcurve"/>
      <point x="119" y="-15"/>
      <point x="101" y="16" type="qcurve" smooth="yes"/>
      <point x="93" y="28"/>
      <point x="93" y="37" type="qcurve" smooth="yes"/>
      <point x="93" y="45"/>
      <point x="100" y="59"/>
      <point x="100" y="70" type="qcurve" smooth="yes"/>
      <point x="100" y="589"/>
      <point x="97" y="695" type="qcurve" smooth="yes"/>
      <point x="97" y="711"/>
      <point x="122" y="711" type="qcurve" smooth="yes"/>
      <point x="142" y="711"/>
      <point x="186" y="694"/>
      <point x="186" y="677" type="qcurve" smooth="yes"/>
      <point x="184" y="588"/>
      <point x="184" y="65" type="qcurve"/>
      <point x="256" y="70"/>
      <point x="402" y="70" type="qcurve" smooth="yes"/>
      <point x="482" y="70"/>
      <point x="495" y="71" type="qcurve" smooth="yes"/>
      <point x="513" y="71"/>
      <point x="534" y="28"/>
      <point x="534" y="11" type="qcurve" smooth="yes"/>
      <point x="534" y="-11"/>
      <point x="516" y="-11" type="qcurve" smooth="yes"/>
      <point x="477" y="-5"/>
      <point x="393" y="-5" type="qcurve" smooth="yes"/>
      <point x="181" y="-5"/>
    </contour>
  </outline>
</glyph>
<glyph name="U" format="2">
  <advance width="710" height="710"/>
  <unicode hex="0055"/>
  <outline>
    <contour>
      <point x="342" y="-24" type="qcurve" smooth="yes"/>
      <point x="422" y="-24"/>
      <point x="543" y="39"/>
      <point x="611" y="154"/>
      <point x="611" y="230" type="qcurve" smooth="yes"/>
      <point x="611" y="594"/>
      <point x="613" y="682" type="qcurve" smooth="yes"/>
      <point x="613" y="699"/>
      <point x="573" y="715"/>
      <point x="551" y="715" type="qcurve" smooth="yes"/>
      <point x="524" y="715"/>
      <point x="524" y="697" type="qcurve" smooth="yes"/>
      <point x="527" y="595"/>
      <point x="527" y="242" type="qcurve" smooth="yes"/>
      <point x="527" y="187"/>
      <point x="480" y="100"/>
      <point x="396" y="51"/>
      <point x="342" y="51" type="qcurve" smooth="yes"/>
      <point x="265" y="51"/>
      <point x="184" y="122"/>
      <point x="184" y="210" type="qcurve" smooth="yes"/>
      <point x="184" y="584"/>
      <point x="186" y="680" type="qcurve" smooth="yes"/>
      <point x="186" y="697"/>
      <point x="146" y="713"/>
      <point x="124" y="713" type="qcurve" smooth="yes"/>
      <point x="97" y="713"/>
      <point x="97" y="695" type="qcurve" smooth="yes"/>
      <point x="100" y="586"/>
      <point x="100" y="198" type="qcurve" smooth="yes"/>
      <point x="100" y="-24"/>
    </contour>
  </outline>
</glyph>
<glyph name="bracketleft" format="2">
  <advance height="1000" width="350"/>
  <unicode hex="005B"/>
  <outline>
    <contour>
      <point x="191" y="-157" type="qcurve" smooth="yes"/>
      <point x="211" y="-153"/>
      <point x="226" y="-153" type="qcurve" smooth="yes"/>
      <point x="313" y="-153" type="line" smooth="yes"/>
      <point x="333" y="-153"/>
      <point x="333" y="-132" type="qcurve" smooth="yes"/>
      <point x="333" y="-116"/>
      <point x="314" y="-86"/>
      <point x="303" y="-86" type="qcurve" smooth="yes"/>
      <point x="225" y="-89" type="line"/>
      <point x="225" y="705" type="line"/>
      <point x="315" y="705" type="line" smooth="yes"/>
      <point x="336" y="705"/>
      <point x="336" y="726" type="qcurve" smooth="yes"/>
      <point x="336" y="743"/>
      <point x="317" y="772"/>
      <point x="300" y="772" type="qcurve" smooth="yes"/>
      <point x="196" y="770" type="line" smooth="yes"/>
      <point x="168" y="770"/>
      <point x="147" y="754"/>
      <point x="147" y="737" type="qcurve" smooth="yes"/>
      <point x="152" y="678" type="line"/>
      <point x="152" y="-51"/>
      <point x="149" y="-114" type="qcurve" smooth="yes"/>
      <point x="149" y="-127"/>
      <point x="174" y="-157"/>
    </contour>
  </outline>
</glyph>
<glyph name="backslash" format="2">
  <advance width="350" height="350"/>
  <unicode hex="005C"/>
  <outline>
    <contour>
      <point x="297" y="-48" type="qcurve" smooth="yes"/>
      <point x="312" y="-48"/>
      <point x="342" y="-22"/>
      <point x="342" y="-8" type="qcurve" smooth="yes"/>
      <point x="342" y="5"/>
      <point x="321" y="44"/>
      <point x="97" y="662" type="qcurve" smooth="yes"/>
      <point x="82" y="705"/>
      <point x="69" y="757"/>
      <point x="55" y="757" type="qcurve" smooth="yes"/>
      <point x="44" y="757"/>
      <point x="20" y="740"/>
      <point x="3" y="719"/>
      <point x="3" y="705"/>
      <point x="12" y="685" type="qcurve" smooth="yes"/>
      <point x="25" y="658"/>
      <point x="248" y="45" type="qcurve" smooth="yes"/>
      <point x="265" y="-1"/>
      <point x="273" y="-28" type="qcurve" smooth="yes"/>
      <point x="280" y="-48"/>
    </contour>
  </outline>
</glyph>
<glyph name="bracketright" format="2">
  <advance width="350" height="350"/>
  <unicode hex="005D"/>
  <outline>
    <contour>
      <point x="50" y="-156" type="qcurve" smooth="yes"/>
      <point x="33" y="-156"/>
      <point x="14" y="-127"/>
      <point x="14" y="-110" type="qcurve" smooth="yes"/>
      <point x="14" y="-89"/>
      <point x="35" y="-89" type="qcurve" smooth="yes"/>
      <point x="125" y="-89" type="line"/>
      <point x="125" y="705" type="line"/>
      <point x="48" y="702" type="line" smooth="yes"/>
      <point x="36" y="702"/>
      <point x="17" y="732"/>
      <point x="17" y="749" type="qcurve" smooth="yes"/>
      <point x="17" y="769"/>
      <point x="37" y="769" type="qcurve" smooth="yes"/>
      <point x="124" y="769" type="line" smooth="yes"/>
      <point x="139" y="769"/>
      <point x="159" y="773" type="qcurve" smooth="yes"/>
      <point x="177" y="773"/>
      <point x="201" y="743"/>
      <point x="201" y="730" type="qcurve" smooth="yes"/>
      <point x="198" y="667"/>
      <point x="198" y="-62" type="qcurve"/>
      <point x="203" y="-121" type="line" smooth="yes"/>
      <point x="203" y="-154"/>
      <point x="154" y="-154" type="qcurve" smooth="yes"/>
      <point x="56" y="-155"/>
    </contour>
  </outline>
</glyph>
<glyph name="asciicircum" format="2">
  <advance height="1000" width="600"/>
  <unicode hex="005E"/>
  <outline>
    <contour>
      <point x="125" y="266" type="qcurve" smooth="yes"/>
      <point x="109" y="266"/>
      <point x="71" y="283"/>
      <point x="71" y="297" type="qcurve" smooth="yes"/>
      <point x="71" y="301"/>
      <point x="77" y="313" type="qcurve" smooth="yes"/>
      <point x="91" y="336"/>
      <point x="255" y="676" type="qcurve" smooth="yes"/>
      <point x="260" y="688"/>
      <point x="262" y="700" type="qcurve" smooth="yes"/>
      <point x="266" y="723"/>
      <point x="312" y="723" type="qcurve" smooth="yes"/>
      <point x="326" y="723"/>
      <point x="338" y="700"/>
      <point x="423" y="525" type="qcurve" smooth="yes"/>
      <point x="515" y="334"/>
      <point x="536" y="294"/>
      <point x="536" y="291" type="qcurve" smooth="yes"/>
      <point x="536" y="268"/>
      <point x="484" y="268" type="qcurve" smooth="yes"/>
      <point x="459" y="268"/>
      <point x="453" y="284" type="qcurve" smooth="yes"/>
      <point x="441" y="326"/>
      <point x="433" y="343" type="qcurve" smooth="yes"/>
      <point x="303" y="616" type="line"/>
      <point x="173" y="343" type="line" smooth="yes"/>
      <point x="160" y="313"/>
      <point x="149" y="278" type="qcurve" smooth="yes"/>
      <point x="144" y="266"/>
    </contour>
  </outline>
</glyph>
<glyph name="underscore" format="2">
  <advance height="1000" width="500"/>
  <unicode hex="005F"/>
  <outline>
    <contour>
      <point x="495" y="-168" type="qcurve" smooth="yes"/>
      <point x="5" y="-168" type="line" smooth="yes"/>
      <point x="-20" y="-168"/>
      <point x="-20" y="-131" type="qcurve" smooth="yes"/>
      <point x="-20" y="-95"/>
      <point x="5" y="-95" type="qcurve" smooth="yes"/>
      <point x="495" y="-95" type="line" smooth="yes"/>
      <point x="520" y="-95"/>
      <point x="520" y="-131" type="qcurve" smooth="yes"/>
      <point x="520" y="-168"/>
    </contour>
  </outline>
</glyph>
<glyph name="grave" format="2">
  <advance height="1000" width="500"/>
  <unicode hex="0060"/>
  <outline>
    <contour>
      <point x="340" y="568" type="qcurve" smooth="yes"/>
      <point x="333" y="568"/>
      <point x="292" y="592"/>
      <point x="197" y="625"/>
      <point x="147" y="643" type="qcurve" smooth="yes"/>
      <point x="136" y="648"/>
      <point x="136" y="661" type="qcurve" smooth="yes"/>
      <point x="136" y="671"/>
      <point x="160" y="699"/>
      <point x="190" y="719"/>
      <point x="199" y="719" type="qcurve" smooth="yes"/>
      <point x="206" y="719"/>
      <point x="210" y="717" type="qcurve" smooth="yes"/>
      <point x="363" y="616"/>
      <point x="363" y="591" type="qcurve" smooth="yes"/>
      <point x="363" y="568"/>
    </contour>
  </outline>
</glyph>
<glyph name="k" format="2">
  <advance width="510" height="510"/>
  <unicode hex="006B"/>
  <outline>
    <contour>
      <point x="430" y="-20"/>
      <point x="308" y="115" type="qcurve" smooth="yes"/>
      <point x="227" y="205"/>
      <point x="181" y="250" type="qcurve"/>
      <point x="164" y="240" type="line"/>
      <point x="164" y="106" type="line"/>
      <point x="169" y="0" type="line" smooth="yes"/>
      <point x="169" y="-16"/>
      <point x="145" y="-16" type="qcurve" smooth="yes"/>
      <point x="126" y="-16"/>
      <point x="84" y="1"/>
      <point x="84" y="18" type="qcurve" smooth="yes"/>
      <point x="86" y="106" type="line"/>
      <point x="86" y="590"/>
      <point x="83" y="697" type="qcurve" smooth="yes"/>
      <point x="83" y="713"/>
      <point x="107" y="713" type="qcurve" smooth="yes"/>
      <point x="126" y="713"/>
      <point x="168" y="696"/>
      <point x="168" y="679" type="qcurve" smooth="yes"/>
      <point x="164" y="590" type="line"/>
      <point x="164" y="325" type="line"/>
      <point x="343" y="449" type="line" smooth="yes"/>
      <point x="358" y="460"/>
      <point x="382" y="483" type="qcurve" smooth="yes"/>
      <point x="387" y="490"/>
      <point x="402" y="490" type="qcurve" smooth="yes"/>
      <point x="415" y="490"/>
      <point x="430" y="485" type="qcurve" smooth="yes"/>
      <point x="468" y="471"/>
      <point x="468" y="452" type="qcurve" smooth="yes"/>
      <point x="468" y="443"/>
      <point x="399" y="403"/>
      <point x="240" y="292" type="qcurve"/>
      <point x="264" y="269"/>
      <point x="341" y="187"/>
      <point x="421" y="105"/>
      <point x="452" y="73" type="qcurve" smooth="yes"/>
      <point x="481" y="47"/>
      <point x="507" y="36" type="qcurve" smooth="yes"/>
      <point x="516" y="32"/>
      <point x="516" y="22" type="qcurve" smooth="yes"/>
      <point x="516" y="13"/>
      <point x="504" y="3" type="qcurve" smooth="yes"/>
      <point x="478" y="-20"/>
    </contour>
  </outline>
</glyph>
<glyph name="l" format="2">
  <advance width="263" height="263"/>
  <unicode hex="006C"/>
  <outline>
    <contour>
      <point x="176" y="-27" type="qcurve" smooth="yes"/>
      <point x="93" y="-27"/>
      <point x="91" y="75" type="qcurve" smooth="yes"/>
      <point x="91" y="590"/>
      <point x="88" y="697" type="qcurve" smooth="yes"/>
      <point x="88" y="713"/>
      <point x="113" y="713" type="qcurve" smooth="yes"/>
      <point x="132" y="713"/>
      <point x="174" y="696"/>
      <point x="174" y="679" type="qcurve" smooth="yes"/>
      <point x="172" y="590"/>
      <point x="172" y="78" type="qcurve" smooth="yes"/>
      <point x="172" y="53"/>
      <point x="178" y="46"/>
      <point x="184" y="46" type="qcurve" smooth="yes"/>
      <point x="203" y="47"/>
      <point x="228" y="72" type="qcurve" smooth="yes"/>
      <point x="242" y="85"/>
      <point x="254" y="85" type="qcurve" smooth="yes"/>
      <point x="269" y="85"/>
      <point x="269" y="63" type="qcurve" smooth="yes"/>
      <point x="269" y="45"/>
      <point x="241" y="9" type="qcurve" smooth="yes"/>
      <point x="209" y="-27"/>
    </contour>
  </outline>
</glyph>
<glyph name="q" format="2">
  <advance height="1000" width="576"/>
  <unicode hex="0071"/>
  <outline>
    <contour>
      <point x="469" y="-182" type="qcurve" smooth="yes"/>
      <point x="493" y="-182"/>
      <point x="493" y="-166" type="qcurve" smooth="yes"/>
      <point x="490" y="-60"/>
      <point x="490" y="368" type="qcurve"/>
      <point x="492" y="457" type="line" smooth="yes"/>
      <point x="492" y="474"/>
      <point x="451" y="491"/>
      <point x="432" y="491" type="qcurve" smooth="yes"/>
      <point x="408" y="491"/>
      <point x="408" y="475" type="qcurve" smooth="yes"/>
      <point x="410" y="456" type="line"/>
      <point x="406" y="462"/>
      <point x="343" y="492"/>
      <point x="304" y="492" type="qcurve" smooth="yes"/>
      <point x="204" y="492"/>
      <point x="49" y="306"/>
      <point x="49" y="186" type="qcurve" smooth="yes"/>
      <point x="49" y="86"/>
      <point x="143" y="-24"/>
      <point x="212" y="-24" type="qcurve" smooth="yes"/>
      <point x="351" y="-24"/>
      <point x="413" y="89" type="qcurve"/>
      <point x="412" y="-59"/>
      <point x="408" y="-148" type="qcurve" smooth="yes"/>
      <point x="408" y="-165"/>
      <point x="450" y="-182"/>
    </contour>
    <contour>
      <point x="213" y="48" type="qcurve" smooth="yes"/>
      <point x="179" y="48"/>
      <point x="129" y="118"/>
      <point x="129" y="274"/>
      <point x="182" y="349" type="qcurve" smooth="yes"/>
      <point x="206" y="383"/>
      <point x="270" y="422"/>
      <point x="300" y="422" type="qcurve" smooth="yes"/>
      <point x="361" y="422"/>
      <point x="392" y="378" type="qcurve" smooth="yes"/>
      <point x="398" y="371"/>
      <point x="407" y="371" type="qcurve" smooth="yes"/>
      <point x="411" y="371"/>
      <point x="411" y="369" type="qcurve" smooth="yes"/>
      <point x="410" y="367" type="line"/>
      <point x="410" y="276" type="line" smooth="yes"/>
      <point x="410" y="186"/>
      <point x="282" y="48"/>
    </contour>
  </outline>
</glyph>
<glyph name="r" format="2">
  <advance height="1000" width="430"/>
  <unicode hex="0072"/>
  <outline>
    <contour>
      <point x="147" y="-16" type="qcurve" smooth="yes"/>
      <point x="171" y="-16"/>
      <point x="171" y="0" type="qcurve" smooth="yes"/>
      <point x="166" y="106" type="line"/>
      <point x="166" y="230"/>
      <point x="170" y="265" type="qcurve" smooth="yes"/>
      <point x="180" y="354"/>
      <point x="230" y="390" type="qcurve" smooth="yes"/>
      <point x="264" y="415"/>
      <point x="304" y="415" type="qcurve" smooth="yes"/>
      <point x="318" y="415"/>
      <point x="358" y="398"/>
      <point x="367" y="381" type="qcurve" smooth="yes"/>
      <point x="375" y="368"/>
      <point x="389" y="368" type="qcurve" smooth="yes"/>
      <point x="402" y="368"/>
      <point x="428" y="408"/>
      <point x="428" y="424" type="qcurve" smooth="yes"/>
      <point x="428" y="441"/>
      <point x="392" y="471"/>
      <point x="338" y="492"/>
      <point x="296" y="492" type="qcurve" smooth="yes"/>
      <point x="253" y="492"/>
      <point x="215" y="467" type="qcurve" smooth="yes"/>
      <point x="180" y="444"/>
      <point x="169" y="428" type="qcurve"/>
      <point x="170" y="436"/>
      <point x="170" y="458" type="qcurve" smooth="yes"/>
      <point x="170" y="473"/>
      <point x="128" y="490"/>
      <point x="109" y="490" type="qcurve" smooth="yes"/>
      <point x="85" y="490"/>
      <point x="85" y="474" type="qcurve" smooth="yes"/>
      <point x="88" y="367"/>
      <point x="88" y="106" type="qcurve"/>
      <point x="86" y="18" type="line" smooth="yes"/>
      <point x="86" y="1"/>
      <point x="128" y="-16"/>
    </contour>
  </outline>
</glyph>
<glyph name="w" format="2">
  <advance height="1000" width="730"/>
  <unicode hex="0077"/>
  <outline>
    <contour>
      <point x="515" y="-24" type="qcurve" smooth="yes"/>
      <point x="544" y="-24"/>
      <point x="552" y="5" type="qcurve" smooth="yes"/>
      <point x="557" y="20"/>
      <point x="567" y="55"/>
      <point x="683" y="385" type="qcurve" smooth="yes"/>
      <point x="700" y="430"/>
      <point x="711" y="455"/>
      <point x="711" y="459" type="qcurve" smooth="yes"/>
      <point x="711" y="474"/>
      <point x="672" y="491"/>
      <point x="653" y="491" type="qcurve" smooth="yes"/>
      <point x="630" y="491"/>
      <point x="626" y="475" type="qcurve" smooth="yes"/>
      <point x="614" y="422"/>
      <point x="609" y="408" type="qcurve" smooth="yes"/>
      <point x="508" y="104" type="line"/>
      <point x="416" y="414"/>
      <point x="414" y="435"/>
      <point x="410" y="458"/>
      <point x="365" y="474"/>
      <point x="342" y="474" type="qcurve" smooth="yes"/>
      <point x="315" y="474"/>
      <point x="312" y="452" type="qcurve" smooth="yes"/>
      <point x="310" y="441"/>
      <point x="307" y="409"/>
      <point x="201" y="104" type="qcurve"/>
      <point x="117" y="421"/>
      <point x="113" y="448"/>
      <point x="111" y="458" type="qcurve" smooth="yes"/>
      <point x="109" y="484"/>
      <point x="60" y="484" type="qcurve" smooth="yes"/>
      <point x="19" y="484"/>
      <point x="19" y="462" type="qcurve" smooth="yes"/>
      <point x="19" y="459"/>
      <point x="42" y="397" type="qcurve"/>
      <point x="152" y="17" type="line" smooth="yes"/>
      <point x="155" y="6"/>
      <point x="163" y="-2" type="qcurve" smooth="yes"/>
      <point x="182" y="-24"/>
      <point x="238" y="-24"/>
      <point x="252" y="19"/>
      <point x="258" y="44"/>
      <point x="361" y="347" type="qcurve"/>
      <point x="452" y="29"/>
      <point x="453" y="20" type="qcurve" smooth="yes"/>
      <point x="457" y="-5"/>
      <point x="486" y="-17" type="qcurve" smooth="yes"/>
      <point x="501" y="-24"/>
    </contour>
  </outline>
</glyph>
<glyph name="braceleft" format="2">
  <advance width="350" height="350"/>
  <unicode hex="007B"/>
  <outline>
    <contour>
      <point x="318" y="-165" type="qcurve" smooth="yes"/>
      <point x="338" y="-165"/>
      <point x="338" y="-148" type="qcurve" smooth="yes"/>
      <point x="338" y="-135"/>
      <point x="323" y="-126" type="qcurve" smooth="yes"/>
      <point x="282" y="-103"/>
      <point x="246" y="-45"/>
      <point x="246" y="-4" type="qcurve" smooth="yes"/>
      <point x="246" y="11"/>
      <point x="261" y="114"/>
      <point x="261" y="193" type="qcurve" smooth="yes"/>
      <point x="261" y="234"/>
      <point x="223" y="306"/>
      <point x="198" y="314" type="qcurve"/>
      <point x="261" y="348"/>
      <point x="261" y="469" type="qcurve"/>
      <point x="255" y="627" type="line" smooth="yes"/>
      <point x="255" y="706"/>
      <point x="324" y="744" type="qcurve" smooth="yes"/>
      <point x="337" y="752"/>
      <point x="337" y="762" type="qcurve" smooth="yes"/>
      <point x="337" y="785"/>
      <point x="318" y="785" type="qcurve" smooth="yes"/>
      <point x="311" y="785"/>
      <point x="302" y="782" type="qcurve" smooth="yes"/>
      <point x="232" y="749"/>
      <point x="178" y="673"/>
      <point x="178" y="629" type="qcurve" smooth="yes"/>
      <point x="184" y="472" type="line"/>
      <point x="184" y="352"/>
      <point x="103" y="352" type="qcurve" smooth="yes"/>
      <point x="92" y="352" type="line" smooth="yes"/>
      <point x="70" y="352"/>
      <point x="70" y="330" type="qcurve" smooth="yes"/>
      <point x="70" y="312"/>
      <point x="90" y="283"/>
      <point x="106" y="282" type="qcurve" smooth="yes"/>
      <point x="164" y="278"/>
      <point x="178" y="231" type="qcurve" smooth="yes"/>
      <point x="185" y="210"/>
      <point x="185" y="164" type="qcurve" smooth="yes"/>
      <point x="185" y="117"/>
      <point x="170" y="28"/>
      <point x="170" y="-4" type="qcurve" smooth="yes"/>
      <point x="170" y="-126"/>
      <point x="302" y="-163" type="qcurve" smooth="yes"/>
      <point x="311" y="-165"/>
    </contour>
  </outline>
</glyph>
<glyph name="bar" format="2">
  <advance width="350" height="350"/>
  <unicode hex="007C"/>
  <outline>
    <contour>
      <point x="134" y="-23" type="line"/>
      <point x="215" y="-23" type="line"/>
      <point x="215" y="724" type="line"/>
      <point x="134" y="724" type="line"/>
    </contour>
  </outline>
</glyph>
<glyph name="exclamdown" format="2">
  <advance height="1000" width="350"/>
  <unicode hex="00A1"/>
  <outline>
    <contour>
      <point x="193" y="-216" type="qcurve" smooth="yes"/>
      <point x="221" y="-216"/>
      <point x="221" y="-192" type="qcurve" smooth="yes"/>
      <point x="217" y="-166"/>
      <point x="210" y="275" type="qcurve" smooth="yes"/>
      <point x="210" y="300"/>
      <point x="212" y="314" type="qcurve" smooth="yes"/>
      <point x="212" y="329"/>
      <point x="178" y="343"/>
      <point x="163" y="343" type="qcurve" smooth="yes"/>
      <point x="142" y="343"/>
      <point x="142" y="329" type="qcurve" smooth="yes"/>
      <point x="142" y="279"/>
      <point x="130" y="-107" type="qcurve" smooth="yes"/>
      <point x="128" y="-142"/>
      <point x="124" y="-178" type="qcurve" smooth="yes"/>
      <point x="124" y="-196"/>
      <point x="170" y="-216"/>
    </contour>
    <contour>
      <point x="235" y="452" type="qcurve" smooth="yes"/>
      <point x="235" y="475"/>
      <point x="200" y="517"/>
      <point x="146" y="517"/>
      <point x="118" y="487"/>
      <point x="118" y="464" type="qcurve" smooth="yes"/>
      <point x="118" y="440"/>
      <point x="154" y="395"/>
      <point x="206" y="395"/>
      <point x="235" y="428"/>
    </contour>
  </outline>
</glyph>
<glyph name="cent" format="2">
  <advance width="556" height="556"/>
  <unicode hex="00A2"/>
  <outline>
    <contour>
      <point x="203" y="-90" type="qcurve" smooth="yes"/>
      <point x="218" y="-90"/>
      <point x="223" y="-78" type="qcurve" smooth="yes"/>
      <point x="241" y="-21" type="line"/>
      <point x="255" y="-23"/>
      <point x="271" y="-23" type="qcurve" smooth="yes"/>
      <point x="387" y="-23"/>
      <point x="460" y="37" type="qcurve" smooth="yes"/>
      <point x="491" y="63"/>
      <point x="521" y="110"/>
      <point x="521" y="124" type="qcurve" smooth="yes"/>
      <point x="521" y="141"/>
      <point x="506" y="141" type="qcurve" smooth="yes"/>
      <point x="493" y="141"/>
      <point x="478" y="124" type="qcurve" smooth="yes"/>
      <point x="408" y="48"/>
      <point x="267" y="47" type="qcurve"/>
      <point x="277" y="71"/>
      <point x="395" y="389"/>
      <point x="405" y="413" type="qcurve"/>
      <point x="424" y="408"/>
      <point x="448" y="359" type="qcurve" smooth="yes"/>
      <point x="453" y="351"/>
      <point x="465" y="351" type="qcurve" smooth="yes"/>
      <point x="476" y="351"/>
      <point x="509" y="386"/>
      <point x="509" y="416"/>
      <point x="470" y="464"/>
      <point x="430" y="479" type="qcurve"/>
      <point x="449" y="526"/>
      <point x="449" y="537" type="qcurve" smooth="yes"/>
      <point x="449" y="550"/>
      <point x="413" y="582"/>
      <point x="401" y="582" type="qcurve" smooth="yes"/>
      <point x="386" y="582"/>
      <point x="381" y="570" type="qcurve" smooth="yes"/>
      <point x="371" y="532"/>
      <point x="358" y="495" type="qcurve"/>
      <point x="346" y="496"/>
      <point x="328" y="496" type="qcurve" smooth="yes"/>
      <point x="281" y="496"/>
      <point x="182" y="448"/>
      <point x="101" y="365"/>
      <point x="51" y="256"/>
      <point x="51" y="190" type="qcurve" smooth="yes"/>
      <point x="51" y="122"/>
      <point x="123" y="21"/>
      <point x="170" y="0" type="qcurve"/>
      <point x="166" y="-10" type="line" smooth="yes"/>
      <point x="161" y="-26"/>
      <point x="154" y="-42"/>
      <point x="154" y="-45" type="qcurve" smooth="yes"/>
      <point x="154" y="-63"/>
      <point x="190" y="-90"/>
    </contour>
    <contour>
      <point x="198" y="72" type="line"/>
      <point x="131" y="113"/>
      <point x="131" y="287"/>
      <point x="268" y="425"/>
      <point x="331" y="425" type="qcurve"/>
    </contour>
  </outline>
</glyph>
<glyph name="sterling" format="2">
  <advance height="1000" width="713"/>
  <unicode hex="00A3"/>
  <outline>
    <contour>
      <point x="533" y="-23" type="qcurve" smooth="yes"/>
      <point x="492" y="-23"/>
      <point x="390" y="-7"/>
      <point x="280" y="9"/>
      <point x="235" y="9" type="qcurve" smooth="yes"/>
      <point x="191" y="9"/>
      <point x="140" y="-7"/>
      <point x="93" y="-23"/>
      <point x="51" y="-23"/>
      <point x="31" y="-18"/>
      <point x="31" y="-6" type="qcurve" smooth="yes"/>
      <point x="31" y="1"/>
      <point x="34" y="13" type="qcurve" smooth="yes"/>
      <point x="42" y="54"/>
      <point x="67" y="54" type="qcurve" smooth="yes"/>
      <point x="76" y="54" type="line" smooth="yes"/>
      <point x="181" y="54"/>
      <point x="181" y="260" type="qcurve" smooth="yes"/>
      <point x="181" y="274"/>
      <point x="177" y="310" type="qcurve"/>
      <point x="81" y="304" type="line" smooth="yes"/>
      <point x="64" y="304"/>
      <point x="43" y="342"/>
      <point x="43" y="359" type="qcurve" smooth="yes"/>
      <point x="43" y="379"/>
      <point x="61" y="379" type="qcurve" smooth="yes"/>
      <point x="171" y="378" type="line"/>
      <point x="164" y="470"/>
      <point x="164" y="478" type="qcurve" smooth="yes"/>
      <point x="164" y="550"/>
      <point x="216" y="659"/>
      <point x="309" y="720"/>
      <point x="371" y="720" type="qcurve" smooth="yes"/>
      <point x="431" y="720"/>
      <point x="478" y="706" type="qcurve" smooth="yes"/>
      <point x="558" y="682"/>
      <point x="600" y="644" type="qcurve" smooth="yes"/>
      <point x="608" y="638"/>
      <point x="608" y="610"/>
      <point x="574" y="578"/>
      <point x="548" y="578"/>
      <point x="541" y="585" type="qcurve" smooth="yes"/>
      <point x="475" y="647"/>
      <point x="379" y="647" type="qcurve" smooth="yes"/>
      <point x="284" y="647"/>
      <point x="258" y="556" type="qcurve" smooth="yes"/>
      <point x="246" y="517"/>
      <point x="246" y="487" type="qcurve" smooth="yes"/>
      <point x="246" y="455"/>
      <point x="252" y="380" type="qcurve"/>
      <point x="488" y="388"/>
      <point x="522" y="391" type="qcurve" smooth="yes"/>
      <point x="540" y="391"/>
      <point x="560" y="352"/>
      <point x="560" y="337" type="qcurve" smooth="yes"/>
      <point x="560" y="316"/>
      <point x="543" y="316" type="qcurve" smooth="yes"/>
      <point x="530" y="317"/>
      <point x="502" y="317" type="qcurve" smooth="yes"/>
      <point x="440" y="317"/>
      <point x="258" y="311" type="qcurve"/>
      <point x="260" y="289"/>
      <point x="260" y="267" type="qcurve" smooth="yes"/>
      <point x="260" y="150"/>
      <point x="226" y="81" type="qcurve"/>
      <point x="257" y="81"/>
      <point x="505" y="46"/>
      <point x="527" y="46" type="qcurve" smooth="yes"/>
      <point x="591" y="46"/>
      <point x="630" y="67" type="qcurve" smooth="yes"/>
      <point x="644" y="75"/>
      <point x="659" y="75" type="qcurve" smooth="yes"/>
      <point x="678" y="75"/>
      <point x="678" y="58" type="qcurve" smooth="yes"/>
      <point x="678" y="44"/>
      <point x="639" y="7"/>
      <point x="575" y="-23"/>
    </contour>
  </outline>
</glyph>
<glyph name="currency" format="2">
  <advance width="530" height="530"/>
  <unicode hex="00A4"/>
  <outline>
    <contour>
      <point x="274" y="219" type="qcurve" smooth="yes"/>
      <point x="320" y="219"/>
      <point x="385" y="284"/>
      <point x="385" y="332" type="qcurve" smooth="yes"/>
      <point x="385" y="379"/>
      <point x="321" y="443"/>
      <point x="274" y="443" type="qcurve" smooth="yes"/>
      <point x="226" y="443"/>
      <point x="161" y="378"/>
      <point x="161" y="332" type="qcurve" smooth="yes"/>
      <point x="161" y="284"/>
      <point x="226" y="219"/>
    </contour>
    <contour>
      <point x="448" y="116" type="qcurve" smooth="yes"/>
      <point x="435" y="116"/>
      <point x="427" y="123" type="qcurve" smooth="yes"/>
      <point x="406" y="153"/>
      <point x="378" y="178" type="qcurve"/>
      <point x="335" y="146"/>
      <point x="274" y="146" type="qcurve" smooth="yes"/>
      <point x="212" y="146"/>
      <point x="163" y="182" type="qcurve"/>
      <point x="129" y="149"/>
      <point x="110" y="123" type="qcurve" smooth="yes"/>
      <point x="102" y="116"/>
      <point x="90" y="116" type="qcurve" smooth="yes"/>
      <point x="77" y="116"/>
      <point x="38" y="148"/>
      <point x="38" y="161" type="qcurve" smooth="yes"/>
      <point x="38" y="172"/>
      <point x="45" y="179" type="qcurve" smooth="yes"/>
      <point x="90" y="215"/>
      <point x="113" y="239" type="qcurve"/>
      <point x="88" y="277"/>
      <point x="88" y="331" type="qcurve" smooth="yes"/>
      <point x="88" y="384"/>
      <point x="111" y="419" type="qcurve"/>
      <point x="83" y="449"/>
      <point x="50" y="473" type="qcurve" smooth="yes"/>
      <point x="43" y="479"/>
      <point x="43" y="505"/>
      <point x="82" y="536"/>
      <point x="95" y="536" type="qcurve" smooth="yes"/>
      <point x="109" y="536"/>
      <point x="118" y="525" type="qcurve" smooth="yes"/>
      <point x="137" y="499"/>
      <point x="160" y="478" type="qcurve"/>
      <point x="209" y="516"/>
      <point x="335" y="516"/>
      <point x="380" y="481" type="qcurve"/>
      <point x="393" y="493"/>
      <point x="423" y="529" type="qcurve" smooth="yes"/>
      <point x="430" y="536"/>
      <point x="443" y="536" type="qcurve" smooth="yes"/>
      <point x="455" y="536"/>
      <point x="494" y="506"/>
      <point x="494" y="493" type="qcurve" smooth="yes"/>
      <point x="494" y="479"/>
      <point x="461" y="452"/>
      <point x="432" y="425" type="qcurve"/>
      <point x="458" y="384"/>
      <point x="458" y="330" type="qcurve" smooth="yes"/>
      <point x="458" y="275"/>
      <point x="430" y="234" type="qcurve"/>
      <point x="443" y="221"/>
      <point x="483" y="188"/>
      <point x="499" y="174"/>
      <point x="499" y="148"/>
      <point x="460" y="116"/>
    </contour>
  </outline>
</glyph>
<glyph name="brokenbar" format="2">
  <advance width="350" height="350"/>
  <unicode hex="00A6"/>
  <outline>
    <contour>
      <point x="215" y="-22" type="line"/>
      <point x="134" y="-22" type="line"/>
      <point x="134" y="273" type="line"/>
      <point x="215" y="273" type="line"/>
    </contour>
    <contour>
      <point x="215" y="428" type="line"/>
      <point x="134" y="428" type="line"/>
      <point x="134" y="723" type="line"/>
      <point x="215" y="723" type="line"/>
    </contour>
  </outline>
</glyph>
<glyph name="section" format="2">
  <advance width="675" height="675"/>
  <unicode hex="00A7"/>
  <outline>
    <contour>
      <point x="457" y="272" type="qcurve"/>
      <point x="521" y="300"/>
      <point x="521" y="368" type="qcurve" smooth="yes"/>
      <point x="521" y="420"/>
      <point x="452" y="469"/>
      <point x="370" y="486" type="qcurve" smooth="yes"/>
      <point x="329" y="494" type="line"/>
      <point x="206" y="494"/>
      <point x="170" y="448" type="qcurve" smooth="yes"/>
      <point x="154" y="428"/>
      <point x="154" y="407" type="qcurve" smooth="yes"/>
      <point x="154" y="384"/>
      <point x="161" y="369" type="qcurve" smooth="yes"/>
      <point x="178" y="335"/>
      <point x="272" y="316" type="qcurve" smooth="yes"/>
      <point x="377" y="295" type="line" smooth="yes"/>
      <point x="422" y="287"/>
    </contour>
    <contour>
      <point x="324" y="-85" type="qcurve" smooth="yes"/>
      <point x="238" y="-85"/>
      <point x="111" y="-33"/>
      <point x="58" y="20" type="qcurve" smooth="yes"/>
      <point x="49" y="29"/>
      <point x="49" y="61"/>
      <point x="77" y="98"/>
      <point x="90" y="98" type="qcurve" smooth="yes"/>
      <point x="102" y="98"/>
      <point x="110" y="89" type="qcurve" smooth="yes"/>
      <point x="128" y="60"/>
      <point x="164" y="37" type="qcurve" smooth="yes"/>
      <point x="235" y="-10"/>
      <point x="322" y="-10" type="qcurve" smooth="yes"/>
      <point x="408" y="-10"/>
      <point x="501" y="52"/>
      <point x="501" y="102" type="qcurve" smooth="yes"/>
      <point x="501" y="151"/>
      <point x="428" y="205"/>
      <point x="350" y="222" type="qcurve" smooth="yes"/>
      <point x="244" y="244" type="line" smooth="yes"/>
      <point x="67" y="281"/>
      <point x="67" y="399" type="qcurve" smooth="yes"/>
      <point x="67" y="501"/>
      <point x="172" y="536" type="qcurve"/>
      <point x="87" y="570"/>
      <point x="87" y="660" type="qcurve" smooth="yes"/>
      <point x="87" y="702"/>
      <point x="147" y="775"/>
      <point x="256" y="820"/>
      <point x="328" y="820" type="qcurve" smooth="yes"/>
      <point x="466" y="820"/>
      <point x="553" y="752" type="qcurve" smooth="yes"/>
      <point x="565" y="741"/>
      <point x="565" y="705"/>
      <point x="543" y="670"/>
      <point x="532" y="670" type="qcurve" smooth="yes"/>
      <point x="520" y="670"/>
      <point x="510" y="681" type="qcurve" smooth="yes"/>
      <point x="449" y="746"/>
      <point x="336" y="746" type="qcurve" smooth="yes"/>
      <point x="249" y="746"/>
      <point x="174" y="693"/>
      <point x="174" y="663" type="qcurve" smooth="yes"/>
      <point x="174" y="642"/>
      <point x="181" y="628" type="qcurve" smooth="yes"/>
      <point x="197" y="599"/>
      <point x="292" y="580" type="qcurve" smooth="yes"/>
      <point x="397" y="559" type="line" smooth="yes"/>
      <point x="608" y="519"/>
      <point x="608" y="369" type="qcurve" smooth="yes"/>
      <point x="608" y="325"/>
      <point x="562" y="250"/>
      <point x="530" y="229" type="qcurve"/>
      <point x="588" y="183"/>
      <point x="588" y="102" type="qcurve" smooth="yes"/>
      <point x="588" y="47"/>
      <point x="555" y="4" type="qcurve" smooth="yes"/>
      <point x="485" y="-85"/>
    </contour>
  </outline>
</glyph>
<glyph name="guillemotleft" format="2">
  <advance height="1000" width="530"/>
  <unicode hex="00AB"/>
  <outline>
    <contour>
      <point x="471" y="-22" type="qcurve" smooth="yes"/>
      <point x="464" y="-22"/>
      <point x="446" y="0"/>
      <point x="421" y="32"/>
      <point x="382" y="74" type="qcurve" smooth="yes"/>
      <point x="299" y="162"/>
      <point x="241" y="204" type="qcurve" smooth="yes"/>
      <point x="225" y="216"/>
      <point x="225" y="251" type="qcurve" smooth="yes"/>
      <point x="225" y="265"/>
      <point x="231" y="271" type="qcurve" smooth="yes"/>
      <point x="378" y="389"/>
      <point x="457" y="490" type="qcurve" smooth="yes"/>
      <point x="462" y="496"/>
      <point x="469" y="496" type="qcurve" smooth="yes"/>
      <point x="482" y="496"/>
      <point x="504" y="459"/>
      <point x="504" y="443" type="qcurve" smooth="yes"/>
      <point x="504" y="426"/>
      <point x="491" y="415"/>
      <point x="367" y="295"/>
      <point x="307" y="241" type="qcurve"/>
      <point x="381" y="174"/>
      <point x="449" y="104" type="qcurve" smooth="yes"/>
      <point x="496" y="58" type="line" smooth="yes"/>
      <point x="504" y="50"/>
      <point x="504" y="34" type="qcurve" smooth="yes"/>
      <point x="504" y="19"/>
      <point x="485" y="-22"/>
    </contour>
    <contour>
      <point x="266" y="-22" type="qcurve" smooth="yes"/>
      <point x="259" y="-22"/>
      <point x="241" y="0"/>
      <point x="216" y="32"/>
      <point x="94" y="162"/>
      <point x="36" y="204" type="qcurve" smooth="yes"/>
      <point x="20" y="216"/>
      <point x="20" y="251" type="qcurve" smooth="yes"/>
      <point x="20" y="265"/>
      <point x="26" y="271" type="qcurve" smooth="yes"/>
      <point x="173" y="389"/>
      <point x="252" y="490" type="qcurve" smooth="yes"/>
      <point x="257" y="496"/>
      <point x="264" y="496" type="qcurve" smooth="yes"/>
      <point x="277" y="496"/>
      <point x="299" y="459"/>
      <point x="299" y="443" type="qcurve" smooth="yes"/>
      <point x="299" y="426"/>
      <point x="286" y="415"/>
      <point x="162" y="295"/>
      <point x="102" y="241" type="qcurve"/>
      <point x="176" y="174"/>
      <point x="244" y="104" type="qcurve" smooth="yes"/>
      <point x="291" y="58" type="line" smooth="yes"/>
      <point x="299" y="50"/>
      <point x="299" y="34" type="qcurve" smooth="yes"/>
      <point x="299" y="19"/>
      <point x="280" y="-22"/>
    </contour>
  </outline>
</glyph>
<glyph name="logicalnot" format="2">
  <advance width="590" height="590"/>
  <unicode hex="00AC"/>
  <outline>
    <contour>
      <point x="438" y="121" type="line" smooth="yes"/>
      <point x="438" y="107"/>
      <point x="462" y="94"/>
      <point x="490" y="94"/>
      <point x="514" y="107"/>
      <point x="514" y="121" type="qcurve" smooth="yes"/>
      <point x="514" y="322" type="line" smooth="yes"/>
      <point x="514" y="348"/>
      <point x="483" y="379"/>
      <point x="457" y="379" type="qcurve" smooth="yes"/>
      <point x="70" y="379" type="line" smooth="yes"/>
      <point x="56" y="379"/>
      <point x="43" y="355"/>
      <point x="43" y="327"/>
      <point x="56" y="303"/>
      <point x="70" y="303" type="qcurve" smooth="yes"/>
      <point x="438" y="303" type="line"/>
    </contour>
  </outline>
</glyph>
<glyph name="registered" format="2">
  <advance height="1000" width="780"/>
  <unicode hex="00AE"/>
  <outline>
    <contour>
      <point x="247" y="-13"/>
      <point x="535" y="-13"/>
      <point x="741" y="193"/>
      <point x="741" y="479"/>
      <point x="535" y="685"/>
      <point x="247" y="685"/>
      <point x="42" y="480"/>
      <point x="42" y="192"/>
    </contour>
    <contour>
      <point x="392" y="52" type="qcurve" smooth="yes"/>
      <point x="274" y="52"/>
      <point x="108" y="218"/>
      <point x="108" y="454"/>
      <point x="274" y="620"/>
      <point x="510" y="620"/>
      <point x="676" y="454"/>
      <point x="676" y="336" type="qcurve" smooth="yes"/>
      <point x="676" y="221"/>
      <point x="597" y="139" type="qcurve"/>
      <point x="592" y="152"/>
      <point x="568" y="160" type="qcurve" smooth="yes"/>
      <point x="537" y="171"/>
      <point x="459" y="265" type="qcurve" smooth="yes"/>
      <point x="406" y="325" type="line"/>
      <point x="485" y="330"/>
      <point x="531" y="390" type="qcurve" smooth="yes"/>
      <point x="554" y="419"/>
      <point x="554" y="458" type="qcurve" smooth="yes"/>
      <point x="554" y="525"/>
      <point x="492" y="556" type="qcurve" smooth="yes"/>
      <point x="459" y="573"/>
      <point x="349" y="573"/>
      <point x="287" y="559"/>
      <point x="254" y="554" type="qcurve" smooth="yes"/>
      <point x="238" y="552"/>
      <point x="238" y="536" type="qcurve" smooth="yes"/>
      <point x="238" y="523"/>
      <point x="251" y="496"/>
      <point x="258" y="492" type="qcurve"/>
      <point x="258" y="203"/>
      <point x="257" y="144" type="qcurve" smooth="yes"/>
      <point x="257" y="130"/>
      <point x="290" y="117"/>
      <point x="309" y="117" type="qcurve" smooth="yes"/>
      <point x="332" y="117"/>
      <point x="332" y="133" type="qcurve" smooth="yes"/>
      <point x="331" y="203"/>
      <point x="331" y="311" type="qcurve"/>
      <point x="338" y="308"/>
      <point x="449" y="170"/>
      <point x="488" y="137" type="qcurve" smooth="yes"/>
      <point x="518" y="114"/>
      <point x="556" y="114" type="qcurve" smooth="yes"/>
      <point x="564" y="114"/>
      <point x="571" y="115" type="qcurve"/>
      <point x="495" y="52"/>
    </contour>
    <contour>
      <point x="362" y="382" type="qcurve" smooth="yes"/>
      <point x="328" y="383"/>
      <point x="328" y="387"/>
      <point x="331" y="390" type="qcurve" smooth="yes"/>
      <point x="331" y="496" type="line"/>
      <point x="357" y="505"/>
      <point x="404" y="505" type="qcurve" smooth="yes"/>
      <point x="481" y="505"/>
      <point x="481" y="456" type="qcurve" smooth="yes"/>
      <point x="481" y="429"/>
      <point x="423" y="382"/>
    </contour>
  </outline>
</glyph>
<glyph name="macron" format="2">
  <advance height="1000" width="500"/>
  <unicode hex="00AF"/>
  <outline>
    <contour>
      <point x="365" y="611" type="line" smooth="yes"/>
      <point x="379" y="611"/>
      <point x="394" y="635"/>
      <point x="394" y="649" type="qcurve" smooth="yes"/>
      <point x="394" y="662"/>
      <point x="380" y="685"/>
      <point x="366" y="685" type="qcurve" smooth="yes"/>
      <point x="138" y="685" type="line" smooth="yes"/>
      <point x="123" y="685"/>
      <point x="108" y="661"/>
      <point x="108" y="648" type="qcurve" smooth="yes"/>
      <point x="108" y="634"/>
      <point x="123" y="611"/>
      <point x="137" y="611" type="qcurve" smooth="yes"/>
    </contour>
  </outline>
</glyph>
<glyph name="plusminus" format="2">
  <advance height="1000" width="600"/>
  <unicode hex="00B1"/>
  <outline>
    <contour>
      <point x="302" y="103" type="qcurve" smooth="yes"/>
      <point x="288" y="103"/>
      <point x="258" y="117"/>
      <point x="258" y="134" type="qcurve" smooth="yes"/>
      <point x="261" y="166"/>
      <point x="261" y="279" type="qcurve"/>
      <point x="83" y="279"/>
      <point x="64" y="276" type="qcurve" smooth="yes"/>
      <point x="49" y="276"/>
      <point x="34" y="308"/>
      <point x="34" y="323" type="qcurve" smooth="yes"/>
      <point x="34" y="355"/>
      <point x="59" y="355" type="qcurve" smooth="yes"/>
      <point x="89" y="353"/>
      <point x="261" y="353" type="qcurve"/>
      <point x="261" y="452"/>
      <point x="259" y="482" type="qcurve" smooth="yes"/>
      <point x="259" y="507"/>
      <point x="291" y="507" type="qcurve" smooth="yes"/>
      <point x="306" y="507"/>
      <point x="338" y="493"/>
      <point x="338" y="477" type="qcurve" smooth="yes"/>
      <point x="335" y="440"/>
      <point x="335" y="353" type="qcurve"/>
      <point x="467" y="353"/>
      <point x="530" y="356" type="qcurve" smooth="yes"/>
      <point x="547" y="356"/>
      <point x="564" y="324"/>
      <point x="564" y="308" type="qcurve" smooth="yes"/>
      <point x="564" y="277"/>
      <point x="540" y="277" type="qcurve" smooth="yes"/>
      <point x="459" y="279"/>
      <point x="335" y="279" type="qcurve"/>
      <point x="336" y="128" type="line" smooth="yes"/>
      <point x="336" y="103"/>
    </contour>
    <contour>
      <point x="64" y="2" type="qcurve" smooth="yes"/>
      <point x="49" y="2"/>
      <point x="34" y="34"/>
      <point x="34" y="49" type="qcurve" smooth="yes"/>
      <point x="34" y="81"/>
      <point x="59" y="81" type="qcurve" smooth="yes"/>
      <point x="89" y="79"/>
      <point x="301" y="79" type="qcurve" smooth="yes"/>
      <point x="467" y="79"/>
      <point x="530" y="82" type="qcurve" smooth="yes"/>
      <point x="547" y="82"/>
      <point x="564" y="50"/>
      <point x="564" y="34" type="qcurve" smooth="yes"/>
      <point x="564" y="3"/>
      <point x="540" y="3" type="qcurve" smooth="yes"/>
      <point x="459" y="5" type="line"/>
      <point x="83" y="5"/>
    </contour>
  </outline>
</glyph>
<glyph name="u00B2" format="2">
  <advance width="380" height="380"/>
  <unicode hex="00B2"/>
  <outline>
    <contour>
      <point x="87" y="320" type="qcurve" smooth="yes"/>
      <point x="122" y="327"/>
      <point x="183" y="327" type="qcurve" smooth="yes"/>
      <point x="305" y="324" type="line" smooth="yes"/>
      <point x="329" y="324"/>
      <point x="329" y="352" type="qcurve" smooth="yes"/>
      <point x="329" y="367"/>
      <point x="311" y="397"/>
      <point x="295" y="397" type="qcurve" smooth="yes"/>
      <point x="262" y="395" type="line"/>
      <point x="163" y="396" type="line"/>
      <point x="145" y="395" type="line"/>
      <point x="167" y="425"/>
      <point x="270" y="506"/>
      <point x="328" y="573"/>
      <point x="328" y="661"/>
      <point x="267" y="715"/>
      <point x="163" y="715"/>
      <point x="102" y="677"/>
      <point x="70" y="633"/>
      <point x="70" y="619" type="qcurve" smooth="yes"/>
      <point x="70" y="603"/>
      <point x="99" y="576"/>
      <point x="109" y="576" type="qcurve" smooth="yes"/>
      <point x="125" y="576"/>
      <point x="161" y="645"/>
      <point x="206" y="645" type="qcurve" smooth="yes"/>
      <point x="232" y="645"/>
      <point x="255" y="632"/>
      <point x="255" y="613" type="qcurve" smooth="yes"/>
      <point x="255" y="593"/>
      <point x="216" y="553"/>
      <point x="147" y="497"/>
      <point x="78" y="426"/>
      <point x="61" y="396"/>
      <point x="56" y="392"/>
      <point x="46" y="379"/>
      <point x="46" y="353"/>
      <point x="68" y="320"/>
    </contour>
  </outline>
</glyph>
<glyph name="u00B3" format="2">
  <advance width="380" height="380"/>
  <unicode hex="00B3"/>
  <outline>
    <contour>
      <point x="67" y="351" type="qcurve" smooth="yes"/>
      <point x="116" y="315"/>
      <point x="258" y="315"/>
      <point x="325" y="394"/>
      <point x="325" y="451" type="qcurve" smooth="yes"/>
      <point x="325" y="484"/>
      <point x="287" y="535"/>
      <point x="271" y="541" type="qcurve"/>
      <point x="312" y="566"/>
      <point x="312" y="621" type="qcurve" smooth="yes"/>
      <point x="312" y="716"/>
      <point x="191" y="716" type="qcurve" smooth="yes"/>
      <point x="130" y="716"/>
      <point x="86" y="673" type="qcurve" smooth="yes"/>
      <point x="67" y="656"/>
      <point x="67" y="628"/>
      <point x="90" y="596"/>
      <point x="103" y="596" type="qcurve" smooth="yes"/>
      <point x="115" y="596"/>
      <point x="129" y="613" type="qcurve" smooth="yes"/>
      <point x="155" y="648"/>
      <point x="200" y="648" type="qcurve" smooth="yes"/>
      <point x="242" y="648"/>
      <point x="242" y="619" type="qcurve" smooth="yes"/>
      <point x="242" y="599"/>
      <point x="224" y="586" type="qcurve" smooth="yes"/>
      <point x="193" y="562"/>
      <point x="136" y="556" type="qcurve" smooth="yes"/>
      <point x="119" y="555"/>
      <point x="119" y="535" type="qcurve" smooth="yes"/>
      <point x="119" y="519"/>
      <point x="139" y="489"/>
      <point x="153" y="489" type="qcurve" smooth="yes"/>
      <point x="159" y="490" type="line" smooth="yes"/>
      <point x="179" y="497"/>
      <point x="200" y="497" type="qcurve" smooth="yes"/>
      <point x="254" y="497"/>
      <point x="254" y="444" type="qcurve" smooth="yes"/>
      <point x="254" y="385"/>
      <point x="175" y="385" type="qcurve" smooth="yes"/>
      <point x="132" y="385"/>
      <point x="100" y="419" type="qcurve" smooth="yes"/>
      <point x="91" y="428"/>
      <point x="80" y="428" type="qcurve" smooth="yes"/>
      <point x="68" y="428"/>
      <point x="46" y="398"/>
      <point x="46" y="384" type="qcurve" smooth="yes"/>
      <point x="46" y="368"/>
    </contour>
  </outline>
</glyph>
<glyph name="mu" format="2">
  <advance height="1000" width="590"/>
  <unicode hex="00B5"/>
  <outline>
    <contour>
      <point x="143" y="-185" type="qcurve" smooth="yes"/>
      <point x="167" y="-185"/>
      <point x="167" y="-169" type="qcurve" smooth="yes"/>
      <point x="164" y="-69"/>
      <point x="164" y="13" type="qcurve"/>
      <point x="191" y="-24"/>
      <point x="248" y="-24" type="qcurve" smooth="yes"/>
      <point x="313" y="-24"/>
      <point x="407" y="50"/>
      <point x="425" y="86" type="qcurve"/>
      <point x="428" y="46"/>
      <point x="453" y="4" type="qcurve" smooth="yes"/>
      <point x="465" y="-19"/>
      <point x="485" y="-19" type="qcurve" smooth="yes"/>
      <point x="504" y="-19"/>
      <point x="534" y="16"/>
      <point x="534" y="25" type="qcurve" smooth="yes"/>
      <point x="534" y="32"/>
      <point x="531" y="38" type="qcurve" smooth="yes"/>
      <point x="494" y="99"/>
      <point x="494" y="241" type="qcurve" smooth="yes"/>
      <point x="494" y="385"/>
      <point x="506" y="458" type="qcurve" smooth="yes"/>
      <point x="506" y="475"/>
      <point x="465" y="491"/>
      <point x="446" y="491" type="qcurve" smooth="yes"/>
      <point x="421" y="491"/>
      <point x="421" y="475" type="qcurve" smooth="yes"/>
      <point x="420" y="342" type="line" smooth="yes"/>
      <point x="415" y="155"/>
      <point x="328" y="81" type="qcurve" smooth="yes"/>
      <point x="291" y="50"/>
      <point x="219" y="50"/>
      <point x="201" y="68" type="qcurve" smooth="yes"/>
      <point x="165" y="104"/>
      <point x="165" y="183" type="qcurve" smooth="yes"/>
      <point x="165" y="368"/>
      <point x="167" y="456" type="qcurve" smooth="yes"/>
      <point x="167" y="473"/>
      <point x="126" y="490"/>
      <point x="107" y="490" type="qcurve" smooth="yes"/>
      <point x="83" y="490"/>
      <point x="83" y="474" type="qcurve" smooth="yes"/>
      <point x="86" y="368"/>
      <point x="86" y="-63" type="qcurve"/>
      <point x="84" y="-151" type="line" smooth="yes"/>
      <point x="84" y="-168"/>
      <point x="124" y="-185"/>
    </contour>
  </outline>
</glyph>
<glyph name="paragraph" format="2">
  <advance height="1000" width="638"/>
  <unicode hex="00B6"/>
  <outline>
    <contour>
      <point x="306" y="-146" type="qcurve" smooth="yes"/>
      <point x="340" y="-146"/>
      <point x="340" y="-124" type="qcurve" smooth="yes"/>
      <point x="339" y="-101"/>
      <point x="339" y="701" type="qcurve"/>
      <point x="465" y="708" type="line"/>
      <point x="465" y="-76"/>
      <point x="462" y="-107" type="qcurve" smooth="yes"/>
      <point x="462" y="-122"/>
      <point x="494" y="-135"/>
      <point x="509" y="-135" type="qcurve" smooth="yes"/>
      <point x="543" y="-135"/>
      <point x="543" y="-113" type="qcurve" smooth="yes"/>
      <point x="542" y="-89"/>
      <point x="542" y="726" type="qcurve" smooth="yes"/>
      <point x="542" y="747"/>
      <point x="514" y="780"/>
      <point x="484" y="780" type="qcurve" smooth="yes"/>
      <point x="274" y="770" type="line" smooth="yes"/>
      <point x="215" y="768"/>
      <point x="115" y="710"/>
      <point x="54" y="612"/>
      <point x="54" y="551" type="qcurve" smooth="yes"/>
      <point x="54" y="489"/>
      <point x="103" y="414"/>
      <point x="181" y="377"/>
      <point x="241" y="377"/>
      <point x="262" y="381" type="qcurve"/>
      <point x="262" y="-86"/>
      <point x="259" y="-118" type="qcurve" smooth="yes"/>
      <point x="259" y="-133"/>
      <point x="291" y="-146"/>
    </contour>
  </outline>
</glyph>
<glyph name="u00B9" format="2">
  <advance height="1000" width="380"/>
  <unicode hex="00B9"/>
  <outline>
    <contour>
      <point x="219" y="320" type="qcurve" smooth="yes"/>
      <point x="242" y="320"/>
      <point x="242" y="342" type="qcurve" smooth="yes"/>
      <point x="240" y="386"/>
      <point x="240" y="619" type="qcurve"/>
      <point x="244" y="676" type="line" smooth="yes"/>
      <point x="244" y="692"/>
      <point x="212" y="716"/>
      <point x="201" y="716" type="qcurve" smooth="yes"/>
      <point x="188" y="716"/>
      <point x="166" y="688"/>
      <point x="161" y="684" type="qcurve" smooth="yes"/>
      <point x="112" y="646"/>
      <point x="90" y="638" type="qcurve" smooth="yes"/>
      <point x="77" y="632"/>
      <point x="77" y="620" type="qcurve" smooth="yes"/>
      <point x="77" y="609"/>
      <point x="104" y="588"/>
      <point x="140" y="588"/>
      <point x="169" y="607" type="qcurve"/>
      <point x="169" y="427"/>
      <point x="167" y="357" type="qcurve" smooth="yes"/>
      <point x="167" y="340"/>
      <point x="200" y="320"/>
    </contour>
  </outline>
</glyph>
<glyph name="ordmasculine" format="2">
  <advance height="1000" width="320"/>
  <unicode hex="00BA"/>
  <outline>
    <contour>
      <point x="148" y="462" type="qcurve" smooth="yes"/>
      <point x="95" y="462"/>
      <point x="29" y="536"/>
      <point x="29" y="596" type="qcurve" smooth="yes"/>
      <point x="29" y="627"/>
      <point x="54" y="692"/>
      <point x="91" y="739"/>
      <point x="105" y="739" type="qcurve" smooth="yes"/>
      <point x="118" y="739"/>
      <point x="119" y="738" type="qcurve" smooth="yes"/>
      <point x="140" y="754"/>
      <point x="228" y="754"/>
      <point x="294" y="681"/>
      <point x="294" y="615" type="qcurve" smooth="yes"/>
      <point x="294" y="578"/>
      <point x="262" y="507"/>
      <point x="199" y="462"/>
    </contour>
    <contour>
      <point x="156" y="529" type="qcurve" smooth="yes"/>
      <point x="183" y="529"/>
      <point x="223" y="580"/>
      <point x="223" y="648"/>
      <point x="199" y="688"/>
      <point x="176" y="688" type="qcurve" smooth="yes"/>
      <point x="152" y="688"/>
      <point x="119" y="660"/>
      <point x="100" y="617"/>
      <point x="100" y="590" type="qcurve" smooth="yes"/>
      <point x="100" y="564"/>
      <point x="128" y="529"/>
    </contour>
  </outline>
</glyph>
<glyph name="guillemotright" format="2">
  <advance width="530" height="530"/>
  <unicode hex="00BB"/>
  <outline>
    <contour>
      <point x="263" y="-28" type="qcurve" smooth="yes"/>
      <point x="270" y="-28"/>
      <point x="288" y="-6"/>
      <point x="313" y="26"/>
      <point x="327" y="42" type="qcurve" smooth="yes"/>
      <point x="441" y="160"/>
      <point x="493" y="198" type="qcurve" smooth="yes"/>
      <point x="509" y="210"/>
      <point x="509" y="246" type="qcurve" smooth="yes"/>
      <point x="509" y="259"/>
      <point x="503" y="265" type="qcurve" smooth="yes"/>
      <point x="356" y="383"/>
      <point x="277" y="484" type="qcurve" smooth="yes"/>
      <point x="272" y="490"/>
      <point x="265" y="490" type="qcurve" smooth="yes"/>
      <point x="252" y="490"/>
      <point x="230" y="453"/>
      <point x="230" y="437" type="qcurve" smooth="yes"/>
      <point x="230" y="420"/>
      <point x="239" y="413" type="qcurve" smooth="yes"/>
      <point x="297" y="355"/>
      <point x="427" y="235" type="qcurve"/>
      <point x="353" y="168"/>
      <point x="285" y="98" type="qcurve" smooth="yes"/>
      <point x="238" y="52" type="line" smooth="yes"/>
      <point x="230" y="44"/>
      <point x="230" y="28" type="qcurve" smooth="yes"/>
      <point x="230" y="13"/>
      <point x="249" y="-28"/>
    </contour>
    <contour>
      <point x="58" y="-28" type="qcurve" smooth="yes"/>
      <point x="65" y="-28"/>
      <point x="83" y="-6"/>
      <point x="108" y="26"/>
      <point x="122" y="42" type="qcurve" smooth="yes"/>
      <point x="236" y="160"/>
      <point x="288" y="198" type="qcurve" smooth="yes"/>
      <point x="304" y="210"/>
      <point x="304" y="246" type="qcurve" smooth="yes"/>
      <point x="304" y="259"/>
      <point x="298" y="265" type="qcurve" smooth="yes"/>
      <point x="151" y="383"/>
      <point x="72" y="484" type="qcurve" smooth="yes"/>
      <point x="67" y="490"/>
      <point x="60" y="490" type="qcurve" smooth="yes"/>
      <point x="47" y="490"/>
      <point x="25" y="453"/>
      <point x="25" y="437" type="qcurve" smooth="yes"/>
      <point x="25" y="420"/>
      <point x="34" y="413" type="qcurve" smooth="yes"/>
      <point x="92" y="355"/>
      <point x="222" y="235" type="qcurve"/>
      <point x="148" y="168"/>
      <point x="80" y="98" type="qcurve" smooth="yes"/>
      <point x="33" y="52" type="line" smooth="yes"/>
      <point x="25" y="44"/>
      <point x="25" y="28" type="qcurve" smooth="yes"/>
      <point x="25" y="13"/>
      <point x="44" y="-28"/>
    </contour>
  </outline>
</glyph>
<glyph name="questiondown" format="2">
  <advance width="600" height="600"/>
  <unicode hex="00BF"/>
  <outline>
    <contour>
      <point x="258" y="-220" type="qcurve" smooth="yes"/>
      <point x="174" y="-220"/>
      <point x="79" y="-143"/>
      <point x="79" y="-81" type="qcurve" smooth="yes"/>
      <point x="79" y="-22"/>
      <point x="99" y="16" type="qcurve" smooth="yes"/>
      <point x="127" y="69"/>
      <point x="205" y="130" type="qcurve" smooth="yes"/>
      <point x="235" y="153"/>
      <point x="281" y="208"/>
      <point x="281" y="245" type="qcurve" smooth="yes"/>
      <point x="281" y="274"/>
      <point x="271" y="314" type="qcurve"/>
      <point x="271" y="337"/>
      <point x="310" y="337" type="qcurve" smooth="yes"/>
      <point x="346" y="337"/>
      <point x="360" y="300"/>
      <point x="360" y="252"/>
      <point x="350" y="183"/>
      <point x="306" y="124"/>
      <point x="251" y="76"/>
      <point x="224" y="53" type="qcurve" smooth="yes"/>
      <point x="164" y="-1"/>
      <point x="164" y="-69" type="qcurve" smooth="yes"/>
      <point x="164" y="-103"/>
      <point x="207" y="-149"/>
      <point x="254" y="-149" type="qcurve" smooth="yes"/>
      <point x="303" y="-149"/>
      <point x="384" y="-112"/>
      <point x="434" y="-60"/>
      <point x="446" y="-18" type="qcurve" smooth="yes"/>
      <point x="452" y="-1"/>
      <point x="471" y="-1" type="qcurve" smooth="yes"/>
      <point x="487" y="-1"/>
      <point x="523" y="-31"/>
      <point x="523" y="-57"/>
      <point x="520" y="-61" type="qcurve" smooth="yes"/>
      <point x="429" y="-220"/>
    </contour>
    <contour>
      <point x="294" y="392"/>
      <point x="258" y="437"/>
      <point x="258" y="461" type="qcurve" smooth="yes"/>
      <point x="258" y="484"/>
      <point x="286" y="514"/>
      <point x="340" y="514"/>
      <point x="375" y="472"/>
      <point x="375" y="449" type="qcurve" smooth="yes"/>
      <point x="375" y="425"/>
      <point x="346" y="392"/>
    </contour>
  </outline>
</glyph>
<glyph name="Ccedilla" format="2">
  <advance width="703" height="703"/>
  <unicode hex="00C7"/>
  <outline>
    <contour>
      <point x="288" y="-163" type="qcurve" smooth="yes"/>
      <point x="334" y="-186"/>
      <point x="432" y="-186"/>
      <point x="492" y="-139"/>
      <point x="492" y="-99" type="qcurve" smooth="yes"/>
      <point x="492" y="-22"/>
      <point x="404" y="-22" type="qcurve" smooth="yes"/>
      <point x="391" y="-22"/>
      <point x="391" y="-21" type="qcurve"/>
      <point x="392" y="-21" type="line"/>
      <point x="515" y="-10"/>
      <point x="604" y="74" type="qcurve" smooth="yes"/>
      <point x="641" y="107"/>
      <point x="680" y="169"/>
      <point x="680" y="186" type="qcurve" smooth="yes"/>
      <point x="680" y="206"/>
      <point x="661" y="206" type="qcurve" smooth="yes"/>
      <point x="645" y="206"/>
      <point x="631" y="189" type="qcurve" smooth="yes"/>
      <point x="601" y="148"/>
      <point x="508" y="85"/>
      <point x="408" y="51"/>
      <point x="351" y="51" type="qcurve" smooth="yes"/>
      <point x="293" y="51"/>
      <point x="241" y="77" type="qcurve" smooth="yes"/>
      <point x="129" y="132"/>
      <point x="129" y="289" type="qcurve" smooth="yes"/>
      <point x="129" y="447"/>
      <point x="213" y="546" type="qcurve" smooth="yes"/>
      <point x="292" y="643"/>
      <point x="410" y="643" type="qcurve" smooth="yes"/>
      <point x="527" y="643"/>
      <point x="571" y="575" type="qcurve" smooth="yes"/>
      <point x="579" y="563"/>
      <point x="594" y="563" type="qcurve" smooth="yes"/>
      <point x="608" y="563"/>
      <point x="637" y="601"/>
      <point x="637" y="614" type="qcurve" smooth="yes"/>
      <point x="637" y="626"/>
      <point x="633" y="632" type="qcurve" smooth="yes"/>
      <point x="560" y="719"/>
      <point x="408" y="719" type="qcurve" smooth="yes"/>
      <point x="253" y="719"/>
      <point x="45" y="472"/>
      <point x="45" y="286" type="qcurve" smooth="yes"/>
      <point x="45" y="189"/>
      <point x="81" y="121" type="qcurve" smooth="yes"/>
      <point x="150" y="-8"/>
      <point x="316" y="-20" type="qcurve"/>
      <point x="309" y="-40"/>
      <point x="309" y="-49" type="qcurve" smooth="yes"/>
      <point x="309" y="-61"/>
      <point x="332" y="-82"/>
      <point x="350" y="-82" type="qcurve" smooth="yes"/>
      <point x="373" y="-78"/>
      <point x="386" y="-78" type="qcurve" smooth="yes"/>
      <point x="417" y="-78"/>
      <point x="417" y="-98" type="qcurve" smooth="yes"/>
      <point x="417" y="-110"/>
      <point x="400" y="-119"/>
      <point x="344" y="-119"/>
      <point x="317" y="-100" type="qcurve" smooth="yes"/>
      <point x="304" y="-91"/>
      <point x="297" y="-91" type="qcurve" smooth="yes"/>
      <point x="287" y="-91"/>
      <point x="275" y="-120"/>
      <point x="275" y="-136" type="qcurve" smooth="yes"/>
      <point x="275" y="-155"/>
    </contour>
  </outline>
</glyph>
<glyph name="Edieresis" format="2">
  <advance width="638" height="638"/>
  <unicode hex="00CB"/>
  <outline>
    <contour>
      <point x="142" y="-16" type="qcurve" smooth="yes"/>
      <point x="157" y="-16"/>
      <point x="179" y="-9"/>
      <point x="473" y="-5" type="qcurve" smooth="yes"/>
      <point x="552" y="-5"/>
      <point x="576" y="-8" type="qcurve" smooth="yes"/>
      <point x="594" y="-8"/>
      <point x="594" y="14" type="qcurve" smooth="yes"/>
      <point x="594" y="31"/>
      <point x="573" y="73"/>
      <point x="555" y="73" type="qcurve" smooth="yes"/>
      <point x="523" y="71"/>
      <point x="180" y="65" type="qcurve"/>
      <point x="180" y="338" type="line"/>
      <point x="404" y="351"/>
      <point x="489" y="351" type="qcurve" smooth="yes"/>
      <point x="508" y="351"/>
      <point x="508" y="373" type="qcurve" smooth="yes"/>
      <point x="508" y="391"/>
      <point x="485" y="430"/>
      <point x="471" y="430" type="qcurve" smooth="yes"/>
      <point x="459" y="430"/>
      <point x="433" y="427" type="qcurve" smooth="yes"/>
      <point x="397" y="423"/>
      <point x="180" y="409" type="qcurve"/>
      <point x="180" y="621" type="line"/>
      <point x="456" y="640"/>
      <point x="544" y="640" type="qcurve" smooth="yes"/>
      <point x="563" y="640"/>
      <point x="563" y="662" type="qcurve" smooth="yes"/>
      <point x="563" y="679"/>
      <point x="540" y="718"/>
      <point x="526" y="718" type="qcurve" smooth="yes"/>
      <point x="514" y="718"/>
      <point x="462" y="712"/>
      <point x="430" y="709" type="qcurve" smooth="yes"/>
      <point x="265" y="699"/>
      <point x="170" y="692" type="qcurve"/>
      <point x="144" y="705"/>
      <point x="116" y="705" type="qcurve" smooth="yes"/>
      <point x="96" y="705"/>
      <point x="96" y="685" type="qcurve" smooth="yes"/>
      <point x="100" y="634" type="line"/>
      <point x="100" y="408" type="line"/>
      <point x="89" y="410" type="line" smooth="yes"/>
      <point x="73" y="410"/>
      <point x="73" y="393" type="qcurve" smooth="yes"/>
      <point x="73" y="381"/>
      <point x="90" y="346"/>
      <point x="100" y="340" type="qcurve"/>
      <point x="100" y="84" type="line"/>
      <point x="93" y="37" type="line" smooth="yes"/>
      <point x="93" y="23"/>
      <point x="124" y="-16"/>
    </contour>
    <contour>
      <point x="214" y="753"/>
      <point x="262" y="753"/>
      <point x="290" y="783"/>
      <point x="290" y="831"/>
      <point x="252" y="874"/>
      <point x="204" y="874"/>
      <point x="177" y="844"/>
      <point x="177" y="798"/>
    </contour>
    <contour>
      <point x="397" y="753"/>
      <point x="445" y="753"/>
      <point x="473" y="783"/>
      <point x="473" y="831"/>
      <point x="435" y="874"/>
      <point x="387" y="874"/>
      <point x="360" y="844"/>
      <point x="360" y="798"/>
    </contour>
  </outline>
</glyph>
<glyph name="Igrave" format="2">
  <advance width="304" height="304"/>
  <unicode hex="00CC"/>
  <outline>
    <contour>
      <point x="173" y="-16" type="qcurve" smooth="yes"/>
      <point x="198" y="-16"/>
      <point x="198" y="0" type="qcurve" smooth="yes"/>
      <point x="195" y="106"/>
      <point x="195" y="588" type="qcurve"/>
      <point x="197" y="677" type="line" smooth="yes"/>
      <point x="197" y="694"/>
      <point x="152" y="711"/>
      <point x="132" y="711" type="qcurve" smooth="yes"/>
      <point x="106" y="711"/>
      <point x="106" y="695" type="qcurve" smooth="yes"/>
      <point x="109" y="589"/>
      <point x="109" y="107" type="qcurve"/>
      <point x="107" y="18" type="line" smooth="yes"/>
      <point x="107" y="1"/>
      <point x="152" y="-16"/>
    </contour>
    <contour>
      <point x="240" y="735" type="qcurve" smooth="yes"/>
      <point x="263" y="735"/>
      <point x="263" y="758" type="qcurve" smooth="yes"/>
      <point x="263" y="766"/>
      <point x="223" y="809"/>
      <point x="110" y="884" type="qcurve" smooth="yes"/>
      <point x="106" y="886"/>
      <point x="99" y="886" type="qcurve" smooth="yes"/>
      <point x="90" y="886"/>
      <point x="60" y="866"/>
      <point x="36" y="838"/>
      <point x="36" y="828" type="qcurve" smooth="yes"/>
      <point x="36" y="815"/>
      <point x="47" y="810" type="qcurve" smooth="yes"/>
      <point x="97" y="792"/>
      <point x="192" y="759"/>
      <point x="233" y="735"/>
    </contour>
  </outline>
</glyph>
<glyph name="Iacute" format="2">
  <advance width="304" height="304"/>
  <unicode hex="00CD"/>
  <outline>
    <contour>
      <point x="173" y="-16" type="qcurve" smooth="yes"/>
      <point x="152" y="-16"/>
      <point x="107" y="1"/>
      <point x="107" y="18" type="qcurve" smooth="yes"/>
      <point x="109" y="107" type="line"/>
      <point x="109" y="589"/>
      <point x="106" y="695" type="qcurve" smooth="yes"/>
      <point x="106" y="711"/>
      <point x="132" y="711" type="qcurve" smooth="yes"/>
      <point x="152" y="711"/>
      <point x="197" y="694"/>
      <point x="197" y="677" type="qcurve" smooth="yes"/>
      <point x="195" y="588" type="line"/>
      <point x="195" y="106"/>
      <point x="198" y="0" type="qcurve" smooth="yes"/>
      <point x="198" y="-16"/>
    </contour>
    <contour>
      <point x="67" y="735"/>
      <point x="53" y="749"/>
      <point x="53" y="758" type="qcurve" smooth="yes"/>
      <point x="53" y="782"/>
      <point x="206" y="884" type="qcurve" smooth="yes"/>
      <point x="210" y="886"/>
      <point x="218" y="886" type="qcurve" smooth="yes"/>
      <point x="227" y="886"/>
      <point x="241" y="875" type="qcurve" smooth="yes"/>
      <point x="280" y="849"/>
      <point x="280" y="826" type="qcurve" smooth="yes"/>
      <point x="280" y="815"/>
      <point x="269" y="810" type="qcurve" smooth="yes"/>
      <point x="220" y="792"/>
      <point x="124" y="759"/>
      <point x="83" y="735"/>
    </contour>
  </outline>
</glyph>
<glyph name="Icircumflex" format="2">
  <advance width="304" height="304"/>
  <unicode hex="00CE"/>
  <outline>
    <contour>
      <point x="173" y="-16" type="qcurve" smooth="yes"/>
      <point x="198" y="-16"/>
      <point x="198" y="0" type="qcurve" smooth="yes"/>
      <point x="195" y="106"/>
      <point x="195" y="588" type="qcurve"/>
      <point x="197" y="677" type="line" smooth="yes"/>
      <point x="197" y="694"/>
      <point x="152" y="711"/>
      <point x="132" y="711" type="qcurve" smooth="yes"/>
      <point x="106" y="711"/>
      <point x="106" y="695" type="qcurve" smooth="yes"/>
      <point x="109" y="589"/>
      <point x="109" y="107" type="qcurve"/>
      <point x="107" y="18" type="line" smooth="yes"/>
      <point x="107" y="1"/>
      <point x="152" y="-16"/>
    </contour>
    <contour>
      <point x="10" y="726" type="qcurve" smooth="yes"/>
      <point x="20" y="726"/>
      <point x="55" y="755"/>
      <point x="152" y="817" type="qcurve"/>
      <point x="246" y="758"/>
      <point x="283" y="726"/>
      <point x="293" y="726" type="qcurve" smooth="yes"/>
      <point x="317" y="726"/>
      <point x="317" y="749" type="qcurve" smooth="yes"/>
      <point x="317" y="768"/>
      <point x="228" y="853" type="qcurve" smooth="yes"/>
      <point x="213" y="869"/>
      <point x="183" y="898"/>
      <point x="159" y="898" type="qcurve" smooth="yes"/>
      <point x="136" y="898"/>
      <point x="113" y="894"/>
      <point x="101" y="882" type="qcurve" smooth="yes"/>
      <point x="-14" y="772"/>
      <point x="-14" y="748" type="qcurve" smooth="yes"/>
      <point x="-14" y="726"/>
    </contour>
  </outline>
</glyph>
<glyph name="Idieresis" format="2">
  <advance height="1000" width="304"/>
  <unicode hex="00CF"/>
  <outline>
    <contour>
      <point x="173" y="-16" type="qcurve" smooth="yes"/>
      <point x="152" y="-16"/>
      <point x="107" y="1"/>
      <point x="107" y="18" type="qcurve" smooth="yes"/>
      <point x="109" y="107" type="line"/>
      <point x="109" y="589"/>
      <point x="106" y="695" type="qcurve" smooth="yes"/>
      <point x="106" y="711"/>
      <point x="132" y="711" type="qcurve" smooth="yes"/>
      <point x="152" y="711"/>
      <point x="197" y="694"/>
      <point x="197" y="677" type="qcurve" smooth="yes"/>
      <point x="195" y="588" type="line"/>
      <point x="195" y="106"/>
      <point x="198" y="0" type="qcurve" smooth="yes"/>
      <point x="198" y="-16"/>
    </contour>
    <contour>
      <point x="41" y="753"/>
      <point x="4" y="798"/>
      <point x="4" y="844"/>
      <point x="31" y="874"/>
      <point x="79" y="874"/>
      <point x="117" y="831"/>
      <point x="117" y="783"/>
      <point x="89" y="753"/>
    </contour>
    <contour>
      <point x="224" y="753"/>
      <point x="187" y="798"/>
      <point x="187" y="844"/>
      <point x="214" y="874"/>
      <point x="262" y="874"/>
      <point x="300" y="831"/>
      <point x="300" y="783"/>
      <point x="272" y="753"/>
    </contour>
  </outline>
</glyph>
<glyph name="Ntilde" format="2">
  <advance width="738" height="738"/>
  <unicode hex="00D1"/>
  <outline>
    <contour>
      <point x="586" y="-19" type="qcurve" smooth="yes"/>
      <point x="561" y="-19"/>
      <point x="540" y="12"/>
      <point x="515" y="48" type="qcurve" smooth="yes"/>
      <point x="323" y="318"/>
      <point x="181" y="557" type="qcurve"/>
      <point x="181" y="105"/>
      <point x="184" y="-1" type="qcurve" smooth="yes"/>
      <point x="184" y="-17"/>
      <point x="160" y="-17" type="qcurve" smooth="yes"/>
      <point x="141" y="-17"/>
      <point x="98" y="0"/>
      <point x="98" y="17" type="qcurve" smooth="yes"/>
      <point x="100" y="106"/>
      <point x="100" y="640" type="qcurve"/>
      <point x="93" y="677" type="line" smooth="yes"/>
      <point x="93" y="696"/>
      <point x="143" y="714"/>
      <point x="155" y="714" type="qcurve" smooth="yes"/>
      <point x="165" y="714"/>
      <point x="181" y="711"/>
      <point x="187" y="701" type="qcurve" smooth="yes"/>
      <point x="212" y="655"/>
      <point x="447" y="279"/>
      <point x="560" y="123" type="qcurve"/>
      <point x="560" y="589" type="line"/>
      <point x="556" y="695" type="line" smooth="yes"/>
      <point x="556" y="711"/>
      <point x="581" y="711" type="qcurve" smooth="yes"/>
      <point x="601" y="711"/>
      <point x="643" y="694"/>
      <point x="643" y="677" type="qcurve" smooth="yes"/>
      <point x="641" y="588"/>
      <point x="641" y="87" type="qcurve"/>
      <point x="645" y="32" type="line" smooth="yes"/>
      <point x="645" y="20"/>
      <point x="634" y="8" type="qcurve" smooth="yes"/>
      <point x="610" y="-19"/>
    </contour>
    <contour>
      <point x="234" y="750" type="qcurve" smooth="yes"/>
      <point x="210" y="750"/>
      <point x="210" y="773" type="qcurve" smooth="yes"/>
      <point x="210" y="788"/>
      <point x="234" y="835"/>
      <point x="280" y="873"/>
      <point x="344" y="873"/>
      <point x="385" y="846"/>
      <point x="416" y="822"/>
      <point x="433" y="822" type="qcurve" smooth="yes"/>
      <point x="470" y="822"/>
      <point x="489" y="861" type="qcurve" smooth="yes"/>
      <point x="496" y="876"/>
      <point x="508" y="876" type="qcurve" smooth="yes"/>
      <point x="531" y="876"/>
      <point x="531" y="853" type="qcurve" smooth="yes"/>
      <point x="531" y="822"/>
      <point x="496" y="783" type="qcurve" smooth="yes"/>
      <point x="470" y="753"/>
      <point x="433" y="753" type="qcurve" smooth="yes"/>
      <point x="397" y="753"/>
      <point x="356" y="779"/>
      <point x="325" y="804"/>
      <point x="308" y="804" type="qcurve" smooth="yes"/>
      <point x="271" y="804"/>
      <point x="252" y="765" type="qcurve" smooth="yes"/>
      <point x="245" y="750"/>
    </contour>
  </outline>
</glyph>
<glyph name="Ograve" format="2">
  <advance width="745" height="745"/>
  <unicode hex="00D2"/>
  <outline>
    <contour>
      <point x="366" y="-24" type="qcurve" smooth="yes"/>
      <point x="532" y="-24"/>
      <point x="621" y="91" type="qcurve" smooth="yes"/>
      <point x="701" y="198"/>
      <point x="701" y="375" type="qcurve" smooth="yes"/>
      <point x="701" y="465"/>
      <point x="630" y="626"/>
      <point x="497" y="719"/>
      <point x="297" y="719"/>
      <point x="224" y="655" type="qcurve"/>
      <point x="216" y="664"/>
      <point x="198" y="664" type="qcurve" smooth="yes"/>
      <point x="179" y="664"/>
      <point x="129" y="613"/>
      <point x="80" y="523"/>
      <point x="47" y="405"/>
      <point x="47" y="320" type="qcurve" smooth="yes"/>
      <point x="47" y="234"/>
      <point x="115" y="71"/>
      <point x="257" y="-24"/>
    </contour>
    <contour>
      <point x="354" y="52" type="qcurve" smooth="yes"/>
      <point x="278" y="52"/>
      <point x="177" y="130"/>
      <point x="128" y="260"/>
      <point x="128" y="338" type="qcurve" smooth="yes"/>
      <point x="128" y="415"/>
      <point x="180" y="530"/>
      <point x="262" y="608"/>
      <point x="357" y="647"/>
      <point x="399" y="647" type="qcurve" smooth="yes"/>
      <point x="503" y="647"/>
      <point x="619" y="481"/>
      <point x="619" y="371" type="qcurve" smooth="yes"/>
      <point x="619" y="236"/>
      <point x="560" y="148" type="qcurve" smooth="yes"/>
      <point x="495" y="52"/>
    </contour>
    <contour>
      <point x="461" y="735" type="qcurve" smooth="yes"/>
      <point x="484" y="735"/>
      <point x="484" y="758" type="qcurve" smooth="yes"/>
      <point x="484" y="783"/>
      <point x="331" y="884" type="qcurve" smooth="yes"/>
      <point x="327" y="886"/>
      <point x="320" y="886" type="qcurve" smooth="yes"/>
      <point x="311" y="886"/>
      <point x="281" y="866"/>
      <point x="257" y="838"/>
      <point x="257" y="828" type="qcurve" smooth="yes"/>
      <point x="257" y="815"/>
      <point x="268" y="810" type="qcurve" smooth="yes"/>
      <point x="318" y="792"/>
      <point x="413" y="759"/>
      <point x="454" y="735"/>
    </contour>
  </outline>
</glyph>
<glyph name="multiply" format="2">
  <advance height="1000" width="600"/>
  <unicode hex="00D7"/>
  <outline>
    <contour>
      <point x="97" y="-3" type="qcurve" smooth="yes"/>
      <point x="107" y="-3"/>
      <point x="113" y="3" type="qcurve" smooth="yes"/>
      <point x="302" y="195" type="line"/>
      <point x="449" y="50"/>
      <point x="485" y="12" type="qcurve" smooth="yes"/>
      <point x="492" y="5"/>
      <point x="514" y="5"/>
      <point x="540" y="41"/>
      <point x="540" y="71"/>
      <point x="531" y="79" type="qcurve" smooth="yes"/>
      <point x="491" y="113"/>
      <point x="356" y="249" type="qcurve"/>
      <point x="488" y="380"/>
      <point x="522" y="412"/>
      <point x="541" y="429"/>
      <point x="541" y="445" type="qcurve" smooth="yes"/>
      <point x="541" y="459"/>
      <point x="517" y="494"/>
      <point x="501" y="494" type="qcurve" smooth="yes"/>
      <point x="491" y="494"/>
      <point x="424" y="422" type="qcurve" smooth="yes"/>
      <point x="302" y="301" type="line"/>
      <point x="149" y="455"/>
      <point x="115" y="492" type="qcurve" smooth="yes"/>
      <point x="106" y="502"/>
      <point x="94" y="502" type="qcurve" smooth="yes"/>
      <point x="81" y="502"/>
      <point x="57" y="467"/>
      <point x="57" y="452" type="qcurve" smooth="yes"/>
      <point x="57" y="436"/>
      <point x="65" y="429" type="qcurve" smooth="yes"/>
      <point x="97" y="402"/>
      <point x="250" y="248" type="qcurve"/>
      <point x="124" y="121" type="line"/>
      <point x="67" y="70" type="line" smooth="yes"/>
      <point x="57" y="64"/>
      <point x="57" y="34"/>
      <point x="86" y="-3"/>
    </contour>
  </outline>
</glyph>
<glyph name="Oslash" format="2">
  <advance height="1000" width="745"/>
  <unicode hex="00D8"/>
  <outline>
    <contour>
      <point x="102" y="-41" type="qcurve" smooth="yes"/>
      <point x="94" y="-41"/>
      <point x="82" y="-31" type="qcurve" smooth="yes"/>
      <point x="55" y="-8"/>
      <point x="55" y="15" type="qcurve" smooth="yes"/>
      <point x="55" y="24"/>
      <point x="82" y="51"/>
      <point x="115" y="91" type="qcurve"/>
      <point x="47" y="183"/>
      <point x="47" y="337" type="qcurve" smooth="yes"/>
      <point x="47" y="462"/>
      <point x="105" y="568" type="qcurve" smooth="yes"/>
      <point x="129" y="613"/>
      <point x="179" y="664"/>
      <point x="198" y="664" type="qcurve" smooth="yes"/>
      <point x="216" y="664"/>
      <point x="224" y="655" type="qcurve"/>
      <point x="297" y="719"/>
      <point x="515" y="719"/>
      <point x="583" y="657" type="qcurve"/>
      <point x="597" y="674"/>
      <point x="625" y="714"/>
      <point x="641" y="736"/>
      <point x="663" y="736"/>
      <point x="696" y="698"/>
      <point x="696" y="685" type="qcurve" smooth="yes"/>
      <point x="696" y="671"/>
      <point x="675" y="648"/>
      <point x="635" y="601" type="qcurve"/>
      <point x="701" y="509"/>
      <point x="701" y="197"/>
      <point x="532" y="-24"/>
      <point x="366" y="-24" type="qcurve" smooth="yes"/>
      <point x="245" y="-24"/>
      <point x="169" y="36" type="qcurve"/>
      <point x="155" y="19"/>
      <point x="127" y="-20"/>
      <point x="111" y="-41"/>
    </contour>
    <contour>
      <point x="350" y="52" type="qcurve" smooth="yes"/>
      <point x="495" y="52"/>
      <point x="560" y="148" type="qcurve" smooth="yes"/>
      <point x="619" y="236"/>
      <point x="619" y="371" type="qcurve" smooth="yes"/>
      <point x="619" y="470"/>
      <point x="579" y="534" type="qcurve"/>
      <point x="219" y="98" type="line"/>
      <point x="270" y="52"/>
    </contour>
    <contour>
      <point x="170" y="157" type="qcurve"/>
      <point x="533" y="596" type="line"/>
      <point x="480" y="647"/>
      <point x="399" y="647" type="qcurve" smooth="yes"/>
      <point x="357" y="647"/>
      <point x="262" y="608"/>
      <point x="180" y="530"/>
      <point x="128" y="415"/>
      <point x="128" y="350" type="qcurve" smooth="yes"/>
      <point x="128" y="223"/>
    </contour>
  </outline>
</glyph>
<glyph name="Uacute" format="2">
  <advance height="1000" width="710"/>
  <unicode hex="00DA"/>
  <outline>
    <contour>
      <point x="342" y="-24" type="qcurve" smooth="yes"/>
      <point x="422" y="-24"/>
      <point x="543" y="39"/>
      <point x="611" y="154"/>
      <point x="611" y="230" type="qcurve" smooth="yes"/>
      <point x="611" y="594"/>
      <point x="613" y="682" type="qcurve" smooth="yes"/>
      <point x="613" y="699"/>
      <point x="573" y="715"/>
      <point x="551" y="715" type="qcurve" smooth="yes"/>
      <point x="524" y="715"/>
      <point x="524" y="697" type="qcurve" smooth="yes"/>
      <point x="527" y="595"/>
      <point x="527" y="242" type="qcurve" smooth="yes"/>
      <point x="527" y="187"/>
      <point x="480" y="100"/>
      <point x="396" y="51"/>
      <point x="342" y="51" type="qcurve" smooth="yes"/>
      <point x="265" y="51"/>
      <point x="184" y="122"/>
      <point x="184" y="210" type="qcurve" smooth="yes"/>
      <point x="184" y="584"/>
      <point x="186" y="680" type="qcurve" smooth="yes"/>
      <point x="186" y="697"/>
      <point x="146" y="713"/>
      <point x="124" y="713" type="qcurve" smooth="yes"/>
      <point x="97" y="713"/>
      <point x="97" y="695" type="qcurve" smooth="yes"/>
      <point x="100" y="586"/>
      <point x="100" y="198" type="qcurve" smooth="yes"/>
      <point x="100" y="-24"/>
    </contour>
    <contour>
      <point x="256" y="758" type="qcurve" smooth="yes"/>
      <point x="256" y="749"/>
      <point x="270" y="735"/>
      <point x="286" y="735"/>
      <point x="327" y="759"/>
      <point x="423" y="792"/>
      <point x="472" y="810" type="qcurve" smooth="yes"/>
      <point x="483" y="815"/>
      <point x="483" y="826" type="qcurve" smooth="yes"/>
      <point x="483" y="849"/>
      <point x="445" y="875" type="qcurve" smooth="yes"/>
      <point x="430" y="886"/>
      <point x="421" y="886" type="qcurve" smooth="yes"/>
      <point x="413" y="886"/>
      <point x="409" y="884" type="qcurve" smooth="yes"/>
      <point x="256" y="782"/>
    </contour>
  </outline>
</glyph>
<glyph name="atilde" format="2">
  <advance height="1000" width="575"/>
  <unicode hex="00E3"/>
  <outline>
    <contour>
      <point x="217" y="-24" type="qcurve" smooth="yes"/>
      <point x="275" y="-24"/>
      <point x="383" y="44"/>
      <point x="411" y="98" type="qcurve"/>
      <point x="424" y="-19"/>
      <point x="470" y="-19" type="qcurve" smooth="yes"/>
      <point x="489" y="-19"/>
      <point x="519" y="16"/>
      <point x="519" y="25" type="qcurve" smooth="yes"/>
      <point x="519" y="32"/>
      <point x="516" y="38" type="qcurve" smooth="yes"/>
      <point x="482" y="92"/>
      <point x="482" y="195" type="qcurve" smooth="yes"/>
      <point x="482" y="368"/>
      <point x="495" y="458" type="qcurve" smooth="yes"/>
      <point x="495" y="475"/>
      <point x="452" y="491"/>
      <point x="432" y="491" type="qcurve" smooth="yes"/>
      <point x="407" y="491"/>
      <point x="407" y="475" type="qcurve" smooth="yes"/>
      <point x="407" y="446" type="line"/>
      <point x="385" y="492"/>
      <point x="303" y="492" type="qcurve" smooth="yes"/>
      <point x="206" y="492"/>
      <point x="50" y="302"/>
      <point x="50" y="175" type="qcurve" smooth="yes"/>
      <point x="50" y="79"/>
      <point x="141" y="-24"/>
    </contour>
    <contour>
      <point x="220" y="48" type="qcurve" smooth="yes"/>
      <point x="130" y="48"/>
      <point x="130" y="180" type="qcurve" smooth="yes"/>
      <point x="130" y="282"/>
      <point x="241" y="422"/>
      <point x="298" y="422" type="qcurve" smooth="yes"/>
      <point x="354" y="422"/>
      <point x="383" y="372" type="qcurve" smooth="yes"/>
      <point x="388" y="365"/>
      <point x="397" y="365" type="qcurve" smooth="yes"/>
      <point x="406" y="365" type="line"/>
      <point x="405" y="330" type="line"/>
      <point x="405" y="153"/>
      <point x="303" y="79" type="qcurve" smooth="yes"/>
      <point x="262" y="48"/>
    </contour>
    <contour>
      <point x="156" y="583" type="qcurve" smooth="yes"/>
      <point x="168" y="583"/>
      <point x="175" y="598" type="qcurve" smooth="yes"/>
      <point x="194" y="637"/>
      <point x="231" y="637" type="qcurve" smooth="yes"/>
      <point x="248" y="637"/>
      <point x="279" y="612"/>
      <point x="320" y="586"/>
      <point x="356" y="586" type="qcurve" smooth="yes"/>
      <point x="393" y="586"/>
      <point x="419" y="616" type="qcurve" smooth="yes"/>
      <point x="454" y="655"/>
      <point x="454" y="686" type="qcurve" smooth="yes"/>
      <point x="454" y="709"/>
      <point x="430" y="709" type="qcurve" smooth="yes"/>
      <point x="419" y="709"/>
      <point x="412" y="694" type="qcurve" smooth="yes"/>
      <point x="393" y="655"/>
      <point x="356" y="655" type="qcurve" smooth="yes"/>
      <point x="339" y="655"/>
      <point x="308" y="679"/>
      <point x="267" y="706"/>
      <point x="203" y="706"/>
      <point x="157" y="668"/>
      <point x="133" y="621"/>
      <point x="133" y="606" type="qcurve" smooth="yes"/>
      <point x="133" y="583"/>
    </contour>
  </outline>
</glyph>
<glyph name="adieresis" format="2">
  <advance width="575" height="575"/>
  <unicode hex="00E4"/>
  <outline>
    <contour>
      <point x="220" y="48" type="qcurve" smooth="yes"/>
      <point x="262" y="48"/>
      <point x="303" y="79" type="qcurve" smooth="yes"/>
      <point x="405" y="153"/>
      <point x="405" y="330" type="qcurve"/>
      <point x="406" y="365" type="line"/>
      <point x="397" y="365" type="line" smooth="yes"/>
      <point x="388" y="365"/>
      <point x="383" y="372" type="qcurve" smooth="yes"/>
      <point x="354" y="422"/>
      <point x="298" y="422" type="qcurve" smooth="yes"/>
      <point x="241" y="422"/>
      <point x="130" y="282"/>
      <point x="130" y="180" type="qcurve" smooth="yes"/>
      <point x="130" y="48"/>
    </contour>
    <contour>
      <point x="217" y="-24" type="qcurve" smooth="yes"/>
      <point x="141" y="-24"/>
      <point x="50" y="79"/>
      <point x="50" y="175" type="qcurve" smooth="yes"/>
      <point x="50" y="302"/>
      <point x="206" y="492"/>
      <point x="303" y="492" type="qcurve" smooth="yes"/>
      <point x="385" y="492"/>
      <point x="407" y="446" type="qcurve"/>
      <point x="407" y="475" type="line" smooth="yes"/>
      <point x="407" y="491"/>
      <point x="432" y="491" type="qcurve" smooth="yes"/>
      <point x="452" y="491"/>
      <point x="495" y="475"/>
      <point x="495" y="458" type="qcurve" smooth="yes"/>
      <point x="482" y="368"/>
      <point x="482" y="195" type="qcurve" smooth="yes"/>
      <point x="482" y="92"/>
      <point x="516" y="38" type="qcurve" smooth="yes"/>
      <point x="519" y="32"/>
      <point x="519" y="25" type="qcurve" smooth="yes"/>
      <point x="519" y="16"/>
      <point x="489" y="-19"/>
      <point x="470" y="-19" type="qcurve" smooth="yes"/>
      <point x="424" y="-19"/>
      <point x="411" y="98" type="qcurve"/>
      <point x="383" y="44"/>
      <point x="275" y="-24"/>
    </contour>
    <contour>
      <point x="177" y="586"/>
      <point x="140" y="631"/>
      <point x="140" y="677"/>
      <point x="167" y="707"/>
      <point x="215" y="707"/>
      <point x="253" y="664"/>
      <point x="253" y="616"/>
      <point x="225" y="586"/>
    </contour>
    <contour>
      <point x="360" y="586"/>
      <point x="323" y="631"/>
      <point x="323" y="677"/>
      <point x="350" y="707"/>
      <point x="398" y="707"/>
      <point x="436" y="664"/>
      <point x="436" y="616"/>
      <point x="408" y="586"/>
    </contour>
  </outline>
</glyph>
<glyph name="ccedilla" format="2">
  <advance width="530" height="530"/>
  <unicode hex="00E7"/>
  <outline>
    <contour>
      <point x="236" y="-186"/>
      <point x="190" y="-163" type="qcurve" smooth="yes"/>
      <point x="177" y="-155"/>
      <point x="177" y="-136" type="qcurve" smooth="yes"/>
      <point x="177" y="-120"/>
      <point x="189" y="-91"/>
      <point x="199" y="-91" type="qcurve" smooth="yes"/>
      <point x="206" y="-91"/>
      <point x="219" y="-100" type="qcurve" smooth="yes"/>
      <point x="246" y="-119"/>
      <point x="302" y="-119"/>
      <point x="319" y="-110"/>
      <point x="319" y="-98" type="qcurve" smooth="yes"/>
      <point x="319" y="-78"/>
      <point x="288" y="-78" type="qcurve" smooth="yes"/>
      <point x="275" y="-78"/>
      <point x="252" y="-82" type="qcurve" smooth="yes"/>
      <point x="234" y="-82"/>
      <point x="211" y="-61"/>
      <point x="211" y="-48" type="qcurve" smooth="yes"/>
      <point x="211" y="-37"/>
      <point x="217" y="-22" type="qcurve"/>
      <point x="177" y="-17"/>
      <point x="137" y="10" type="qcurve" smooth="yes"/>
      <point x="50" y="69"/>
      <point x="50" y="192" type="qcurve" smooth="yes"/>
      <point x="50" y="313"/>
      <point x="134" y="404" type="qcurve" smooth="yes"/>
      <point x="171" y="445"/>
      <point x="266" y="492"/>
      <point x="311" y="492" type="qcurve" smooth="yes"/>
      <point x="355" y="492"/>
      <point x="413" y="468"/>
      <point x="448" y="435"/>
      <point x="464" y="406"/>
      <point x="464" y="401" type="qcurve" smooth="yes"/>
      <point x="464" y="383"/>
      <point x="430" y="349"/>
      <point x="419" y="349" type="qcurve" smooth="yes"/>
      <point x="407" y="349"/>
      <point x="402" y="357" type="qcurve" smooth="yes"/>
      <point x="383" y="395"/>
      <point x="372" y="402" type="qcurve" smooth="yes"/>
      <point x="344" y="421"/>
      <point x="315" y="421" type="qcurve" smooth="yes"/>
      <point x="254" y="421"/>
      <point x="192" y="356" type="qcurve" smooth="yes"/>
      <point x="130" y="286"/>
      <point x="130" y="199" type="qcurve" smooth="yes"/>
      <point x="130" y="149"/>
      <point x="149" y="115" type="qcurve" smooth="yes"/>
      <point x="187" y="46"/>
      <point x="257" y="46" type="qcurve" smooth="yes"/>
      <point x="351" y="46"/>
      <point x="449" y="144" type="qcurve" smooth="yes"/>
      <point x="466" y="161"/>
      <point x="477" y="161" type="qcurve" smooth="yes"/>
      <point x="492" y="161"/>
      <point x="492" y="146" type="qcurve" smooth="yes"/>
      <point x="492" y="118"/>
      <point x="442" y="62" type="qcurve" smooth="yes"/>
      <point x="382" y="-7"/>
      <point x="294" y="-20" type="qcurve"/>
      <point x="293" y="-22" type="line"/>
      <point x="294" y="-22" type="line" smooth="yes"/>
      <point x="394" y="-22"/>
      <point x="394" y="-99" type="qcurve" smooth="yes"/>
      <point x="394" y="-139"/>
      <point x="334" y="-186"/>
    </contour>
  </outline>
</glyph>
<glyph name="igrave" format="2">
  <advance width="263" height="263"/>
  <unicode hex="00EC"/>
  <outline>
    <contour>
      <point x="152" y="-16" type="qcurve" smooth="yes"/>
      <point x="133" y="-16"/>
      <point x="89" y="1"/>
      <point x="89" y="17" type="qcurve" smooth="yes"/>
      <point x="91" y="105" type="line"/>
      <point x="91" y="368"/>
      <point x="88" y="475" type="qcurve" smooth="yes"/>
      <point x="88" y="490"/>
      <point x="112" y="490" type="qcurve" smooth="yes"/>
      <point x="131" y="490"/>
      <point x="174" y="473"/>
      <point x="174" y="457" type="qcurve" smooth="yes"/>
      <point x="172" y="368" type="line"/>
      <point x="172" y="105"/>
      <point x="175" y="-1" type="qcurve" smooth="yes"/>
      <point x="175" y="-16"/>
    </contour>
    <contour>
      <point x="220" y="568" type="qcurve" smooth="yes"/>
      <point x="213" y="568"/>
      <point x="172" y="592"/>
      <point x="77" y="625"/>
      <point x="27" y="643" type="qcurve" smooth="yes"/>
      <point x="16" y="648"/>
      <point x="16" y="661" type="qcurve" smooth="yes"/>
      <point x="16" y="671"/>
      <point x="40" y="699"/>
      <point x="70" y="719"/>
      <point x="79" y="719" type="qcurve" smooth="yes"/>
      <point x="86" y="719"/>
      <point x="90" y="717" type="qcurve" smooth="yes"/>
      <point x="203" y="642"/>
      <point x="243" y="599"/>
      <point x="243" y="591" type="qcurve" smooth="yes"/>
      <point x="243" y="568"/>
    </contour>
  </outline>
</glyph>
<glyph name="icircumflex" format="2">
  <advance height="1000" width="263"/>
  <unicode hex="00EE"/>
  <outline>
    <contour>
      <point x="-8" y="559" type="qcurve" smooth="yes"/>
      <point x="2" y="559"/>
      <point x="37" y="588"/>
      <point x="134" y="650" type="qcurve"/>
      <point x="228" y="591"/>
      <point x="265" y="559"/>
      <point x="275" y="559" type="qcurve" smooth="yes"/>
      <point x="299" y="559"/>
      <point x="299" y="582" type="qcurve" smooth="yes"/>
      <point x="299" y="601"/>
      <point x="210" y="686" type="qcurve" smooth="yes"/>
      <point x="195" y="702"/>
      <point x="165" y="731"/>
      <point x="141" y="731" type="qcurve" smooth="yes"/>
      <point x="118" y="731"/>
      <point x="95" y="727"/>
      <point x="83" y="715" type="qcurve" smooth="yes"/>
      <point x="-32" y="605"/>
      <point x="-32" y="581" type="qcurve" smooth="yes"/>
      <point x="-32" y="559"/>
    </contour>
    <contour>
      <point x="152" y="-16" type="qcurve" smooth="yes"/>
      <point x="175" y="-16"/>
      <point x="175" y="-1" type="qcurve" smooth="yes"/>
      <point x="172" y="105"/>
      <point x="172" y="368" type="qcurve"/>
      <point x="174" y="457" type="line" smooth="yes"/>
      <point x="174" y="473"/>
      <point x="131" y="490"/>
      <point x="112" y="490" type="qcurve" smooth="yes"/>
      <point x="88" y="490"/>
      <point x="88" y="475" type="qcurve" smooth="yes"/>
      <point x="91" y="368"/>
      <point x="91" y="105" type="qcurve"/>
      <point x="89" y="17" type="line" smooth="yes"/>
      <point x="89" y="1"/>
      <point x="133" y="-16"/>
    </contour>
  </outline>
</glyph>
<glyph name="eth" format="2">
  <advance width="622" height="622"/>
  <unicode hex="00F0"/>
  <outline>
    <contour>
      <point x="308" y="-24" type="qcurve" smooth="yes"/>
      <point x="380" y="-24"/>
      <point x="492" y="56"/>
      <point x="549" y="191"/>
      <point x="549" y="272" type="qcurve" smooth="yes"/>
      <point x="549" y="479"/>
      <point x="410" y="601" type="qcurve"/>
      <point x="406" y="605" type="line"/>
      <point x="416" y="610"/>
      <point x="447" y="627"/>
      <point x="485" y="644"/>
      <point x="505" y="653" type="qcurve" smooth="yes"/>
      <point x="515" y="659"/>
      <point x="515" y="674" type="qcurve" smooth="yes"/>
      <point x="515" y="687"/>
      <point x="484" y="725"/>
      <point x="469" y="725" type="qcurve" smooth="yes"/>
      <point x="465" y="725"/>
      <point x="341" y="657" type="qcurve"/>
      <point x="309" y="678"/>
      <point x="199" y="729"/>
      <point x="182" y="729" type="qcurve" smooth="yes"/>
      <point x="162" y="729"/>
      <point x="139" y="692"/>
      <point x="139" y="674" type="qcurve" smooth="yes"/>
      <point x="139" y="653"/>
      <point x="157" y="649" type="qcurve" smooth="yes"/>
      <point x="210" y="639"/>
      <point x="259" y="614" type="qcurve"/>
      <point x="194" y="578"/>
      <point x="157" y="564" type="qcurve" smooth="yes"/>
      <point x="142" y="557"/>
      <point x="142" y="541" type="qcurve" smooth="yes"/>
      <point x="142" y="527"/>
      <point x="173" y="488"/>
      <point x="187" y="488" type="qcurve" smooth="yes"/>
      <point x="191" y="488"/>
      <point x="221" y="505" type="qcurve" smooth="yes"/>
      <point x="242" y="518"/>
      <point x="335" y="567" type="qcurve"/>
      <point x="425" y="496"/>
      <point x="446" y="427" type="qcurve"/>
      <point x="399" y="466"/>
      <point x="304" y="466" type="qcurve" smooth="yes"/>
      <point x="248" y="466"/>
      <point x="144" y="396"/>
      <point x="83" y="277"/>
      <point x="83" y="209" type="qcurve" smooth="yes"/>
      <point x="83" y="140"/>
      <point x="137" y="37"/>
      <point x="235" y="-24"/>
    </contour>
    <contour>
      <point x="301" y="52" type="qcurve" smooth="yes"/>
      <point x="237" y="52"/>
      <point x="165" y="137"/>
      <point x="165" y="199" type="qcurve" smooth="yes"/>
      <point x="165" y="262"/>
      <point x="209" y="347"/>
      <point x="276" y="395"/>
      <point x="350" y="395"/>
      <point x="422" y="370"/>
      <point x="455" y="338"/>
      <point x="468" y="338"/>
      <point x="468" y="337" type="qcurve" smooth="yes"/>
      <point x="473" y="311"/>
      <point x="473" y="199"/>
      <point x="427" y="102"/>
      <point x="349" y="52"/>
    </contour>
  </outline>
</glyph>
<glyph name="oacute" format="2">
  <advance width="562" height="562"/>
  <unicode hex="00F3"/>
  <outline>
    <contour>
      <point x="267" y="49" type="qcurve" smooth="yes"/>
      <point x="314" y="49"/>
      <point x="388" y="100"/>
      <point x="433" y="189"/>
      <point x="433" y="258" type="qcurve" smooth="yes"/>
      <point x="433" y="326"/>
      <point x="371" y="420"/>
      <point x="231" y="420"/>
      <point x="129" y="287"/>
      <point x="129" y="208" type="qcurve" smooth="yes"/>
      <point x="129" y="49"/>
    </contour>
    <contour>
      <point x="273" y="-24" type="qcurve" smooth="yes"/>
      <point x="164" y="-24"/>
      <point x="50" y="101"/>
      <point x="50" y="207" type="qcurve" smooth="yes"/>
      <point x="50" y="289"/>
      <point x="101" y="377" type="qcurve" smooth="yes"/>
      <point x="121" y="414"/>
      <point x="163" y="460"/>
      <point x="177" y="460" type="qcurve" smooth="yes"/>
      <point x="190" y="460"/>
      <point x="195" y="453" type="qcurve"/>
      <point x="247" y="492"/>
      <point x="371" y="492"/>
      <point x="416" y="462" type="qcurve" smooth="yes"/>
      <point x="512" y="399"/>
      <point x="512" y="245" type="qcurve" smooth="yes"/>
      <point x="512" y="141"/>
      <point x="449" y="62" type="qcurve" smooth="yes"/>
      <point x="381" y="-24"/>
    </contour>
    <contour>
      <point x="193" y="568"/>
      <point x="179" y="582"/>
      <point x="179" y="591" type="qcurve" smooth="yes"/>
      <point x="179" y="599"/>
      <point x="219" y="642"/>
      <point x="332" y="717" type="qcurve" smooth="yes"/>
      <point x="336" y="719"/>
      <point x="344" y="719" type="qcurve" smooth="yes"/>
      <point x="353" y="719"/>
      <point x="367" y="709" type="qcurve" smooth="yes"/>
      <point x="406" y="682"/>
      <point x="406" y="659" type="qcurve" smooth="yes"/>
      <point x="406" y="648"/>
      <point x="395" y="643" type="qcurve" smooth="yes"/>
      <point x="346" y="625"/>
      <point x="250" y="592"/>
      <point x="209" y="568"/>
    </contour>
  </outline>
</glyph>
<glyph name="otilde" format="2">
  <advance width="562" height="562"/>
  <unicode hex="00F5"/>
  <outline>
    <contour>
      <point x="273" y="-24" type="qcurve" smooth="yes"/>
      <point x="381" y="-24"/>
      <point x="449" y="62" type="qcurve" smooth="yes"/>
      <point x="512" y="141"/>
      <point x="512" y="245" type="qcurve" smooth="yes"/>
      <point x="512" y="399"/>
      <point x="416" y="462" type="qcurve" smooth="yes"/>
      <point x="371" y="492"/>
      <point x="247" y="492"/>
      <point x="195" y="453" type="qcurve"/>
      <point x="190" y="460"/>
      <point x="177" y="460" type="qcurve" smooth="yes"/>
      <point x="163" y="460"/>
      <point x="121" y="414"/>
      <point x="101" y="377" type="qcurve" smooth="yes"/>
      <point x="50" y="289"/>
      <point x="50" y="207" type="qcurve" smooth="yes"/>
      <point x="50" y="101"/>
      <point x="164" y="-24"/>
    </contour>
    <contour>
      <point x="267" y="49" type="qcurve" smooth="yes"/>
      <point x="129" y="49"/>
      <point x="129" y="208" type="qcurve" smooth="yes"/>
      <point x="129" y="287"/>
      <point x="231" y="420"/>
      <point x="371" y="420"/>
      <point x="433" y="326"/>
      <point x="433" y="258" type="qcurve" smooth="yes"/>
      <point x="433" y="189"/>
      <point x="388" y="100"/>
      <point x="314" y="49"/>
    </contour>
    <contour>
      <point x="160" y="583" type="qcurve" smooth="yes"/>
      <point x="172" y="583"/>
      <point x="179" y="598" type="qcurve" smooth="yes"/>
      <point x="198" y="637"/>
      <point x="235" y="637" type="qcurve" smooth="yes"/>
      <point x="252" y="637"/>
      <point x="283" y="612"/>
      <point x="324" y="586"/>
      <point x="360" y="586" type="qcurve" smooth="yes"/>
      <point x="397" y="586"/>
      <point x="423" y="616" type="qcurve" smooth="yes"/>
      <point x="458" y="655"/>
      <point x="458" y="686" type="qcurve" smooth="yes"/>
      <point x="458" y="709"/>
      <point x="434" y="709" type="qcurve" smooth="yes"/>
      <point x="423" y="709"/>
      <point x="416" y="694" type="qcurve" smooth="yes"/>
      <point x="397" y="655"/>
      <point x="360" y="655" type="qcurve" smooth="yes"/>
      <point x="343" y="655"/>
      <point x="312" y="679"/>
      <point x="271" y="706"/>
      <point x="207" y="706"/>
      <point x="161" y="668"/>
      <point x="137" y="621"/>
      <point x="137" y="606" type="qcurve" smooth="yes"/>
      <point x="137" y="583"/>
    </contour>
  </outline>
</glyph>
<glyph name="odieresis" format="2">
  <advance width="562" height="562"/>
  <unicode hex="00F6"/>
  <outline>
    <contour>
      <point x="267" y="49" type="qcurve" smooth="yes"/>
      <point x="314" y="49"/>
      <point x="388" y="100"/>
      <point x="433" y="189"/>
      <point x="433" y="258" type="qcurve" smooth="yes"/>
      <point x="433" y="326"/>
      <point x="371" y="420"/>
      <point x="231" y="420"/>
      <point x="129" y="287"/>
      <point x="129" y="208" type="qcurve" smooth="yes"/>
      <point x="129" y="49"/>
    </contour>
    <contour>
      <point x="273" y="-24" type="qcurve" smooth="yes"/>
      <point x="164" y="-24"/>
      <point x="50" y="101"/>
      <point x="50" y="207" type="qcurve" smooth="yes"/>
      <point x="50" y="289"/>
      <point x="101" y="377" type="qcurve" smooth="yes"/>
      <point x="121" y="414"/>
      <point x="163" y="460"/>
      <point x="177" y="460" type="qcurve" smooth="yes"/>
      <point x="190" y="460"/>
      <point x="195" y="453" type="qcurve"/>
      <point x="247" y="492"/>
      <point x="371" y="492"/>
      <point x="416" y="462" type="qcurve" smooth="yes"/>
      <point x="512" y="399"/>
      <point x="512" y="245" type="qcurve" smooth="yes"/>
      <point x="512" y="141"/>
      <point x="449" y="62" type="qcurve" smooth="yes"/>
      <point x="381" y="-24"/>
    </contour>
    <contour>
      <point x="191" y="586"/>
      <point x="154" y="631"/>
      <point x="154" y="677"/>
      <point x="181" y="707"/>
      <point x="229" y="707"/>
      <point x="267" y="664"/>
      <point x="267" y="616"/>
      <point x="239" y="586"/>
    </contour>
    <contour>
      <point x="374" y="586"/>
      <point x="337" y="631"/>
      <point x="337" y="677"/>
      <point x="364" y="707"/>
      <point x="412" y="707"/>
      <point x="450" y="664"/>
      <point x="450" y="616"/>
      <point x="422" y="586"/>
    </contour>
  </outline>
</glyph>
<glyph name="divide" format="2">
  <advance width="600" height="600"/>
  <unicode hex="00F7"/>
  <outline>
    <contour>
      <point x="54" y="216" type="qcurve" smooth="yes"/>
      <point x="73" y="219"/>
      <point x="469" y="219" type="qcurve"/>
      <point x="550" y="217" type="line" smooth="yes"/>
      <point x="574" y="217"/>
      <point x="574" y="248" type="qcurve" smooth="yes"/>
      <point x="574" y="264"/>
      <point x="557" y="296"/>
      <point x="540" y="296" type="qcurve" smooth="yes"/>
      <point x="477" y="293"/>
      <point x="301" y="293" type="qcurve" smooth="yes"/>
      <point x="79" y="293"/>
      <point x="49" y="295" type="qcurve" smooth="yes"/>
      <point x="24" y="295"/>
      <point x="24" y="263" type="qcurve" smooth="yes"/>
      <point x="24" y="248"/>
      <point x="39" y="216"/>
    </contour>
    <contour>
      <point x="369" y="64" type="qcurve" smooth="yes"/>
      <point x="369" y="100"/>
      <point x="330" y="131" type="qcurve" smooth="yes"/>
      <point x="312" y="144"/>
      <point x="288" y="144" type="qcurve" smooth="yes"/>
      <point x="262" y="144"/>
      <point x="229" y="107"/>
      <point x="229" y="57"/>
      <point x="250" y="19"/>
      <point x="285" y="-7"/>
      <point x="335" y="-7"/>
      <point x="369" y="29"/>
    </contour>
    <contour>
      <point x="369" y="438" type="qcurve" smooth="yes"/>
      <point x="369" y="474"/>
      <point x="330" y="505" type="qcurve" smooth="yes"/>
      <point x="312" y="518"/>
      <point x="288" y="518" type="qcurve" smooth="yes"/>
      <point x="262" y="518"/>
      <point x="229" y="481"/>
      <point x="229" y="431"/>
      <point x="250" y="393"/>
      <point x="285" y="367"/>
      <point x="335" y="367"/>
      <point x="369" y="403"/>
    </contour>
  </outline>
</glyph>
<glyph name="oslash" format="2">
  <advance width="562" height="562"/>
  <unicode hex="00F8"/>
  <outline>
    <contour>
      <point x="101" y="-31" type="qcurve" smooth="yes"/>
      <point x="114" y="-31"/>
      <point x="117" y="-23" type="qcurve" smooth="yes"/>
      <point x="140" y="10" type="line"/>
      <point x="192" y="-24"/>
      <point x="260" y="-24" type="qcurve" smooth="yes"/>
      <point x="381" y="-24"/>
      <point x="449" y="62" type="qcurve" smooth="yes"/>
      <point x="512" y="141"/>
      <point x="512" y="245" type="qcurve" smooth="yes"/>
      <point x="512" y="348"/>
      <point x="468" y="411" type="qcurve"/>
      <point x="472" y="416"/>
      <point x="487" y="431"/>
      <point x="496" y="443"/>
      <point x="496" y="457" type="qcurve" smooth="yes"/>
      <point x="496" y="470"/>
      <point x="467" y="504"/>
      <point x="456" y="504" type="qcurve" smooth="yes"/>
      <point x="444" y="504"/>
      <point x="439" y="496" type="qcurve" smooth="yes"/>
      <point x="416" y="462" type="line"/>
      <point x="373" y="492"/>
      <point x="247" y="492"/>
      <point x="195" y="453" type="qcurve"/>
      <point x="190" y="460"/>
      <point x="177" y="460" type="qcurve" smooth="yes"/>
      <point x="163" y="460"/>
      <point x="121" y="414"/>
      <point x="101" y="377" type="qcurve" smooth="yes"/>
      <point x="50" y="289"/>
      <point x="50" y="117"/>
      <point x="88" y="61" type="qcurve"/>
      <point x="84" y="57"/>
      <point x="69" y="40"/>
      <point x="58" y="26"/>
      <point x="58" y="2"/>
      <point x="89" y="-31"/>
    </contour>
    <contour>
      <point x="188" y="68" type="qcurve"/>
      <point x="416" y="347" type="line"/>
      <point x="433" y="313"/>
      <point x="433" y="234" type="qcurve" smooth="yes"/>
      <point x="433" y="189"/>
      <point x="388" y="100"/>
      <point x="314" y="49"/>
      <point x="216" y="49"/>
    </contour>
    <contour>
      <point x="142" y="126" type="line"/>
      <point x="129" y="155"/>
      <point x="129" y="208" type="qcurve" smooth="yes"/>
      <point x="129" y="287"/>
      <point x="232" y="420"/>
      <point x="307" y="420" type="qcurve" smooth="yes"/>
      <point x="346" y="420"/>
      <point x="368" y="405" type="qcurve"/>
    </contour>
  </outline>
</glyph>
<glyph name="ucircumflex" format="2">
  <advance height="1000" width="590"/>
  <unicode hex="00FB"/>
  <outline>
    <contour>
      <point x="485" y="-19" type="qcurve" smooth="yes"/>
      <point x="455" y="-19"/>
      <point x="429" y="74"/>
      <point x="428" y="92" type="qcurve"/>
      <point x="410" y="55"/>
      <point x="306" y="-24"/>
      <point x="182" y="-24"/>
      <point x="148" y="4" type="qcurve" smooth="yes"/>
      <point x="86" y="55"/>
      <point x="86" y="171" type="qcurve" smooth="yes"/>
      <point x="86" y="368"/>
      <point x="83" y="474" type="qcurve" smooth="yes"/>
      <point x="83" y="490"/>
      <point x="107" y="490" type="qcurve" smooth="yes"/>
      <point x="126" y="490"/>
      <point x="168" y="473"/>
      <point x="168" y="456" type="qcurve" smooth="yes"/>
      <point x="166" y="368"/>
      <point x="166" y="175" type="qcurve" smooth="yes"/>
      <point x="166" y="119"/>
      <point x="206" y="48"/>
      <point x="243" y="48" type="qcurve" smooth="yes"/>
      <point x="281" y="48"/>
      <point x="359" y="112"/>
      <point x="420" y="236"/>
      <point x="420" y="342" type="qcurve" smooth="yes"/>
      <point x="420" y="475" type="line" smooth="yes"/>
      <point x="420" y="491"/>
      <point x="445" y="491" type="qcurve" smooth="yes"/>
      <point x="465" y="491"/>
      <point x="506" y="475"/>
      <point x="506" y="458" type="qcurve" smooth="yes"/>
      <point x="494" y="385"/>
      <point x="494" y="241" type="qcurve" smooth="yes"/>
      <point x="494" y="99"/>
      <point x="531" y="38" type="qcurve" smooth="yes"/>
      <point x="533" y="34"/>
      <point x="533" y="26" type="qcurve" smooth="yes"/>
      <point x="533" y="16"/>
      <point x="503" y="-19"/>
    </contour>
    <contour>
      <point x="156" y="559" type="qcurve" smooth="yes"/>
      <point x="132" y="559"/>
      <point x="132" y="581" type="qcurve" smooth="yes"/>
      <point x="132" y="605"/>
      <point x="247" y="715" type="qcurve" smooth="yes"/>
      <point x="259" y="727"/>
      <point x="282" y="731"/>
      <point x="305" y="731" type="qcurve" smooth="yes"/>
      <point x="329" y="731"/>
      <point x="359" y="702"/>
      <point x="374" y="686" type="qcurve" smooth="yes"/>
      <point x="463" y="601"/>
      <point x="463" y="582" type="qcurve" smooth="yes"/>
      <point x="463" y="559"/>
      <point x="439" y="559" type="qcurve" smooth="yes"/>
      <point x="429" y="559"/>
      <point x="392" y="591"/>
      <point x="298" y="650" type="qcurve"/>
      <point x="201" y="588"/>
      <point x="166" y="559"/>
    </contour>
  </outline>
</glyph>
<glyph name="amacron" format="2">
  <advance height="1000" width="575"/>
  <unicode hex="0101"/>
  <outline>
    <contour>
      <point x="217" y="-24" type="qcurve" smooth="yes"/>
      <point x="141" y="-24"/>
      <point x="50" y="79"/>
      <point x="50" y="175" type="qcurve" smooth="yes"/>
      <point x="50" y="302"/>
      <point x="206" y="492"/>
      <point x="303" y="492" type="qcurve" smooth="yes"/>
      <point x="385" y="492"/>
      <point x="407" y="446" type="qcurve"/>
      <point x="407" y="475" type="line" smooth="yes"/>
      <point x="407" y="491"/>
      <point x="432" y="491" type="qcurve" smooth="yes"/>
      <point x="452" y="491"/>
      <point x="495" y="475"/>
      <point x="495" y="458" type="qcurve" smooth="yes"/>
      <point x="482" y="368"/>
      <point x="482" y="195" type="qcurve" smooth="yes"/>
      <point x="482" y="92"/>
      <point x="516" y="38" type="qcurve" smooth="yes"/>
      <point x="519" y="32"/>
      <point x="519" y="25" type="qcurve" smooth="yes"/>
      <point x="519" y="16"/>
      <point x="489" y="-19"/>
      <point x="470" y="-19" type="qcurve" smooth="yes"/>
      <point x="424" y="-19"/>
      <point x="411" y="98" type="qcurve"/>
      <point x="383" y="44"/>
      <point x="275" y="-24"/>
    </contour>
    <contour>
      <point x="220" y="48" type="qcurve" smooth="yes"/>
      <point x="262" y="48"/>
      <point x="303" y="79" type="qcurve" smooth="yes"/>
      <point x="405" y="153"/>
      <point x="405" y="330" type="qcurve"/>
      <point x="406" y="365" type="line"/>
      <point x="397" y="365" type="line" smooth="yes"/>
      <point x="388" y="365"/>
      <point x="383" y="372" type="qcurve" smooth="yes"/>
      <point x="354" y="422"/>
      <point x="298" y="422" type="qcurve" smooth="yes"/>
      <point x="241" y="422"/>
      <point x="130" y="282"/>
      <point x="130" y="180" type="qcurve" smooth="yes"/>
      <point x="130" y="48"/>
    </contour>
    <contour>
      <point x="167" y="611" type="line" smooth="yes"/>
      <point x="143" y="611"/>
      <point x="143" y="685"/>
      <point x="168" y="685" type="qcurve" smooth="yes"/>
      <point x="396" y="685" type="line" smooth="yes"/>
      <point x="420" y="685"/>
      <point x="420" y="611"/>
      <point x="395" y="611" type="qcurve" smooth="yes"/>
    </contour>
  </outline>
</glyph>
<glyph name="abreve" format="2">
  <advance height="1000" width="575"/>
  <unicode hex="0103"/>
  <outline>
    <contour>
      <point x="217" y="-24" type="qcurve" smooth="yes"/>
      <point x="275" y="-24"/>
      <point x="383" y="44"/>
      <point x="411" y="98" type="qcurve"/>
      <point x="424" y="-19"/>
      <point x="470" y="-19" type="qcurve" smooth="yes"/>
      <point x="489" y="-19"/>
      <point x="519" y="16"/>
      <point x="519" y="32"/>
      <point x="516" y="38" type="qcurve" smooth="yes"/>
      <point x="482" y="92"/>
      <point x="482" y="195" type="qcurve" smooth="yes"/>
      <point x="482" y="368"/>
      <point x="495" y="457" type="qcurve"/>
      <point x="495" y="459" type="line" smooth="yes"/>
      <point x="495" y="475"/>
      <point x="452" y="491"/>
      <point x="407" y="491"/>
      <point x="407" y="475" type="qcurve" smooth="yes"/>
      <point x="407" y="446" type="line"/>
      <point x="385" y="492"/>
      <point x="303" y="492" type="qcurve" smooth="yes"/>
      <point x="255" y="492"/>
      <point x="165" y="442"/>
      <point x="129" y="398" type="qcurve" smooth="yes"/>
      <point x="50" y="302"/>
      <point x="50" y="175" type="qcurve" smooth="yes"/>
      <point x="50" y="79"/>
      <point x="141" y="-24"/>
    </contour>
    <contour>
      <point x="220" y="48" type="qcurve" smooth="yes"/>
      <point x="130" y="48"/>
      <point x="130" y="180" type="qcurve" smooth="yes"/>
      <point x="130" y="282"/>
      <point x="241" y="422"/>
      <point x="354" y="422"/>
      <point x="383" y="372" type="qcurve" smooth="yes"/>
      <point x="388" y="365"/>
      <point x="396" y="365" type="qcurve" smooth="yes"/>
      <point x="405" y="365" type="line"/>
      <point x="405" y="355"/>
      <point x="405" y="330" type="qcurve" smooth="yes"/>
      <point x="405" y="153"/>
      <point x="303" y="79" type="qcurve" smooth="yes"/>
      <point x="262" y="48"/>
    </contour>
    <contour>
      <point x="172" y="578" type="qcurve" smooth="yes"/>
      <point x="224" y="535"/>
      <point x="379" y="535"/>
      <point x="471" y="613"/>
      <point x="471" y="637" type="qcurve" smooth="yes"/>
      <point x="471" y="648"/>
      <point x="443" y="670"/>
      <point x="413" y="670"/>
      <point x="405" y="657" type="qcurve" smooth="yes"/>
      <point x="388" y="628"/>
      <point x="337" y="606"/>
      <point x="300" y="606" type="qcurve" smooth="yes"/>
      <point x="224" y="606"/>
      <point x="195" y="657" type="qcurve" smooth="yes"/>
      <point x="187" y="670"/>
      <point x="157" y="670"/>
      <point x="128" y="648"/>
      <point x="128" y="637" type="qcurve" smooth="yes"/>
      <point x="128" y="614"/>
    </contour>
  </outline>
</glyph>
<glyph name="Aogonek" format="2">
  <advance width="690" height="690"/>
  <unicode hex="0104"/>
  <outline>
    <contour>
      <point x="636" y="-104" type="qcurve" smooth="yes"/>
      <point x="636" y="-50"/>
      <point x="682" y="-5" type="qcurve"/>
      <point x="697" y="2"/>
      <point x="697" y="16" type="qcurve" smooth="yes"/>
      <point x="697" y="22"/>
      <point x="685" y="39" type="qcurve" smooth="yes"/>
      <point x="624" y="127"/>
      <point x="458" y="522" type="qcurve" smooth="yes"/>
      <point x="405" y="648"/>
      <point x="405" y="660" type="qcurve" smooth="yes"/>
      <point x="408" y="680" type="line"/>
      <point x="404" y="697"/>
      <point x="362" y="717"/>
      <point x="327" y="717"/>
      <point x="314" y="701"/>
      <point x="310" y="664"/>
      <point x="306" y="655" type="qcurve" smooth="yes"/>
      <point x="268" y="555"/>
      <point x="134" y="289" type="qcurve"/>
      <point x="119" y="289" type="line" smooth="yes"/>
      <point x="98" y="289"/>
      <point x="80" y="291" type="qcurve" smooth="yes"/>
      <point x="78" y="291" type="line" smooth="yes"/>
      <point x="61" y="291"/>
      <point x="61" y="253"/>
      <point x="83" y="212"/>
      <point x="99" y="212" type="qcurve"/>
      <point x="96" y="212" type="line"/>
      <point x="68" y="156"/>
      <point x="29" y="83"/>
      <point x="10" y="47"/>
      <point x="2" y="32"/>
      <point x="-7" y="20"/>
      <point x="-7" y="12" type="qcurve" smooth="yes"/>
      <point x="-7" y="-13"/>
      <point x="79" y="-13"/>
      <point x="87" y="8" type="qcurve" smooth="yes"/>
      <point x="105" y="59"/>
      <point x="123" y="96" type="qcurve" smooth="yes"/>
      <point x="153" y="156" type="line" smooth="yes"/>
      <point x="169" y="188"/>
      <point x="184" y="219" type="qcurve"/>
      <point x="503" y="233" type="line"/>
      <point x="561" y="107" type="line" smooth="yes"/>
      <point x="580" y="62"/>
      <point x="597" y="13" type="qcurve" smooth="yes"/>
      <point x="601" y="2" type="line" smooth="yes"/>
      <point x="601" y="-4"/>
      <point x="592" y="-4" type="qcurve"/>
      <point x="584" y="-11"/>
      <point x="571" y="-41" type="qcurve" smooth="yes"/>
      <point x="556" y="-72"/>
      <point x="556" y="-148"/>
      <point x="609" y="-198"/>
      <point x="693" y="-198"/>
      <point x="748" y="-165"/>
      <point x="783" y="-122"/>
      <point x="783" y="-91"/>
      <point x="754" y="-91"/>
      <point x="741" y="-104" type="qcurve" smooth="yes"/>
      <point x="710" y="-131"/>
      <point x="636" y="-131"/>
    </contour>
    <contour>
      <point x="220" y="291" type="line"/>
      <point x="278" y="413"/>
      <point x="356" y="585" type="qcurve"/>
      <point x="391" y="491"/>
      <point x="473" y="302" type="qcurve"/>
    </contour>
  </outline>
</glyph>
<glyph name="aogonek" format="2">
  <advance width="575" height="575"/>
  <unicode hex="0105"/>
  <outline>
    <contour>
      <point x="513" y="9"/>
      <point x="505" y="-1" type="qcurve" smooth="yes"/>
      <point x="498" y="-9"/>
      <point x="492" y="-12" type="qcurve" smooth="yes"/>
      <point x="466" y="-47"/>
      <point x="466" y="-88" type="qcurve" smooth="yes"/>
      <point x="466" y="-115"/>
      <point x="540" y="-115"/>
      <point x="571" y="-88" type="qcurve" smooth="yes"/>
      <point x="584" y="-75"/>
      <point x="613" y="-75"/>
      <point x="613" y="-106"/>
      <point x="578" y="-149"/>
      <point x="523" y="-182"/>
      <point x="439" y="-182"/>
      <point x="386" y="-132"/>
      <point x="386" y="-56"/>
      <point x="401" y="-25" type="qcurve" smooth="yes"/>
      <point x="414" y="4"/>
      <point x="430" y="18" type="qcurve"/>
      <point x="416" y="48"/>
      <point x="411" y="98" type="qcurve"/>
      <point x="383" y="44"/>
      <point x="275" y="-24"/>
      <point x="217" y="-24" type="qcurve" smooth="yes"/>
      <point x="141" y="-24"/>
      <point x="50" y="79"/>
      <point x="50" y="175" type="qcurve" smooth="yes"/>
      <point x="50" y="302"/>
      <point x="129" y="398" type="qcurve" smooth="yes"/>
      <point x="165" y="442"/>
      <point x="255" y="492"/>
      <point x="303" y="492" type="qcurve" smooth="yes"/>
      <point x="385" y="492"/>
      <point x="407" y="446" type="qcurve"/>
      <point x="407" y="475" type="line" smooth="yes"/>
      <point x="407" y="491"/>
      <point x="452" y="491"/>
      <point x="495" y="475"/>
      <point x="495" y="459" type="qcurve" smooth="yes"/>
      <point x="495" y="457" type="line"/>
      <point x="482" y="368"/>
      <point x="482" y="195" type="qcurve" smooth="yes"/>
      <point x="482" y="92"/>
      <point x="516" y="38" type="qcurve" smooth="yes"/>
      <point x="519" y="32"/>
      <point x="519" y="25" type="qcurve" smooth="yes"/>
      <point x="519" y="21"/>
    </contour>
    <contour>
      <point x="130" y="180" type="qcurve" smooth="yes"/>
      <point x="130" y="48"/>
      <point x="220" y="48" type="qcurve" smooth="yes"/>
      <point x="262" y="48"/>
      <point x="303" y="79" type="qcurve" smooth="yes"/>
      <point x="405" y="153"/>
      <point x="405" y="330" type="qcurve" smooth="yes"/>
      <point x="405" y="355"/>
      <point x="405" y="365" type="qcurve"/>
      <point x="396" y="365" type="line" smooth="yes"/>
      <point x="388" y="365"/>
      <point x="383" y="372" type="qcurve" smooth="yes"/>
      <point x="354" y="422"/>
      <point x="241" y="422"/>
      <point x="130" y="282"/>
    </contour>
  </outline>
</glyph>
<glyph name="Cacute" format="2">
  <advance height="1000" width="703"/>
  <unicode hex="0106"/>
  <outline>
    <contour>
      <point x="357" y="-24" type="qcurve" smooth="yes"/>
      <point x="469" y="-24"/>
      <point x="559" y="39" type="qcurve" smooth="yes"/>
      <point x="631" y="87"/>
      <point x="665" y="147" type="qcurve" smooth="yes"/>
      <point x="680" y="172"/>
      <point x="680" y="206"/>
      <point x="645" y="206"/>
      <point x="631" y="189" type="qcurve" smooth="yes"/>
      <point x="601" y="148"/>
      <point x="508" y="85"/>
      <point x="408" y="51"/>
      <point x="293" y="51"/>
      <point x="241" y="77" type="qcurve" smooth="yes"/>
      <point x="129" y="132"/>
      <point x="129" y="447"/>
      <point x="213" y="546" type="qcurve" smooth="yes"/>
      <point x="292" y="643"/>
      <point x="527" y="643"/>
      <point x="571" y="575" type="qcurve" smooth="yes"/>
      <point x="579" y="563"/>
      <point x="608" y="563"/>
      <point x="637" y="601"/>
      <point x="637" y="626"/>
      <point x="633" y="632" type="qcurve" smooth="yes"/>
      <point x="560" y="719"/>
      <point x="408" y="719" type="qcurve" smooth="yes"/>
      <point x="331" y="719"/>
      <point x="198" y="654"/>
      <point x="100" y="537"/>
      <point x="45" y="382"/>
      <point x="45" y="181"/>
      <point x="127" y="41"/>
      <point x="269" y="-24"/>
    </contour>
    <contour>
      <point x="274" y="758" type="qcurve" smooth="yes"/>
      <point x="274" y="749"/>
      <point x="288" y="735"/>
      <point x="304" y="735"/>
      <point x="345" y="759"/>
      <point x="441" y="792"/>
      <point x="490" y="810" type="qcurve" smooth="yes"/>
      <point x="501" y="815"/>
      <point x="501" y="826" type="qcurve" smooth="yes"/>
      <point x="501" y="849"/>
      <point x="463" y="875" type="qcurve" smooth="yes"/>
      <point x="448" y="886"/>
      <point x="431" y="886"/>
      <point x="427" y="884" type="qcurve" smooth="yes"/>
      <point x="274" y="782"/>
    </contour>
  </outline>
</glyph>
<glyph name="ccircumflex" format="2">
  <advance width="530" height="530"/>
  <unicode hex="0109"/>
  <outline>
    <contour>
      <point x="305" y="650" type="qcurve"/>
      <point x="208" y="588"/>
      <point x="173" y="559"/>
      <point x="163" y="559" type="qcurve" smooth="yes"/>
      <point x="139" y="559"/>
      <point x="139" y="598"/>
      <point x="222" y="682" type="qcurve" smooth="yes"/>
      <point x="242" y="703"/>
      <point x="266" y="727"/>
      <point x="289" y="731"/>
      <point x="336" y="731"/>
      <point x="362" y="705"/>
      <point x="382" y="686" type="qcurve" smooth="yes"/>
      <point x="470" y="601"/>
      <point x="470" y="559"/>
      <point x="446" y="559" type="qcurve" smooth="yes"/>
      <point x="436" y="559"/>
      <point x="399" y="591"/>
    </contour>
    <contour>
      <point x="492" y="161"/>
      <point x="492" y="135"/>
      <point x="463" y="82"/>
      <point x="433" y="52" type="qcurve" smooth="yes"/>
      <point x="360" y="-24"/>
      <point x="250" y="-24" type="qcurve" smooth="yes"/>
      <point x="196" y="-24"/>
      <point x="105" y="27"/>
      <point x="50" y="124"/>
      <point x="50" y="255"/>
      <point x="96" y="363"/>
      <point x="171" y="445"/>
      <point x="266" y="492"/>
      <point x="355" y="492"/>
      <point x="413" y="468"/>
      <point x="448" y="435"/>
      <point x="464" y="406"/>
      <point x="464" y="401" type="qcurve" smooth="yes"/>
      <point x="464" y="383"/>
      <point x="430" y="349"/>
      <point x="407" y="349"/>
      <point x="402" y="357" type="qcurve" smooth="yes"/>
      <point x="395" y="371"/>
      <point x="381" y="396"/>
      <point x="372" y="402" type="qcurve" smooth="yes"/>
      <point x="344" y="421"/>
      <point x="315" y="421" type="qcurve" smooth="yes"/>
      <point x="254" y="421"/>
      <point x="192" y="356" type="qcurve" smooth="yes"/>
      <point x="130" y="286"/>
      <point x="130" y="199" type="qcurve" smooth="yes"/>
      <point x="130" y="149"/>
      <point x="149" y="115" type="qcurve" smooth="yes"/>
      <point x="187" y="46"/>
      <point x="257" y="46" type="qcurve" smooth="yes"/>
      <point x="351" y="46"/>
      <point x="449" y="144" type="qcurve" smooth="yes"/>
      <point x="466" y="161"/>
    </contour>
  </outline>
</glyph>
<glyph name="Cdotaccent" format="2">
  <advance height="1000" width="703"/>
  <unicode hex="010A"/>
  <outline>
    <contour>
      <point x="357" y="-24" type="qcurve" smooth="yes"/>
      <point x="469" y="-24"/>
      <point x="559" y="39" type="qcurve" smooth="yes"/>
      <point x="631" y="87"/>
      <point x="665" y="147" type="qcurve" smooth="yes"/>
      <point x="680" y="172"/>
      <point x="680" y="206"/>
      <point x="645" y="206"/>
      <point x="631" y="189" type="qcurve" smooth="yes"/>
      <point x="601" y="148"/>
      <point x="508" y="85"/>
      <point x="408" y="51"/>
      <point x="293" y="51"/>
      <point x="241" y="77" type="qcurve" smooth="yes"/>
      <point x="129" y="132"/>
      <point x="129" y="447"/>
      <point x="213" y="546" type="qcurve" smooth="yes"/>
      <point x="292" y="643"/>
      <point x="527" y="643"/>
      <point x="571" y="575" type="qcurve" smooth="yes"/>
      <point x="579" y="563"/>
      <point x="608" y="563"/>
      <point x="637" y="601"/>
      <point x="637" y="626"/>
      <point x="633" y="632" type="qcurve" smooth="yes"/>
      <point x="560" y="719"/>
      <point x="408" y="719" type="qcurve" smooth="yes"/>
      <point x="331" y="719"/>
      <point x="198" y="654"/>
      <point x="100" y="537"/>
      <point x="45" y="382"/>
      <point x="45" y="181"/>
      <point x="127" y="41"/>
      <point x="269" y="-24"/>
    </contour>
    <contour>
      <point x="416" y="785"/>
      <point x="444" y="815"/>
      <point x="444" y="863"/>
      <point x="406" y="906"/>
      <point x="358" y="906"/>
      <point x="331" y="876"/>
      <point x="331" y="830"/>
      <point x="368" y="785"/>
    </contour>
  </outline>
</glyph>
<glyph name="Ccaron" format="2">
  <advance width="703" height="703"/>
  <unicode hex="010C"/>
  <outline>
    <contour>
      <point x="372" y="811" type="qcurve"/>
      <point x="404" y="832"/>
      <point x="471" y="875"/>
      <point x="503" y="902"/>
      <point x="513" y="902" type="qcurve" smooth="yes"/>
      <point x="537" y="902"/>
      <point x="537" y="860"/>
      <point x="448" y="775" type="qcurve" smooth="yes"/>
      <point x="420" y="747" type="line" smooth="yes"/>
      <point x="403" y="730"/>
      <point x="340" y="730"/>
      <point x="327" y="740" type="qcurve" smooth="yes"/>
      <point x="257" y="807"/>
      <point x="219" y="856" type="qcurve" smooth="yes"/>
      <point x="206" y="873"/>
      <point x="206" y="880" type="qcurve" smooth="yes"/>
      <point x="206" y="902"/>
      <point x="230" y="902" type="qcurve" smooth="yes"/>
      <point x="240" y="902"/>
      <point x="272" y="875"/>
      <point x="340" y="832"/>
    </contour>
    <contour>
      <point x="665" y="147" type="qcurve" smooth="yes"/>
      <point x="631" y="87"/>
      <point x="559" y="39" type="qcurve" smooth="yes"/>
      <point x="469" y="-24"/>
      <point x="357" y="-24" type="qcurve" smooth="yes"/>
      <point x="269" y="-24"/>
      <point x="127" y="41"/>
      <point x="45" y="181"/>
      <point x="45" y="382"/>
      <point x="100" y="537"/>
      <point x="198" y="654"/>
      <point x="331" y="719"/>
      <point x="408" y="719" type="qcurve" smooth="yes"/>
      <point x="560" y="719"/>
      <point x="633" y="632" type="qcurve" smooth="yes"/>
      <point x="637" y="626"/>
      <point x="637" y="601"/>
      <point x="608" y="563"/>
      <point x="579" y="563"/>
      <point x="571" y="575" type="qcurve" smooth="yes"/>
      <point x="527" y="643"/>
      <point x="292" y="643"/>
      <point x="213" y="546" type="qcurve" smooth="yes"/>
      <point x="129" y="447"/>
      <point x="129" y="132"/>
      <point x="241" y="77" type="qcurve" smooth="yes"/>
      <point x="293" y="51"/>
      <point x="408" y="51"/>
      <point x="508" y="85"/>
      <point x="601" y="148"/>
      <point x="631" y="189" type="qcurve" smooth="yes"/>
      <point x="645" y="206"/>
      <point x="680" y="206"/>
      <point x="680" y="172"/>
    </contour>
  </outline>
</glyph>
<glyph name="ccaron" format="2">
  <advance height="1000" width="530"/>
  <unicode hex="010D"/>
  <outline>
    <contour>
      <point x="250" y="-24" type="qcurve" smooth="yes"/>
      <point x="360" y="-24"/>
      <point x="433" y="52" type="qcurve" smooth="yes"/>
      <point x="463" y="82"/>
      <point x="492" y="135"/>
      <point x="492" y="161"/>
      <point x="466" y="161"/>
      <point x="449" y="144" type="qcurve" smooth="yes"/>
      <point x="351" y="46"/>
      <point x="257" y="46" type="qcurve" smooth="yes"/>
      <point x="187" y="46"/>
      <point x="149" y="115" type="qcurve" smooth="yes"/>
      <point x="130" y="149"/>
      <point x="130" y="199" type="qcurve" smooth="yes"/>
      <point x="130" y="286"/>
      <point x="192" y="356" type="qcurve" smooth="yes"/>
      <point x="254" y="421"/>
      <point x="315" y="421" type="qcurve" smooth="yes"/>
      <point x="344" y="421"/>
      <point x="372" y="402" type="qcurve" smooth="yes"/>
      <point x="381" y="396"/>
      <point x="395" y="371"/>
      <point x="402" y="357" type="qcurve" smooth="yes"/>
      <point x="407" y="349"/>
      <point x="430" y="349"/>
      <point x="464" y="383"/>
      <point x="464" y="401" type="qcurve" smooth="yes"/>
      <point x="464" y="406"/>
      <point x="448" y="435"/>
      <point x="413" y="468"/>
      <point x="355" y="492"/>
      <point x="266" y="492"/>
      <point x="171" y="445"/>
      <point x="96" y="363"/>
      <point x="50" y="255"/>
      <point x="50" y="124"/>
      <point x="105" y="27"/>
      <point x="196" y="-24"/>
    </contour>
    <contour>
      <point x="266" y="573" type="qcurve" smooth="yes"/>
      <point x="279" y="563"/>
      <point x="342" y="563"/>
      <point x="368" y="589"/>
      <point x="388" y="608" type="qcurve" smooth="yes"/>
      <point x="476" y="693"/>
      <point x="476" y="735"/>
      <point x="452" y="735" type="qcurve" smooth="yes"/>
      <point x="442" y="735"/>
      <point x="410" y="708"/>
      <point x="343" y="665"/>
      <point x="311" y="644" type="qcurve"/>
      <point x="279" y="665"/>
      <point x="211" y="708"/>
      <point x="179" y="735"/>
      <point x="169" y="735" type="qcurve" smooth="yes"/>
      <point x="145" y="735"/>
      <point x="145" y="713" type="qcurve" smooth="yes"/>
      <point x="145" y="706"/>
      <point x="196" y="640"/>
    </contour>
  </outline>
</glyph>
<glyph name="Dcaron" format="2">
  <advance width="728" height="728"/>
  <unicode hex="010E"/>
  <outline>
    <contour>
      <point x="360" y="825" type="qcurve"/>
      <point x="392" y="846"/>
      <point x="459" y="889"/>
      <point x="491" y="916"/>
      <point x="501" y="916" type="qcurve" smooth="yes"/>
      <point x="525" y="916"/>
      <point x="525" y="874"/>
      <point x="436" y="789" type="qcurve" smooth="yes"/>
      <point x="408" y="761" type="line" smooth="yes"/>
      <point x="391" y="744"/>
      <point x="328" y="744"/>
      <point x="315" y="754" type="qcurve" smooth="yes"/>
      <point x="245" y="821"/>
      <point x="207" y="870" type="qcurve" smooth="yes"/>
      <point x="194" y="887"/>
      <point x="194" y="894" type="qcurve" smooth="yes"/>
      <point x="194" y="916"/>
      <point x="218" y="916" type="qcurve" smooth="yes"/>
      <point x="228" y="916"/>
      <point x="260" y="889"/>
      <point x="328" y="846"/>
    </contour>
    <contour>
      <point x="45" y="15" type="qcurve" smooth="yes"/>
      <point x="45" y="40"/>
      <point x="100" y="40" type="qcurve"/>
      <point x="100" y="621" type="line"/>
      <point x="89" y="624"/>
      <point x="60" y="656"/>
      <point x="60" y="682"/>
      <point x="71" y="687" type="qcurve" smooth="yes"/>
      <point x="120" y="706"/>
      <point x="244" y="716" type="qcurve" smooth="yes"/>
      <point x="277" y="718"/>
      <point x="303" y="718" type="qcurve" smooth="yes"/>
      <point x="458" y="718"/>
      <point x="679" y="519"/>
      <point x="679" y="201"/>
      <point x="582" y="106" type="qcurve" smooth="yes"/>
      <point x="500" y="24"/>
      <point x="375" y="2" type="qcurve" smooth="yes"/>
      <point x="298" y="-12"/>
      <point x="183" y="-14" type="qcurve" smooth="yes"/>
      <point x="169" y="-14" type="line" smooth="yes"/>
      <point x="45" y="-14"/>
    </contour>
    <contour>
      <point x="182" y="46" type="line"/>
      <point x="322" y="49"/>
      <point x="508" y="132"/>
      <point x="596" y="271"/>
      <point x="596" y="348" type="qcurve" smooth="yes"/>
      <point x="596" y="489"/>
      <point x="413" y="645"/>
      <point x="298" y="645" type="qcurve" smooth="yes"/>
      <point x="235" y="645"/>
      <point x="182" y="630" type="qcurve"/>
    </contour>
  </outline>
</glyph>
<glyph name="dcaron" format="2">
  <advance width="575" height="575"/>
  <unicode hex="010F"/>
  <outline>
    <contour>
      <point x="466" y="-18" type="qcurve" smooth="yes"/>
      <point x="483" y="-18"/>
      <point x="514" y="18"/>
      <point x="514" y="36"/>
      <point x="511" y="42" type="qcurve" smooth="yes"/>
      <point x="496" y="62"/>
      <point x="478" y="143"/>
      <point x="478" y="185" type="qcurve" smooth="yes"/>
      <point x="478" y="592" type="line"/>
      <point x="480" y="681" type="line" smooth="yes"/>
      <point x="480" y="698"/>
      <point x="439" y="715"/>
      <point x="396" y="715"/>
      <point x="396" y="699" type="qcurve" smooth="yes"/>
      <point x="400" y="593" type="line"/>
      <point x="400" y="453" type="line"/>
      <point x="394" y="462"/>
      <point x="333" y="492"/>
      <point x="294" y="492" type="qcurve" smooth="yes"/>
      <point x="194" y="492"/>
      <point x="39" y="306"/>
      <point x="39" y="186" type="qcurve" smooth="yes"/>
      <point x="39" y="86"/>
      <point x="133" y="-24"/>
      <point x="270" y="-24"/>
      <point x="370" y="42"/>
      <point x="403" y="96" type="qcurve"/>
      <point x="403" y="90"/>
      <point x="438" y="-18"/>
    </contour>
    <contour>
      <point x="203" y="48" type="qcurve" smooth="yes"/>
      <point x="169" y="48"/>
      <point x="119" y="118"/>
      <point x="119" y="274"/>
      <point x="172" y="349" type="qcurve" smooth="yes"/>
      <point x="196" y="383"/>
      <point x="260" y="422"/>
      <point x="289" y="422" type="qcurve" smooth="yes"/>
      <point x="351" y="422"/>
      <point x="382" y="378" type="qcurve" smooth="yes"/>
      <point x="388" y="371"/>
      <point x="404" y="371"/>
      <point x="400" y="367" type="qcurve"/>
      <point x="400" y="276" type="line" smooth="yes"/>
      <point x="400" y="186"/>
      <point x="272" y="48"/>
    </contour>
    <contour>
      <point x="499" y="493" type="line" smooth="yes"/>
      <point x="502" y="475"/>
      <point x="563" y="475"/>
      <point x="563" y="494" type="qcurve" smooth="yes"/>
      <point x="568" y="670" type="line"/>
      <point x="568" y="671" type="line" smooth="yes"/>
      <point x="568" y="694"/>
      <point x="531" y="694" type="qcurve" smooth="yes"/>
      <point x="519" y="694"/>
      <point x="494" y="683"/>
      <point x="494" y="670" type="qcurve" smooth="yes"/>
    </contour>
  </outline>
</glyph>
<glyph name="dcroat" format="2">
  <advance width="583" height="583"/>
  <unicode hex="0111"/>
  <outline>
    <contour>
      <point x="471" y="-18" type="qcurve" smooth="yes"/>
      <point x="488" y="-18"/>
      <point x="519" y="18"/>
      <point x="519" y="36"/>
      <point x="516" y="42" type="qcurve" smooth="yes"/>
      <point x="501" y="62"/>
      <point x="483" y="143"/>
      <point x="483" y="185" type="qcurve" smooth="yes"/>
      <point x="483" y="533" type="line"/>
      <point x="482" y="533" type="line"/>
      <point x="502" y="534"/>
      <point x="529" y="534" type="qcurve" smooth="yes"/>
      <point x="567" y="534" type="line" smooth="yes"/>
      <point x="584" y="534"/>
      <point x="584" y="569"/>
      <point x="562" y="602"/>
      <point x="547" y="602" type="qcurve" smooth="yes"/>
      <point x="546" y="602" type="line" smooth="yes"/>
      <point x="510" y="599"/>
      <point x="483" y="597" type="qcurve"/>
      <point x="485" y="681" type="line" smooth="yes"/>
      <point x="485" y="698"/>
      <point x="444" y="715"/>
      <point x="401" y="715"/>
      <point x="401" y="699" type="qcurve" smooth="yes"/>
      <point x="405" y="595" type="line"/>
      <point x="378" y="593" type="line"/>
      <point x="293" y="593" type="line" smooth="yes"/>
      <point x="276" y="593"/>
      <point x="276" y="558"/>
      <point x="297" y="525"/>
      <point x="312" y="525" type="qcurve" smooth="yes"/>
      <point x="313" y="525" type="line"/>
      <point x="372" y="529"/>
      <point x="373" y="529" type="qcurve" smooth="yes"/>
      <point x="378" y="529" type="line"/>
      <point x="405" y="531" type="line"/>
      <point x="405" y="453" type="line"/>
      <point x="399" y="462"/>
      <point x="338" y="492"/>
      <point x="299" y="492" type="qcurve" smooth="yes"/>
      <point x="199" y="492"/>
      <point x="44" y="306"/>
      <point x="44" y="186" type="qcurve" smooth="yes"/>
      <point x="44" y="86"/>
      <point x="138" y="-24"/>
      <point x="275" y="-24"/>
      <point x="375" y="42"/>
      <point x="408" y="96" type="qcurve"/>
      <point x="408" y="90"/>
      <point x="443" y="-18"/>
    </contour>
    <contour>
      <point x="208" y="48" type="qcurve" smooth="yes"/>
      <point x="174" y="48"/>
      <point x="124" y="118"/>
      <point x="124" y="274"/>
      <point x="177" y="349" type="qcurve" smooth="yes"/>
      <point x="201" y="383"/>
      <point x="265" y="422"/>
      <point x="294" y="422" type="qcurve" smooth="yes"/>
      <point x="356" y="422"/>
      <point x="387" y="378" type="qcurve" smooth="yes"/>
      <point x="393" y="371"/>
      <point x="409" y="371"/>
      <point x="405" y="367" type="qcurve"/>
      <point x="405" y="276" type="line" smooth="yes"/>
      <point x="405" y="186"/>
      <point x="277" y="48"/>
    </contour>
  </outline>
</glyph>
<glyph name="Emacron" format="2">
  <advance width="638" height="638"/>
  <unicode hex="0112"/>
  <outline>
    <contour>
      <point x="149" y="-16" type="qcurve" smooth="yes"/>
      <point x="131" y="-16"/>
      <point x="100" y="23"/>
      <point x="100" y="37" type="qcurve" smooth="yes"/>
      <point x="107" y="84" type="line"/>
      <point x="107" y="340" type="line"/>
      <point x="97" y="346"/>
      <point x="80" y="381"/>
      <point x="80" y="393" type="qcurve" smooth="yes"/>
      <point x="80" y="410"/>
      <point x="96" y="410" type="qcurve" smooth="yes"/>
      <point x="107" y="408" type="line"/>
      <point x="107" y="634" type="line"/>
      <point x="103" y="685" type="line" smooth="yes"/>
      <point x="103" y="705"/>
      <point x="123" y="705" type="qcurve" smooth="yes"/>
      <point x="138" y="705"/>
      <point x="158" y="699" type="qcurve" smooth="yes"/>
      <point x="178" y="692" type="line"/>
      <point x="460" y="711"/>
      <point x="495" y="715" type="qcurve" smooth="yes"/>
      <point x="521" y="718"/>
      <point x="533" y="718" type="qcurve" smooth="yes"/>
      <point x="547" y="718"/>
      <point x="570" y="679"/>
      <point x="570" y="662" type="qcurve" smooth="yes"/>
      <point x="570" y="640"/>
      <point x="551" y="640" type="qcurve" smooth="yes"/>
      <point x="463" y="640"/>
      <point x="187" y="621" type="qcurve"/>
      <point x="187" y="409" type="line"/>
      <point x="404" y="423"/>
      <point x="440" y="427" type="qcurve" smooth="yes"/>
      <point x="466" y="430"/>
      <point x="478" y="430" type="qcurve" smooth="yes"/>
      <point x="492" y="430"/>
      <point x="515" y="391"/>
      <point x="515" y="373" type="qcurve" smooth="yes"/>
      <point x="515" y="351"/>
      <point x="496" y="351" type="qcurve" smooth="yes"/>
      <point x="411" y="351"/>
      <point x="187" y="338" type="qcurve"/>
      <point x="187" y="65" type="line"/>
      <point x="530" y="71"/>
      <point x="562" y="73" type="qcurve" smooth="yes"/>
      <point x="580" y="73"/>
      <point x="601" y="31"/>
      <point x="601" y="14" type="qcurve" smooth="yes"/>
      <point x="601" y="-8"/>
      <point x="583" y="-8" type="qcurve" smooth="yes"/>
      <point x="559" y="-5"/>
      <point x="480" y="-5" type="qcurve" smooth="yes"/>
      <point x="186" y="-9"/>
      <point x="164" y="-16"/>
    </contour>
    <contour>
      <point x="433" y="778" type="qcurve" smooth="yes"/>
      <point x="205" y="778" type="line" smooth="yes"/>
      <point x="181" y="778"/>
      <point x="181" y="852"/>
      <point x="206" y="852" type="qcurve" smooth="yes"/>
      <point x="434" y="852" type="line" smooth="yes"/>
      <point x="458" y="852"/>
      <point x="458" y="778"/>
    </contour>
  </outline>
</glyph>
<glyph name="Ebreve" format="2">
  <advance height="1000" width="638"/>
  <unicode hex="0114"/>
  <outline>
    <contour>
      <point x="195" y="-9" type="line" smooth="yes"/>
      <point x="180" y="-9"/>
      <point x="157" y="-16"/>
      <point x="124" y="-16"/>
      <point x="93" y="23"/>
      <point x="93" y="37" type="qcurve" smooth="yes"/>
      <point x="100" y="84" type="line"/>
      <point x="100" y="340" type="line"/>
      <point x="90" y="346"/>
      <point x="73" y="381"/>
      <point x="73" y="410"/>
      <point x="87" y="410" type="qcurve" smooth="yes"/>
      <point x="90" y="410" type="line" smooth="yes"/>
      <point x="98" y="408"/>
      <point x="100" y="408" type="qcurve"/>
      <point x="100" y="634" type="line"/>
      <point x="96" y="685" type="line" smooth="yes"/>
      <point x="96" y="705"/>
      <point x="131" y="705"/>
      <point x="151" y="698" type="qcurve" smooth="yes"/>
      <point x="171" y="692" type="line"/>
      <point x="440" y="710" type="line" smooth="yes"/>
      <point x="462" y="712"/>
      <point x="514" y="718"/>
      <point x="540" y="718"/>
      <point x="563" y="679"/>
      <point x="563" y="640"/>
      <point x="544" y="640" type="qcurve" smooth="yes"/>
      <point x="482" y="640" type="line" smooth="yes"/>
      <point x="455" y="640"/>
      <point x="441" y="639" type="qcurve" smooth="yes"/>
      <point x="180" y="621" type="line"/>
      <point x="180" y="409" type="line"/>
      <point x="385" y="422" type="line" smooth="yes"/>
      <point x="407" y="424"/>
      <point x="459" y="430"/>
      <point x="485" y="430"/>
      <point x="508" y="391"/>
      <point x="508" y="351"/>
      <point x="489" y="351" type="qcurve" smooth="yes"/>
      <point x="426" y="351" type="line" smooth="yes"/>
      <point x="400" y="351"/>
      <point x="386" y="350" type="qcurve" smooth="yes"/>
      <point x="180" y="338" type="line"/>
      <point x="180" y="65" type="line"/>
      <point x="472" y="70" type="line" smooth="yes"/>
      <point x="510" y="70"/>
      <point x="555" y="73" type="qcurve" smooth="yes"/>
      <point x="556" y="73" type="line" smooth="yes"/>
      <point x="573" y="73"/>
      <point x="594" y="31"/>
      <point x="594" y="-8"/>
      <point x="577" y="-8" type="qcurve" smooth="yes"/>
      <point x="576" y="-8" type="line" smooth="yes"/>
      <point x="552" y="-5"/>
      <point x="489" y="-5" type="qcurve" smooth="yes"/>
      <point x="473" y="-5" type="line"/>
    </contour>
    <contour>
      <point x="453" y="792" type="qcurve" smooth="yes"/>
      <point x="403" y="748"/>
      <point x="247" y="748"/>
      <point x="154" y="827"/>
      <point x="154" y="848" type="qcurve" smooth="yes"/>
      <point x="154" y="859"/>
      <point x="180" y="880"/>
      <point x="208" y="880"/>
      <point x="216" y="867" type="qcurve" smooth="yes"/>
      <point x="229" y="846"/>
      <point x="286" y="818"/>
      <point x="361" y="818"/>
      <point x="418" y="846"/>
      <point x="430" y="867" type="qcurve" smooth="yes"/>
      <point x="438" y="880"/>
      <point x="466" y="880"/>
      <point x="492" y="859"/>
      <point x="492" y="849" type="qcurve" smooth="yes"/>
      <point x="492" y="828"/>
    </contour>
  </outline>
</glyph>
<glyph name="ebreve" format="2">
  <advance height="1000" width="543"/>
  <unicode hex="0115"/>
  <outline>
    <contour>
      <point x="244" y="-24" type="qcurve" smooth="yes"/>
      <point x="191" y="-24"/>
      <point x="105" y="29"/>
      <point x="56" y="128"/>
      <point x="56" y="195" type="qcurve" smooth="yes"/>
      <point x="56" y="206" type="line"/>
      <point x="35" y="222"/>
      <point x="35" y="260"/>
      <point x="60" y="260" type="qcurve" smooth="yes"/>
      <point x="64" y="260" type="line"/>
      <point x="78" y="337"/>
      <point x="223" y="492"/>
      <point x="319" y="492" type="qcurve" smooth="yes"/>
      <point x="383" y="492"/>
      <point x="421" y="469" type="qcurve" smooth="yes"/>
      <point x="491" y="428"/>
      <point x="491" y="340" type="qcurve" smooth="yes"/>
      <point x="491" y="305"/>
      <point x="479" y="262"/>
      <point x="437" y="236"/>
      <point x="391" y="221" type="qcurve" smooth="yes"/>
      <point x="290" y="190"/>
      <point x="140" y="190" type="qcurve" smooth="yes"/>
      <point x="133" y="190" type="line"/>
      <point x="133" y="186" type="line" smooth="yes"/>
      <point x="133" y="123"/>
      <point x="197" y="47"/>
      <point x="251" y="47" type="qcurve" smooth="yes"/>
      <point x="374" y="47"/>
      <point x="451" y="129" type="qcurve" smooth="yes"/>
      <point x="465" y="146"/>
      <point x="494" y="146"/>
      <point x="494" y="117"/>
      <point x="464" y="69"/>
      <point x="433" y="42" type="qcurve" smooth="yes"/>
      <point x="358" y="-24"/>
    </contour>
    <contour>
      <point x="143" y="258" type="qcurve"/>
      <point x="155" y="258" type="line" smooth="yes"/>
      <point x="266" y="258"/>
      <point x="360" y="284" type="qcurve" smooth="yes"/>
      <point x="394" y="294"/>
      <point x="413" y="317"/>
      <point x="413" y="341" type="qcurve" smooth="yes"/>
      <point x="413" y="422"/>
      <point x="318" y="422" type="qcurve" smooth="yes"/>
      <point x="252" y="422"/>
      <point x="155" y="310"/>
    </contour>
    <contour>
      <point x="172" y="578" type="qcurve" smooth="yes"/>
      <point x="128" y="614"/>
      <point x="128" y="637" type="qcurve" smooth="yes"/>
      <point x="128" y="648"/>
      <point x="157" y="670"/>
      <point x="187" y="670"/>
      <point x="195" y="657" type="qcurve" smooth="yes"/>
      <point x="224" y="606"/>
      <point x="300" y="606" type="qcurve" smooth="yes"/>
      <point x="337" y="606"/>
      <point x="388" y="628"/>
      <point x="405" y="657" type="qcurve" smooth="yes"/>
      <point x="413" y="670"/>
      <point x="443" y="670"/>
      <point x="471" y="648"/>
      <point x="471" y="637" type="qcurve" smooth="yes"/>
      <point x="471" y="613"/>
      <point x="379" y="535"/>
      <point x="224" y="535"/>
    </contour>
  </outline>
</glyph>
<glyph name="Edotaccent" format="2">
  <advance width="638" height="638"/>
  <unicode hex="0116"/>
  <outline>
    <contour>
      <point x="195" y="-9" type="qcurve" smooth="yes"/>
      <point x="473" y="-5" type="line"/>
      <point x="489" y="-5" type="line" smooth="yes"/>
      <point x="552" y="-5"/>
      <point x="576" y="-8" type="qcurve" smooth="yes"/>
      <point x="577" y="-8" type="line" smooth="yes"/>
      <point x="594" y="-8"/>
      <point x="594" y="31"/>
      <point x="573" y="73"/>
      <point x="556" y="73" type="qcurve" smooth="yes"/>
      <point x="555" y="73" type="line" smooth="yes"/>
      <point x="510" y="70"/>
      <point x="472" y="70" type="qcurve" smooth="yes"/>
      <point x="180" y="65" type="line"/>
      <point x="180" y="338" type="line"/>
      <point x="386" y="350" type="line" smooth="yes"/>
      <point x="400" y="351"/>
      <point x="426" y="351" type="qcurve" smooth="yes"/>
      <point x="489" y="351" type="line" smooth="yes"/>
      <point x="508" y="351"/>
      <point x="508" y="391"/>
      <point x="485" y="430"/>
      <point x="459" y="430"/>
      <point x="407" y="424"/>
      <point x="385" y="422" type="qcurve" smooth="yes"/>
      <point x="180" y="409" type="line"/>
      <point x="180" y="621" type="line"/>
      <point x="441" y="639" type="line" smooth="yes"/>
      <point x="455" y="640"/>
      <point x="482" y="640" type="qcurve" smooth="yes"/>
      <point x="544" y="640" type="line" smooth="yes"/>
      <point x="563" y="640"/>
      <point x="563" y="679"/>
      <point x="540" y="718"/>
      <point x="514" y="718"/>
      <point x="462" y="712"/>
      <point x="440" y="710" type="qcurve" smooth="yes"/>
      <point x="171" y="692" type="line"/>
      <point x="151" y="698" type="line" smooth="yes"/>
      <point x="131" y="705"/>
      <point x="96" y="705"/>
      <point x="96" y="685" type="qcurve" smooth="yes"/>
      <point x="100" y="634" type="line"/>
      <point x="100" y="408" type="line"/>
      <point x="98" y="408"/>
      <point x="90" y="410" type="qcurve" smooth="yes"/>
      <point x="87" y="410" type="line" smooth="yes"/>
      <point x="73" y="410"/>
      <point x="73" y="381"/>
      <point x="90" y="346"/>
      <point x="100" y="340" type="qcurve"/>
      <point x="100" y="84" type="line"/>
      <point x="93" y="37" type="line" smooth="yes"/>
      <point x="93" y="23"/>
      <point x="124" y="-16"/>
      <point x="157" y="-16"/>
      <point x="180" y="-9"/>
    </contour>
    <contour>
      <point x="357" y="785"/>
      <point x="385" y="815"/>
      <point x="385" y="863"/>
      <point x="347" y="906"/>
      <point x="299" y="906"/>
      <point x="272" y="876"/>
      <point x="272" y="830"/>
      <point x="309" y="785"/>
    </contour>
  </outline>
</glyph>
<glyph name="eogonek" format="2">
  <advance width="543" height="543"/>
  <unicode hex="0119"/>
  <outline>
    <contour>
      <point x="327" y="-43" type="qcurve" smooth="yes"/>
      <point x="327" y="-82"/>
      <point x="380" y="-132"/>
      <point x="464" y="-132"/>
      <point x="519" y="-99"/>
      <point x="554" y="-56"/>
      <point x="554" y="-25"/>
      <point x="525" y="-25"/>
      <point x="512" y="-38" type="qcurve" smooth="yes"/>
      <point x="481" y="-65"/>
      <point x="407" y="-65"/>
      <point x="407" y="-38" type="qcurve" smooth="yes"/>
      <point x="407" y="10"/>
      <point x="442" y="50" type="qcurve" smooth="yes"/>
      <point x="466" y="73"/>
      <point x="479" y="93" type="qcurve" smooth="yes"/>
      <point x="494" y="117"/>
      <point x="494" y="146"/>
      <point x="465" y="146"/>
      <point x="451" y="129" type="qcurve" smooth="yes"/>
      <point x="374" y="47"/>
      <point x="251" y="47" type="qcurve" smooth="yes"/>
      <point x="197" y="47"/>
      <point x="133" y="123"/>
      <point x="133" y="186" type="qcurve" smooth="yes"/>
      <point x="133" y="190" type="line"/>
      <point x="140" y="190" type="line" smooth="yes"/>
      <point x="290" y="190"/>
      <point x="391" y="221" type="qcurve" smooth="yes"/>
      <point x="437" y="236"/>
      <point x="479" y="262"/>
      <point x="491" y="305"/>
      <point x="491" y="340" type="qcurve" smooth="yes"/>
      <point x="491" y="428"/>
      <point x="421" y="469" type="qcurve" smooth="yes"/>
      <point x="383" y="492"/>
      <point x="319" y="492" type="qcurve" smooth="yes"/>
      <point x="223" y="492"/>
      <point x="78" y="337"/>
      <point x="64" y="260" type="qcurve"/>
      <point x="60" y="260" type="line" smooth="yes"/>
      <point x="35" y="260"/>
      <point x="35" y="222"/>
      <point x="56" y="206" type="qcurve"/>
      <point x="56" y="195" type="line" smooth="yes"/>
      <point x="56" y="128"/>
      <point x="105" y="29"/>
      <point x="191" y="-24"/>
      <point x="244" y="-24" type="qcurve" smooth="yes"/>
      <point x="296" y="-24"/>
      <point x="329" y="-14" type="qcurve"/>
      <point x="327" y="-22"/>
    </contour>
    <contour>
      <point x="143" y="258" type="line"/>
      <point x="155" y="310"/>
      <point x="252" y="422"/>
      <point x="318" y="422" type="qcurve" smooth="yes"/>
      <point x="413" y="422"/>
      <point x="413" y="341" type="qcurve" smooth="yes"/>
      <point x="413" y="317"/>
      <point x="394" y="294"/>
      <point x="360" y="284" type="qcurve" smooth="yes"/>
      <point x="266" y="258"/>
      <point x="155" y="258" type="qcurve" smooth="yes"/>
    </contour>
  </outline>
</glyph>
